%TF.GenerationSoftware,KiCad,Pcbnew,6.99.0-1.20221101gitf80c150.fc36*%
%TF.CreationDate,2022-11-28T17:43:37+00:00*%
%TF.ProjectId,bugg-mic-r4,62756767-2d6d-4696-932d-72342e6b6963,rev?*%
%TF.SameCoordinates,Original*%
%TF.FileFunction,Copper,L1,Top*%
%TF.FilePolarity,Positive*%
%FSLAX46Y46*%
G04 Gerber Fmt 4.6, Leading zero omitted, Abs format (unit mm)*
G04 Created by KiCad (PCBNEW 6.99.0-1.20221101gitf80c150.fc36) date 2022-11-28 17:43:37*
%MOMM*%
%LPD*%
G01*
G04 APERTURE LIST*
G04 Aperture macros list*
%AMRoundRect*
0 Rectangle with rounded corners*
0 $1 Rounding radius*
0 $2 $3 $4 $5 $6 $7 $8 $9 X,Y pos of 4 corners*
0 Add a 4 corners polygon primitive as box body*
4,1,4,$2,$3,$4,$5,$6,$7,$8,$9,$2,$3,0*
0 Add four circle primitives for the rounded corners*
1,1,$1+$1,$2,$3*
1,1,$1+$1,$4,$5*
1,1,$1+$1,$6,$7*
1,1,$1+$1,$8,$9*
0 Add four rect primitives between the rounded corners*
20,1,$1+$1,$2,$3,$4,$5,0*
20,1,$1+$1,$4,$5,$6,$7,0*
20,1,$1+$1,$6,$7,$8,$9,0*
20,1,$1+$1,$8,$9,$2,$3,0*%
%AMFreePoly0*
4,1,111,-2.563245,3.679731,-2.180727,3.619146,-1.806637,3.518909,-1.445074,3.380118,-1.100000,3.204294,-0.775195,2.993363,-0.474217,2.749636,-0.200364,2.475783,0.043363,2.174805,0.254294,1.850000,0.430118,1.504926,0.568909,1.143363,0.669146,0.769273,0.729731,0.386755,0.750000,0.000000,0.729731,-0.386755,0.669146,-0.769273,0.568909,-1.143363,0.430118,-1.504926,0.254294,-1.850000,
0.043363,-2.174805,-0.200364,-2.475783,-0.474217,-2.749636,-0.775195,-2.993363,-1.100000,-3.204294,-1.445074,-3.380118,-1.806637,-3.518909,-2.180727,-3.619146,-2.563245,-3.679731,-2.950000,-3.700000,-3.336755,-3.679731,-3.719273,-3.619146,-4.093363,-3.518909,-4.454926,-3.380118,-4.800000,-3.204294,-5.124805,-2.993363,-5.425783,-2.749636,-5.699636,-2.475783,-5.943363,-2.174805,-6.154294,-1.850000,
-6.330118,-1.504926,-6.468909,-1.143363,-6.569146,-0.769273,-6.629731,-0.386755,-6.650000,0.000000,-5.254935,0.000000,-5.235216,-0.300854,-5.176396,-0.596561,-5.079482,-0.882060,-4.946132,-1.152468,-4.778628,-1.403156,-4.579835,-1.629835,-4.353156,-1.828628,-4.102468,-1.996132,-3.832060,-2.129482,-3.546561,-2.226396,-3.250854,-2.285216,-2.950000,-2.304935,-2.649146,-2.285216,-2.353439,-2.226396,
-2.067940,-2.129482,-1.797532,-1.996132,-1.546844,-1.828628,-1.320165,-1.629835,-1.121372,-1.403156,-0.953868,-1.152468,-0.820518,-0.882060,-0.723604,-0.596561,-0.664784,-0.300854,-0.645065,0.000000,-0.664784,0.300854,-0.723604,0.596561,-0.820518,0.882060,-0.953868,1.152467,-1.121372,1.403156,-1.320165,1.629835,-1.546844,1.828628,-1.797532,1.996132,-2.067940,2.129482,-2.353439,2.226396,
-2.649146,2.285216,-2.950000,2.304935,-3.250854,2.285216,-3.546561,2.226396,-3.832060,2.129482,-4.102467,1.996132,-4.353156,1.828628,-4.579835,1.629835,-4.778628,1.403156,-4.946132,1.152467,-5.079482,0.882060,-5.176396,0.596561,-5.235216,0.300854,-5.254935,0.000000,-6.650000,0.000000,-6.629731,0.386755,-6.569146,0.769273,-6.468909,1.143363,-6.330118,1.504926,-6.154294,1.850000,
-5.943363,2.174805,-5.699636,2.475783,-5.425783,2.749636,-5.124805,2.993363,-4.800000,3.204294,-4.454926,3.380118,-4.093363,3.518909,-3.719273,3.619146,-3.336755,3.679731,-2.950000,3.700000,-2.563245,3.679731,-2.563245,3.679731,$1*%
%AMFreePoly1*
4,1,53,0.180798,1.454629,0.352531,1.394537,0.506585,1.297738,0.635238,1.169085,0.732037,1.015031,0.792129,0.843298,0.812500,0.662500,0.792129,0.481702,0.732037,0.309969,0.635238,0.155915,0.506585,0.027262,0.352531,-0.069537,0.180798,-0.129629,0.000000,-0.150000,-0.180798,-0.129629,-0.352531,-0.069537,-0.506585,0.027262,-0.635238,0.155915,-0.732037,0.309969,-0.792129,0.481702,
-0.812500,0.662500,-0.517770,0.662500,-0.496797,0.516627,-0.435576,0.382572,-0.339067,0.271196,-0.215089,0.191520,-0.073686,0.150000,0.073686,0.150000,0.215089,0.191520,0.339067,0.271196,0.435576,0.382572,0.496797,0.516627,0.517770,0.662500,0.496797,0.808373,0.435576,0.942428,0.339067,1.053804,0.215089,1.133480,0.073686,1.175000,-0.073686,1.175000,-0.215089,1.133480,
-0.339067,1.053804,-0.435576,0.942428,-0.496797,0.808373,-0.517770,0.662500,-0.812500,0.662500,-0.792129,0.843298,-0.732037,1.015031,-0.635238,1.169085,-0.506585,1.297738,-0.352531,1.394537,-0.180798,1.454629,0.000000,1.475000,0.180798,1.454629,0.180798,1.454629,$1*%
G04 Aperture macros list end*
%TA.AperFunction,SMDPad,CuDef*%
%ADD10RoundRect,0.140000X-0.170000X0.140000X-0.170000X-0.140000X0.170000X-0.140000X0.170000X0.140000X0*%
%TD*%
%TA.AperFunction,SMDPad,CuDef*%
%ADD11C,1.000000*%
%TD*%
%TA.AperFunction,SMDPad,CuDef*%
%ADD12RoundRect,0.225000X-0.250000X0.225000X-0.250000X-0.225000X0.250000X-0.225000X0.250000X0.225000X0*%
%TD*%
%TA.AperFunction,SMDPad,CuDef*%
%ADD13RoundRect,0.140000X0.170000X-0.140000X0.170000X0.140000X-0.170000X0.140000X-0.170000X-0.140000X0*%
%TD*%
%TA.AperFunction,SMDPad,CuDef*%
%ADD14C,1.100000*%
%TD*%
%TA.AperFunction,SMDPad,CuDef*%
%ADD15FreePoly0,0.000000*%
%TD*%
%TA.AperFunction,SMDPad,CuDef*%
%ADD16RoundRect,0.135000X-0.185000X0.135000X-0.185000X-0.135000X0.185000X-0.135000X0.185000X0.135000X0*%
%TD*%
%TA.AperFunction,SMDPad,CuDef*%
%ADD17R,3.500000X1.000000*%
%TD*%
%TA.AperFunction,SMDPad,CuDef*%
%ADD18RoundRect,0.075000X-0.075000X0.350000X-0.075000X-0.350000X0.075000X-0.350000X0.075000X0.350000X0*%
%TD*%
%TA.AperFunction,SMDPad,CuDef*%
%ADD19RoundRect,0.075000X-0.350000X0.075000X-0.350000X-0.075000X0.350000X-0.075000X0.350000X0.075000X0*%
%TD*%
%TA.AperFunction,ComponentPad*%
%ADD20C,0.500000*%
%TD*%
%TA.AperFunction,SMDPad,CuDef*%
%ADD21R,2.650000X2.650000*%
%TD*%
%TA.AperFunction,SMDPad,CuDef*%
%ADD22C,0.500000*%
%TD*%
%TA.AperFunction,SMDPad,CuDef*%
%ADD23R,0.725000X0.522000*%
%TD*%
%TA.AperFunction,SMDPad,CuDef*%
%ADD24FreePoly1,0.000000*%
%TD*%
%TA.AperFunction,SMDPad,CuDef*%
%ADD25RoundRect,0.200000X-0.275000X0.200000X-0.275000X-0.200000X0.275000X-0.200000X0.275000X0.200000X0*%
%TD*%
%TA.AperFunction,SMDPad,CuDef*%
%ADD26RoundRect,0.140000X0.140000X0.170000X-0.140000X0.170000X-0.140000X-0.170000X0.140000X-0.170000X0*%
%TD*%
%TA.AperFunction,ViaPad*%
%ADD27C,0.600000*%
%TD*%
%TA.AperFunction,ViaPad*%
%ADD28C,0.800000*%
%TD*%
%TA.AperFunction,Conductor*%
%ADD29C,0.250000*%
%TD*%
%TA.AperFunction,Conductor*%
%ADD30C,0.300000*%
%TD*%
%TA.AperFunction,Conductor*%
%ADD31C,0.600000*%
%TD*%
%TA.AperFunction,Conductor*%
%ADD32C,0.400000*%
%TD*%
G04 APERTURE END LIST*
D10*
%TO.P,C303,1*%
%TO.N,GND*%
X12800000Y4080000D03*
%TO.P,C303,2*%
%TO.N,Net-(U301-VREF)*%
X12800000Y3120000D03*
%TD*%
%TO.P,C309,1*%
%TO.N,GND*%
X17100000Y1305000D03*
%TO.P,C309,2*%
%TO.N,Net-(U301-DREG)*%
X17100000Y345000D03*
%TD*%
D11*
%TO.P,TP303,1,1*%
%TO.N,Net-(U301-GPIO1)*%
X16660284Y-6485377D03*
%TD*%
D12*
%TO.P,C304,1*%
%TO.N,GND*%
X15160000Y3835000D03*
%TO.P,C304,2*%
%TO.N,Net-(U301-AREG)*%
X15160000Y2285000D03*
%TD*%
D10*
%TO.P,C311,1*%
%TO.N,+3V3*%
X17050000Y-3420000D03*
%TO.P,C311,2*%
%TO.N,GND*%
X17050000Y-4380000D03*
%TD*%
D11*
%TO.P,TP302,1,1*%
%TO.N,Net-(U301-PDMCLK1_GPO1)*%
X9900000Y-6500000D03*
%TD*%
D12*
%TO.P,C310,1*%
%TO.N,+3V3*%
X18400000Y-3075000D03*
%TO.P,C310,2*%
%TO.N,GND*%
X18400000Y-4625000D03*
%TD*%
D13*
%TO.P,C312,1*%
%TO.N,GND*%
X12850000Y-5530000D03*
%TO.P,C312,2*%
%TO.N,/SHDNZ*%
X12850000Y-4570000D03*
%TD*%
D10*
%TO.P,C307,1*%
%TO.N,GND*%
X16760000Y4065000D03*
%TO.P,C307,2*%
%TO.N,+3V3*%
X16760000Y3105000D03*
%TD*%
D14*
%TO.P,SP302,1,1*%
%TO.N,GND*%
X3050000Y0D03*
X6000000Y2950000D03*
X6000000Y-2950000D03*
D15*
X8950000Y0D03*
%TD*%
D16*
%TO.P,R302,1*%
%TO.N,Net-(MIC301-CLOCK)*%
X1400000Y-1890000D03*
%TO.P,R302,2*%
%TO.N,Net-(U301-PDMCLK1_GPO1)*%
X1400000Y-2910000D03*
%TD*%
D17*
%TO.P,J301,1,Pin_1*%
%TO.N,/SHDNZ*%
X9499999Y-8999999D03*
%TO.P,J301,2,Pin_2*%
%TO.N,+3V3*%
X14499999Y-8999999D03*
%TO.P,J301,3,Pin_3*%
%TO.N,/SCL*%
X9499999Y-10999999D03*
%TO.P,J301,4,Pin_4*%
%TO.N,/FSYNC*%
X14499999Y-10999999D03*
%TO.P,J301,5,Pin_5*%
%TO.N,/SDA*%
X9499999Y-12999999D03*
%TO.P,J301,6,Pin_6*%
%TO.N,/BCLK*%
X14499999Y-12999999D03*
%TO.P,J301,7,Pin_7*%
%TO.N,GND*%
X9499999Y-14999999D03*
%TO.P,J301,8,Pin_8*%
%TO.N,/SDOUT*%
X14499999Y-14999999D03*
%TD*%
D16*
%TO.P,R301,1*%
%TO.N,Net-(MIC301-DATA)*%
X-1350000Y-1890000D03*
%TO.P,R301,2*%
%TO.N,Net-(U301-PDMDIN1_GPI1)*%
X-1350000Y-2910000D03*
%TD*%
D18*
%TO.P,U301,1,AVDD*%
%TO.N,+3V3*%
X14850000Y550000D03*
%TO.P,U301,2,AREG*%
%TO.N,Net-(U301-AREG)*%
X14350000Y550000D03*
%TO.P,U301,3,VREF*%
%TO.N,Net-(U301-VREF)*%
X13850000Y550000D03*
%TO.P,U301,4,AVSS*%
%TO.N,GND*%
X13350000Y550000D03*
%TO.P,U301,5,MICBIAS*%
%TO.N,Net-(U301-MICBIAS)*%
X12850000Y550000D03*
%TO.P,U301,6,PDMDIN1_GPI1*%
%TO.N,Net-(U301-PDMDIN1_GPI1)*%
X12350000Y550000D03*
D19*
%TO.P,U301,7,PDMCLK1_GPO1*%
%TO.N,Net-(U301-PDMCLK1_GPO1)*%
X11650000Y-150000D03*
%TO.P,U301,8,PDMDIN2_GPI2*%
%TO.N,GND*%
X11650000Y-650000D03*
%TO.P,U301,9,PDMCLK2_GPO2*%
%TO.N,unconnected-(U301-PDMCLK2_GPO2)*%
X11650000Y-1150000D03*
%TO.P,U301,10,PDMDIN3_GPI3*%
%TO.N,GND*%
X11650000Y-1650000D03*
%TO.P,U301,11,PDMCLK3_GPO3*%
%TO.N,unconnected-(U301-PDMCLK3_GPO3)*%
X11650000Y-2150000D03*
%TO.P,U301,12,PDMDIN4_GPI4*%
%TO.N,GND*%
X11650000Y-2650000D03*
D18*
%TO.P,U301,13,PDMCLK4_GPO4*%
%TO.N,unconnected-(U301-PDMCLK4_GPO4)*%
X12350000Y-3350000D03*
%TO.P,U301,14,SHDNZ*%
%TO.N,/SHDNZ*%
X12850000Y-3350000D03*
%TO.P,U301,15,ADDR1_MISO*%
%TO.N,GND*%
X13350000Y-3350000D03*
%TO.P,U301,16,ADDR0_SCLK*%
X13850000Y-3350000D03*
%TO.P,U301,17,SCL_MOSI*%
%TO.N,/SCL*%
X14350000Y-3350000D03*
%TO.P,U301,18,SDA_SSZ*%
%TO.N,/SDA*%
X14850000Y-3350000D03*
D19*
%TO.P,U301,19,IOVDD*%
%TO.N,+3V3*%
X15550000Y-2650000D03*
%TO.P,U301,20,GPIO1*%
%TO.N,Net-(U301-GPIO1)*%
X15550000Y-2150000D03*
%TO.P,U301,21,SDOUT*%
%TO.N,/SDOUT*%
X15550000Y-1650000D03*
%TO.P,U301,22,BCLK*%
%TO.N,/BCLK*%
X15550000Y-1150000D03*
%TO.P,U301,23,FSYNC*%
%TO.N,/FSYNC*%
X15550000Y-650000D03*
%TO.P,U301,24,DREG*%
%TO.N,Net-(U301-DREG)*%
X15550000Y-150000D03*
D20*
%TO.P,U301,25,VSS_THERMAL*%
%TO.N,GND*%
X14675000Y-325000D03*
X13600000Y-325000D03*
X12525000Y-325000D03*
X14675000Y-1400000D03*
X13600000Y-1400000D03*
D21*
X13599999Y-1399999D03*
D20*
X12525000Y-1400000D03*
X14675000Y-2475000D03*
X13600000Y-2475000D03*
X12525000Y-2475000D03*
%TD*%
D14*
%TO.P,SP301,1,1*%
%TO.N,GND*%
X-8950000Y0D03*
X-6000000Y2950000D03*
X-6000000Y-2950000D03*
D15*
X-3050000Y0D03*
%TD*%
D10*
%TO.P,C306,1*%
%TO.N,GND*%
X17700000Y4065000D03*
%TO.P,C306,2*%
%TO.N,+3V3*%
X17700000Y3105000D03*
%TD*%
D22*
%TO.P,FID302,*%
%TO.N,*%
X-10000000Y-4000000D03*
%TD*%
D10*
%TO.P,C302,1*%
%TO.N,GND*%
X11700000Y4080000D03*
%TO.P,C302,2*%
%TO.N,Net-(U301-MICBIAS)*%
X11700000Y3120000D03*
%TD*%
D22*
%TO.P,FID301,*%
%TO.N,*%
X10000000Y3000000D03*
%TD*%
D23*
%TO.P,MIC301,1,DATA*%
%TO.N,Net-(MIC301-DATA)*%
X-837499Y2073999D03*
%TO.P,MIC301,2,SEL*%
%TO.N,+3V3*%
X-837499Y1251999D03*
D24*
%TO.P,MIC301,3,GND*%
%TO.N,GND*%
X0Y-662500D03*
D23*
%TO.P,MIC301,4,CLOCK*%
%TO.N,Net-(MIC301-CLOCK)*%
X837499Y1251999D03*
%TO.P,MIC301,5,VDD*%
%TO.N,+3V3*%
X837499Y2073999D03*
%TD*%
D25*
%TO.P,R303,1*%
%TO.N,/SHDNZ*%
X11650000Y-4775000D03*
%TO.P,R303,2*%
%TO.N,+3V3*%
X11650000Y-6425000D03*
%TD*%
D11*
%TO.P,TP301,1,1*%
%TO.N,Net-(U301-PDMDIN1_GPI1)*%
X9900000Y-4450000D03*
%TD*%
D12*
%TO.P,C308,1*%
%TO.N,GND*%
X18300000Y1900000D03*
%TO.P,C308,2*%
%TO.N,Net-(U301-DREG)*%
X18300000Y350000D03*
%TD*%
D10*
%TO.P,C305,1*%
%TO.N,GND*%
X13925000Y4080000D03*
%TO.P,C305,2*%
%TO.N,Net-(U301-AREG)*%
X13925000Y3120000D03*
%TD*%
D26*
%TO.P,C301,1*%
%TO.N,+3V3*%
X480000Y3600000D03*
%TO.P,C301,2*%
%TO.N,GND*%
X-480000Y3600000D03*
%TD*%
D27*
%TO.N,GND*%
X-600000Y-3450000D03*
D28*
X15600000Y-5350000D03*
D27*
X500000Y-3450000D03*
X11750000Y-14700000D03*
X13700000Y-4400000D03*
X12950000Y2000000D03*
X11750000Y-15300000D03*
X16000000Y4350000D03*
X10550000Y1350000D03*
X-3050000Y4100000D03*
X15950000Y550000D03*
X18550000Y4000000D03*
X11455944Y-7673746D03*
X4000000Y4200000D03*
X11450000Y-3550000D03*
X10950000Y4050000D03*
%TO.N,+3V3*%
X16750000Y2350000D03*
X14200000Y-8100000D03*
D28*
X2950000Y3100000D03*
X15850000Y-3800000D03*
D27*
X11900000Y-5700000D03*
%TO.N,/SDOUT*%
X17550000Y-1800000D03*
X12200000Y-14000000D03*
%TO.N,/BCLK*%
X18133725Y-1252932D03*
X12241949Y-13158051D03*
%TO.N,/FSYNC*%
X18674709Y-663564D03*
X12200000Y-12200000D03*
%TO.N,Net-(U301-PDMDIN1_GPI1)*%
X-2350000Y-2950000D03*
X9500000Y-2900000D03*
%TO.N,Net-(U301-PDMCLK1_GPO1)*%
X2500000Y-2900000D03*
X10449991Y-3500009D03*
%TO.N,Net-(U301-GPIO1)*%
X16533051Y-5283051D03*
X16974627Y-2425373D03*
%TD*%
D29*
%TO.N,GND*%
X11150000Y-659298D02*
X10900000Y-909298D01*
X0Y-662500D02*
X0Y-1400000D01*
X11150000Y-650000D02*
X11150000Y-659298D01*
X13350000Y550000D02*
X13350000Y1600000D01*
X13350000Y-3350000D02*
X13350000Y-3850000D01*
X10900000Y-1600000D02*
X10900000Y-2600000D01*
X10900000Y-2600000D02*
X10900000Y-3000000D01*
X0Y-1400000D02*
X0Y-1850000D01*
X11650000Y-1650000D02*
X11100000Y-1650000D01*
X10900000Y-3000000D02*
X11450000Y-3550000D01*
X13350000Y1600000D02*
X12950000Y2000000D01*
X10950000Y-2650000D02*
X10900000Y-2600000D01*
X10900000Y-909298D02*
X10900000Y-1600000D01*
X10950000Y-1650000D02*
X10900000Y-1600000D01*
X11650000Y-1650000D02*
X10950000Y-1650000D01*
X11650000Y-650000D02*
X11150000Y-650000D01*
X11650000Y-2650000D02*
X10950000Y-2650000D01*
X11650000Y-2650000D02*
X11100000Y-2650000D01*
X-662569Y0D02*
X-1200000Y0D01*
X13850000Y-3350000D02*
X13850000Y-3850000D01*
X11650000Y-650000D02*
X11100000Y-650000D01*
%TO.N,Net-(U301-MICBIAS)*%
X12850000Y1100000D02*
X12850000Y550000D01*
X11700000Y2250000D02*
X11700000Y3120000D01*
X11700000Y2250000D02*
X12850000Y1100000D01*
D30*
%TO.N,+3V3*%
X15900000Y-2650000D02*
X16280000Y-2650000D01*
D31*
X14500000Y-8400000D02*
X14500000Y-9000000D01*
D32*
X837500Y2074000D02*
X1924000Y2074000D01*
D29*
X15550000Y-2650000D02*
X15900000Y-2650000D01*
D32*
X1924000Y2074000D02*
X2950000Y3100000D01*
D31*
X16230000Y-3420000D02*
X15850000Y-3800000D01*
D29*
X-371002Y1252000D02*
X450998Y2074000D01*
D32*
X11900000Y-6175000D02*
X11650000Y-6425000D01*
X16760000Y3105000D02*
X17660000Y3105000D01*
D29*
X450998Y2074000D02*
X837500Y2074000D01*
D31*
X17050000Y-3420000D02*
X16230000Y-3420000D01*
D30*
X16280000Y-2650000D02*
X17050000Y-3420000D01*
D29*
X-837500Y1252000D02*
X-371002Y1252000D01*
D31*
X17050000Y-3420000D02*
X18055000Y-3420000D01*
X18055000Y-3420000D02*
X18400000Y-3075000D01*
D32*
X15700000Y1300000D02*
X16750000Y2350000D01*
D31*
X14200000Y-8100000D02*
X14500000Y-8400000D01*
D32*
X16760000Y2360000D02*
X16760000Y3105000D01*
D30*
X14850000Y550000D02*
X14850000Y1050000D01*
D32*
X15700000Y1300000D02*
X15100000Y1300000D01*
X11900000Y-5750000D02*
X11900000Y-6175000D01*
D29*
X837500Y3242500D02*
X480000Y3600000D01*
X837500Y2074000D02*
X837500Y3242500D01*
D32*
X16750000Y2350000D02*
X16760000Y2360000D01*
D30*
X14850000Y1050000D02*
X15100000Y1300000D01*
D29*
%TO.N,Net-(U301-VREF)*%
X13850000Y550000D02*
X13850000Y2101188D01*
X12831188Y3120000D02*
X12800000Y3120000D01*
X13850000Y2101188D02*
X12831188Y3120000D01*
%TO.N,Net-(U301-AREG)*%
X14350000Y1475000D02*
X15160000Y2285000D01*
X14835000Y2285000D02*
X14000000Y3120000D01*
X15160000Y2285000D02*
X14835000Y2285000D01*
X14350000Y550000D02*
X14350000Y1475000D01*
%TO.N,/SHDNZ*%
X10800000Y-5625000D02*
X10800000Y-7700000D01*
X12850000Y-3350000D02*
X12850000Y-4464967D01*
X12850000Y-4464967D02*
X12539967Y-4775000D01*
X10800000Y-7700000D02*
X9500000Y-9000000D01*
X12539967Y-4775000D02*
X11650000Y-4775000D01*
X11650000Y-4775000D02*
X10800000Y-5625000D01*
%TO.N,/SDOUT*%
X14500000Y-15000000D02*
X13200000Y-15000000D01*
X15550000Y-1650000D02*
X17400000Y-1650000D01*
X13200000Y-15000000D02*
X12200000Y-14000000D01*
X17400000Y-1650000D02*
X17550000Y-1800000D01*
%TO.N,/SCL*%
X11700000Y-8313589D02*
X12413589Y-7600000D01*
X12950000Y-7600000D02*
X14350000Y-6200000D01*
X12413589Y-7600000D02*
X12950000Y-7600000D01*
X14350000Y-6200000D02*
X14350000Y-3350000D01*
X11700000Y-9950000D02*
X11700000Y-8313589D01*
X10650000Y-11000000D02*
X11700000Y-9950000D01*
X9500000Y-11000000D02*
X10650000Y-11000000D01*
%TO.N,/BCLK*%
X15550000Y-1150000D02*
X18030793Y-1150000D01*
X14500000Y-13000000D02*
X12400000Y-13000000D01*
X12400000Y-13000000D02*
X12241949Y-13158051D01*
X18030793Y-1150000D02*
X18133725Y-1252932D01*
%TO.N,/SDA*%
X10474996Y-13000000D02*
X12150000Y-11324996D01*
X12150000Y-11324996D02*
X12150000Y-8500000D01*
X13149989Y-8050011D02*
X14850000Y-6350000D01*
X12599989Y-8050011D02*
X13149989Y-8050011D01*
X14850000Y-6350000D02*
X14850000Y-3350000D01*
X12150000Y-8500000D02*
X12599989Y-8050011D01*
X9500000Y-13000000D02*
X10474996Y-13000000D01*
%TO.N,/FSYNC*%
X15550000Y-650000D02*
X15572070Y-627930D01*
X15572070Y-627930D02*
X18639075Y-627930D01*
X13664998Y-11000000D02*
X12464998Y-12200000D01*
X14500000Y-11000000D02*
X13664998Y-11000000D01*
X12464998Y-12200000D02*
X12200000Y-12200000D01*
X18639075Y-627930D02*
X18674709Y-663564D01*
%TO.N,Net-(U301-DREG)*%
X17100000Y345000D02*
X18295000Y345000D01*
X18295000Y345000D02*
X18300000Y350000D01*
X15550000Y-150000D02*
X16605000Y-150000D01*
X16605000Y-150000D02*
X17100000Y345000D01*
%TO.N,Net-(MIC301-DATA)*%
X-1350000Y-1890000D02*
X-1750000Y-1490000D01*
X-1750000Y-1490000D02*
X-1750000Y1548002D01*
X-1224002Y2074000D02*
X-837500Y2074000D01*
X-1750000Y1548002D02*
X-1224002Y2074000D01*
%TO.N,Net-(MIC301-CLOCK)*%
X1300000Y789500D02*
X837500Y1252000D01*
X1300000Y-1790000D02*
X1300000Y789500D01*
X1400000Y-1890000D02*
X1300000Y-1790000D01*
%TO.N,Net-(U301-PDMDIN1_GPI1)*%
X9500000Y-2900000D02*
X9500000Y-4050000D01*
X9999980Y-463609D02*
X11013589Y550000D01*
X-2310000Y-2910000D02*
X-2350000Y-2950000D01*
X9999980Y-2400020D02*
X9999980Y-463609D01*
X9500000Y-4050000D02*
X9900000Y-4450000D01*
X9500000Y-2900000D02*
X9999980Y-2400020D01*
X11013589Y550000D02*
X12350000Y550000D01*
X-1350000Y-2910000D02*
X-2310000Y-2910000D01*
%TO.N,Net-(U301-PDMCLK1_GPO1)*%
X10449991Y-650009D02*
X10950000Y-150000D01*
X2490000Y-2910000D02*
X2500000Y-2900000D01*
X10800000Y-3850018D02*
X10800000Y-4900000D01*
X1400000Y-2910000D02*
X2490000Y-2910000D01*
X9900000Y-5800000D02*
X9900000Y-6500000D01*
X10950000Y-150000D02*
X11650000Y-150000D01*
X10449991Y-3500009D02*
X10800000Y-3850018D01*
X10800000Y-4900000D02*
X9900000Y-5800000D01*
X10449991Y-3500009D02*
X10449991Y-650009D01*
%TO.N,Net-(U301-GPIO1)*%
X16660284Y-5410284D02*
X16533051Y-5283051D01*
X16660284Y-6485377D02*
X16660284Y-5410284D01*
X15550000Y-2150000D02*
X16699254Y-2150000D01*
X16699254Y-2150000D02*
X16974627Y-2425373D01*
%TD*%
%TA.AperFunction,Conductor*%
%TO.N,GND*%
G36*
X18504843Y4749023D02*
G01*
X18518708Y4747657D01*
X18636517Y4736055D01*
X18655546Y4732270D01*
X18777492Y4695278D01*
X18795421Y4687851D01*
X18907798Y4627784D01*
X18923934Y4617002D01*
X19022438Y4536163D01*
X19036159Y4522443D01*
X19036164Y4522437D01*
X19117001Y4423937D01*
X19127783Y4407800D01*
X19187850Y4295423D01*
X19195277Y4277495D01*
X19232268Y4155551D01*
X19236054Y4136520D01*
X19241192Y4084353D01*
X19249020Y4004875D01*
X19249497Y3995171D01*
X19249497Y3955832D01*
X19249499Y3955827D01*
X19249500Y3955815D01*
X19249500Y-216706D01*
X19230593Y-274897D01*
X19181093Y-310861D01*
X19119907Y-310861D01*
X19076420Y-280127D01*
X19075868Y-280679D01*
X19072656Y-277467D01*
X19071960Y-276975D01*
X19071287Y-276098D01*
X19071281Y-276092D01*
X19067330Y-270943D01*
X19061348Y-266353D01*
X19002551Y-221236D01*
X18967896Y-170811D01*
X18969498Y-109647D01*
X18971242Y-105741D01*
X18971628Y-105226D01*
X18972417Y-103111D01*
X18972420Y-103104D01*
X19017249Y17086D01*
X19017250Y17088D01*
X19019412Y22886D01*
X19025500Y79515D01*
X19025499Y620484D01*
X19019412Y677114D01*
X18971628Y805226D01*
X18889687Y914687D01*
X18780226Y996628D01*
X18694998Y1028417D01*
X18657914Y1042249D01*
X18657912Y1042250D01*
X18652114Y1044412D01*
X18645963Y1045073D01*
X18645960Y1045074D01*
X18616744Y1048215D01*
X18595485Y1050500D01*
X18300056Y1050500D01*
X18004516Y1050499D01*
X17947886Y1044412D01*
X17819774Y996628D01*
X17710313Y914687D01*
X17641570Y822856D01*
X17591563Y787603D01*
X17530384Y788477D01*
X17506270Y800980D01*
X17502391Y804859D01*
X17403113Y855444D01*
X17399115Y857481D01*
X17399114Y857481D01*
X17392175Y861017D01*
X17384481Y862236D01*
X17384480Y862236D01*
X17304581Y874891D01*
X17304579Y874891D01*
X17300735Y875500D01*
X17100026Y875500D01*
X16899266Y875499D01*
X16895423Y874890D01*
X16895418Y874890D01*
X16815519Y862236D01*
X16815516Y862235D01*
X16807825Y861017D01*
X16777491Y845561D01*
X16704548Y808395D01*
X16704546Y808394D01*
X16697609Y804859D01*
X16610141Y717391D01*
X16606606Y710454D01*
X16606605Y710452D01*
X16587060Y672093D01*
X16553983Y607175D01*
X16539500Y515735D01*
X16539500Y511842D01*
X16539501Y356546D01*
X16520594Y298355D01*
X16510503Y286540D01*
X16478457Y254495D01*
X16423940Y226719D01*
X16408455Y225500D01*
X16047723Y225500D01*
X16005885Y234775D01*
X15992408Y241059D01*
X15992407Y241059D01*
X15985545Y244259D01*
X15938139Y250500D01*
X15916341Y250500D01*
X15349500Y250499D01*
X15291309Y269406D01*
X15255345Y318906D01*
X15250500Y349499D01*
X15250500Y750500D01*
X15269407Y808691D01*
X15318907Y844655D01*
X15349500Y849500D01*
X15669136Y849500D01*
X15680219Y848878D01*
X15717035Y844730D01*
X15773669Y855445D01*
X15777311Y856064D01*
X15826951Y863546D01*
X15826953Y863546D01*
X15834287Y864652D01*
X15840583Y867684D01*
X15843602Y868677D01*
X15850472Y869977D01*
X15901306Y896844D01*
X15901435Y896912D01*
X15904741Y898581D01*
X15949960Y920357D01*
X15949961Y920358D01*
X15956642Y923575D01*
X15961761Y928325D01*
X15964361Y930170D01*
X15970538Y933434D01*
X16011305Y974201D01*
X16013972Y976769D01*
X16050758Y1010901D01*
X16050759Y1010902D01*
X16056194Y1015945D01*
X16059511Y1021691D01*
X16065521Y1028417D01*
X16820501Y1783398D01*
X16877584Y1811547D01*
X16887276Y1812823D01*
X16893709Y1813670D01*
X17027625Y1869139D01*
X17142621Y1957379D01*
X17230861Y2072375D01*
X17286330Y2206291D01*
X17287735Y2216959D01*
X17304403Y2343567D01*
X17305250Y2350000D01*
X17288101Y2480257D01*
X17299251Y2540417D01*
X17343633Y2582535D01*
X17404295Y2590521D01*
X17405315Y2590262D01*
X17407825Y2588983D01*
X17470923Y2578989D01*
X17495419Y2575109D01*
X17495421Y2575109D01*
X17499265Y2574500D01*
X17699974Y2574500D01*
X17900734Y2574501D01*
X17904577Y2575110D01*
X17904582Y2575110D01*
X17984481Y2587764D01*
X17984484Y2587765D01*
X17992175Y2588983D01*
X18068014Y2627625D01*
X18095452Y2641605D01*
X18095454Y2641606D01*
X18102391Y2645141D01*
X18189859Y2732609D01*
X18193396Y2739549D01*
X18242481Y2835885D01*
X18242481Y2835886D01*
X18246017Y2842825D01*
X18247777Y2853933D01*
X18259891Y2930419D01*
X18259891Y2930421D01*
X18260500Y2934265D01*
X18260499Y3275734D01*
X18259890Y3279582D01*
X18247236Y3359481D01*
X18247235Y3359484D01*
X18246017Y3367175D01*
X18196829Y3463712D01*
X18193395Y3470452D01*
X18193394Y3470454D01*
X18189859Y3477391D01*
X18102391Y3564859D01*
X18095454Y3568394D01*
X18095452Y3568395D01*
X17999115Y3617481D01*
X17999114Y3617481D01*
X17992175Y3621017D01*
X17984481Y3622236D01*
X17984480Y3622236D01*
X17904581Y3634891D01*
X17904579Y3634891D01*
X17900735Y3635500D01*
X17700026Y3635500D01*
X17499266Y3635499D01*
X17495423Y3634890D01*
X17495418Y3634890D01*
X17415519Y3622236D01*
X17415516Y3622235D01*
X17407825Y3621017D01*
X17367635Y3600539D01*
X17300417Y3566290D01*
X17255472Y3555500D01*
X17204528Y3555500D01*
X17159583Y3566290D01*
X17059115Y3617481D01*
X17059114Y3617481D01*
X17052175Y3621017D01*
X17044481Y3622236D01*
X17044480Y3622236D01*
X16964581Y3634891D01*
X16964579Y3634891D01*
X16960735Y3635500D01*
X16760026Y3635500D01*
X16559266Y3635499D01*
X16555423Y3634890D01*
X16555418Y3634890D01*
X16475519Y3622236D01*
X16475516Y3622235D01*
X16467825Y3621017D01*
X16427635Y3600539D01*
X16364548Y3568395D01*
X16364546Y3568394D01*
X16357609Y3564859D01*
X16270141Y3477391D01*
X16266606Y3470454D01*
X16266605Y3470452D01*
X16217705Y3374480D01*
X16213983Y3367175D01*
X16212764Y3359481D01*
X16212764Y3359480D01*
X16201259Y3286842D01*
X16199500Y3275735D01*
X16199501Y2934266D01*
X16200110Y2930423D01*
X16200110Y2930418D01*
X16212673Y2851097D01*
X16213983Y2842825D01*
X16266872Y2739025D01*
X16270141Y2732609D01*
X16269125Y2732091D01*
X16285686Y2681117D01*
X16272542Y2632060D01*
X16269139Y2627625D01*
X16266655Y2621628D01*
X16216895Y2501494D01*
X16213670Y2493709D01*
X16212823Y2487276D01*
X16211547Y2477584D01*
X16183398Y2420501D01*
X16054503Y2291606D01*
X15999986Y2263829D01*
X15939554Y2273400D01*
X15896289Y2316665D01*
X15885499Y2361610D01*
X15885499Y2555484D01*
X15879412Y2612114D01*
X15831628Y2740226D01*
X15749687Y2849687D01*
X15640226Y2931628D01*
X15558773Y2962009D01*
X15517914Y2977249D01*
X15517912Y2977250D01*
X15512114Y2979412D01*
X15505963Y2980073D01*
X15505960Y2980074D01*
X15476744Y2983215D01*
X15455485Y2985500D01*
X15160056Y2985500D01*
X14864516Y2985499D01*
X14807886Y2979412D01*
X14768254Y2964630D01*
X14707127Y2962009D01*
X14663654Y2987384D01*
X14514495Y3136543D01*
X14486718Y3191060D01*
X14485499Y3206547D01*
X14485499Y3290734D01*
X14484562Y3296653D01*
X14472236Y3374481D01*
X14472235Y3374484D01*
X14471017Y3382175D01*
X14442938Y3437283D01*
X14418395Y3485452D01*
X14418394Y3485454D01*
X14414859Y3492391D01*
X14327391Y3579859D01*
X14320454Y3583394D01*
X14320452Y3583395D01*
X14224115Y3632481D01*
X14224114Y3632481D01*
X14217175Y3636017D01*
X14209481Y3637236D01*
X14209480Y3637236D01*
X14129581Y3649891D01*
X14129579Y3649891D01*
X14125735Y3650500D01*
X13925026Y3650500D01*
X13724266Y3650499D01*
X13720423Y3649890D01*
X13720418Y3649890D01*
X13640519Y3637236D01*
X13640516Y3637235D01*
X13632825Y3636017D01*
X13603386Y3621017D01*
X13529548Y3583395D01*
X13529546Y3583394D01*
X13522609Y3579859D01*
X13435141Y3492391D01*
X13433536Y3493996D01*
X13393099Y3464612D01*
X13331913Y3464608D01*
X13291464Y3493996D01*
X13289859Y3492391D01*
X13202391Y3579859D01*
X13195454Y3583394D01*
X13195452Y3583395D01*
X13099115Y3632481D01*
X13099114Y3632481D01*
X13092175Y3636017D01*
X13084481Y3637236D01*
X13084480Y3637236D01*
X13004581Y3649891D01*
X13004579Y3649891D01*
X13000735Y3650500D01*
X12800026Y3650500D01*
X12599266Y3650499D01*
X12595423Y3649890D01*
X12595418Y3649890D01*
X12515519Y3637236D01*
X12515516Y3637235D01*
X12507825Y3636017D01*
X12478386Y3621017D01*
X12404548Y3583395D01*
X12404546Y3583394D01*
X12397609Y3579859D01*
X12320004Y3502254D01*
X12265487Y3474477D01*
X12205055Y3484048D01*
X12179996Y3502254D01*
X12102391Y3579859D01*
X12095454Y3583394D01*
X12095452Y3583395D01*
X11999115Y3632481D01*
X11999114Y3632481D01*
X11992175Y3636017D01*
X11984481Y3637236D01*
X11984480Y3637236D01*
X11904581Y3649891D01*
X11904579Y3649891D01*
X11900735Y3650500D01*
X11700026Y3650500D01*
X11499266Y3650499D01*
X11495423Y3649890D01*
X11495418Y3649890D01*
X11415519Y3637236D01*
X11415516Y3637235D01*
X11407825Y3636017D01*
X11378386Y3621017D01*
X11304548Y3583395D01*
X11304546Y3583394D01*
X11297609Y3579859D01*
X11210141Y3492391D01*
X11206606Y3485454D01*
X11206605Y3485452D01*
X11171331Y3416223D01*
X11153983Y3382175D01*
X11152764Y3374481D01*
X11152764Y3374480D01*
X11140437Y3296653D01*
X11139500Y3290735D01*
X11139501Y2949266D01*
X11140110Y2945423D01*
X11140110Y2945418D01*
X11142486Y2930419D01*
X11153983Y2857825D01*
X11210141Y2747609D01*
X11295504Y2662246D01*
X11323281Y2607729D01*
X11324500Y2592242D01*
X11324500Y2299212D01*
X11322393Y2278896D01*
X11319633Y2265732D01*
X11320647Y2257597D01*
X11320647Y2257595D01*
X11323740Y2232783D01*
X11324095Y2227055D01*
X11324162Y2227061D01*
X11324500Y2222982D01*
X11324500Y2218886D01*
X11326602Y2206291D01*
X11328004Y2197887D01*
X11328593Y2193848D01*
X11335134Y2141374D01*
X11338624Y2134235D01*
X11338628Y2134222D01*
X11339935Y2126390D01*
X11343838Y2119178D01*
X11343839Y2119175D01*
X11365078Y2079928D01*
X11366950Y2076292D01*
X11386570Y2036159D01*
X11386573Y2036154D01*
X11390174Y2028789D01*
X11395792Y2023171D01*
X11395800Y2023160D01*
X11399581Y2016174D01*
X11405616Y2010618D01*
X11405617Y2010617D01*
X11438448Y1980394D01*
X11441401Y1977562D01*
X12098824Y1320139D01*
X12126601Y1265622D01*
X12117030Y1205190D01*
X12088224Y1172054D01*
X12085421Y1170747D01*
X12004253Y1089579D01*
X12000593Y1081731D01*
X12000592Y1081729D01*
X11956266Y986670D01*
X11955741Y985545D01*
X11953328Y986670D01*
X11925776Y946214D01*
X11865176Y925500D01*
X11062800Y925500D01*
X11042484Y927607D01*
X11039737Y928183D01*
X11029321Y930367D01*
X11021186Y929353D01*
X11021184Y929353D01*
X10996372Y926260D01*
X10990643Y925904D01*
X10990648Y925838D01*
X10986568Y925500D01*
X10982475Y925500D01*
X10978441Y924827D01*
X10978431Y924826D01*
X10961462Y921994D01*
X10957415Y921404D01*
X10948761Y920325D01*
X10913106Y915881D01*
X10913105Y915881D01*
X10904964Y914866D01*
X10897825Y911375D01*
X10897815Y911372D01*
X10889979Y910065D01*
X10882765Y906161D01*
X10843515Y884920D01*
X10839877Y883047D01*
X10799745Y863428D01*
X10799743Y863426D01*
X10792378Y859826D01*
X10786760Y854208D01*
X10786749Y854200D01*
X10779763Y850419D01*
X10774207Y844384D01*
X10774206Y844383D01*
X10743983Y811552D01*
X10741151Y808599D01*
X9769253Y-163298D01*
X9753397Y-176173D01*
X9742144Y-183525D01*
X9729010Y-200400D01*
X9721758Y-209717D01*
X9717953Y-214026D01*
X9718003Y-214069D01*
X9715352Y-217199D01*
X9712460Y-220091D01*
X9710084Y-223419D01*
X9710083Y-223420D01*
X9700070Y-237444D01*
X9697626Y-240721D01*
X9677676Y-266353D01*
X9665171Y-282420D01*
X9662591Y-289935D01*
X9662586Y-289944D01*
X9657970Y-296410D01*
X9642885Y-347081D01*
X9641657Y-350915D01*
X9624480Y-400949D01*
X9624480Y-408903D01*
X9622212Y-416521D01*
X9622551Y-424720D01*
X9622551Y-424721D01*
X9624395Y-469311D01*
X9624480Y-473401D01*
X9624480Y-2203474D01*
X9605573Y-2261665D01*
X9595484Y-2273478D01*
X9551645Y-2317317D01*
X9494564Y-2345466D01*
X9450120Y-2351317D01*
X9362722Y-2362823D01*
X9362720Y-2362824D01*
X9356291Y-2363670D01*
X9222375Y-2419139D01*
X9107379Y-2507379D01*
X9019139Y-2622375D01*
X8963670Y-2756291D01*
X8962824Y-2762720D01*
X8962823Y-2762722D01*
X8955546Y-2817994D01*
X8944750Y-2900000D01*
X8963670Y-3043709D01*
X9019139Y-3177625D01*
X9023090Y-3182774D01*
X9104042Y-3288272D01*
X9124500Y-3348540D01*
X9124500Y-4000788D01*
X9122393Y-4021104D01*
X9121316Y-4026241D01*
X9119633Y-4034268D01*
X9120647Y-4042403D01*
X9120647Y-4042405D01*
X9123740Y-4067217D01*
X9124095Y-4072945D01*
X9124162Y-4072939D01*
X9124500Y-4077018D01*
X9124500Y-4081114D01*
X9127388Y-4098419D01*
X9128004Y-4102113D01*
X9128593Y-4106152D01*
X9135134Y-4158626D01*
X9138624Y-4165765D01*
X9138628Y-4165778D01*
X9139935Y-4173610D01*
X9143838Y-4180822D01*
X9156734Y-4204652D01*
X9167801Y-4264829D01*
X9166184Y-4273800D01*
X9165524Y-4276690D01*
X9163687Y-4281941D01*
X9163064Y-4287468D01*
X9163064Y-4287469D01*
X9159904Y-4315519D01*
X9144751Y-4450000D01*
X9163687Y-4618059D01*
X9219544Y-4777690D01*
X9222501Y-4782396D01*
X9222502Y-4782398D01*
X9293619Y-4895579D01*
X9309523Y-4920890D01*
X9429110Y-5040477D01*
X9433818Y-5043435D01*
X9433819Y-5043436D01*
X9524636Y-5100500D01*
X9572310Y-5130456D01*
X9731941Y-5186313D01*
X9737468Y-5186936D01*
X9737469Y-5186936D01*
X9752982Y-5188684D01*
X9808689Y-5213989D01*
X9838883Y-5267205D01*
X9832031Y-5328005D01*
X9811899Y-5357063D01*
X9669275Y-5499687D01*
X9653420Y-5512562D01*
X9642164Y-5519916D01*
X9637127Y-5526388D01*
X9621778Y-5546108D01*
X9617973Y-5550417D01*
X9618023Y-5550460D01*
X9615372Y-5553590D01*
X9612480Y-5556482D01*
X9610104Y-5559810D01*
X9610103Y-5559811D01*
X9600090Y-5573835D01*
X9597646Y-5577112D01*
X9570228Y-5612339D01*
X9565191Y-5618811D01*
X9562611Y-5626326D01*
X9562606Y-5626335D01*
X9557990Y-5632801D01*
X9542905Y-5683472D01*
X9541677Y-5687306D01*
X9524500Y-5737340D01*
X9524500Y-5745294D01*
X9522232Y-5752912D01*
X9523375Y-5780537D01*
X9523814Y-5791156D01*
X9507328Y-5850079D01*
X9477572Y-5879072D01*
X9429110Y-5909523D01*
X9309523Y-6029110D01*
X9306565Y-6033818D01*
X9306564Y-6033819D01*
X9225435Y-6162935D01*
X9219544Y-6172310D01*
X9163687Y-6331941D01*
X9144751Y-6500000D01*
X9163687Y-6668059D01*
X9219544Y-6827690D01*
X9309523Y-6970890D01*
X9429110Y-7090477D01*
X9433818Y-7093435D01*
X9433819Y-7093436D01*
X9555323Y-7169782D01*
X9572310Y-7180456D01*
X9731941Y-7236313D01*
X9737470Y-7236936D01*
X9764087Y-7239935D01*
X9900000Y-7255249D01*
X9905529Y-7254626D01*
X10062530Y-7236936D01*
X10068059Y-7236313D01*
X10227690Y-7180456D01*
X10232401Y-7177496D01*
X10272828Y-7152094D01*
X10332159Y-7137143D01*
X10388946Y-7159922D01*
X10421499Y-7211729D01*
X10424500Y-7235919D01*
X10424500Y-7503455D01*
X10405593Y-7561646D01*
X10395504Y-7573459D01*
X9748458Y-8220504D01*
X9693941Y-8248281D01*
X9678454Y-8249500D01*
X7725326Y-8249500D01*
X7652260Y-8264034D01*
X7569399Y-8319399D01*
X7514034Y-8402260D01*
X7499500Y-8475326D01*
X7499500Y-9524674D01*
X7514034Y-9597740D01*
X7569399Y-9680601D01*
X7652260Y-9735966D01*
X7725326Y-9750500D01*
X11129456Y-9750500D01*
X11187647Y-9769407D01*
X11223611Y-9818907D01*
X11223611Y-9880093D01*
X11199459Y-9919504D01*
X10898458Y-10220504D01*
X10843942Y-10248281D01*
X10828455Y-10249500D01*
X7725326Y-10249500D01*
X7652260Y-10264034D01*
X7569399Y-10319399D01*
X7514034Y-10402260D01*
X7499500Y-10475326D01*
X7499500Y-11524674D01*
X7514034Y-11597740D01*
X7569399Y-11680601D01*
X7652260Y-11735966D01*
X7725326Y-11750500D01*
X10954450Y-11750500D01*
X11012641Y-11769407D01*
X11048605Y-11818907D01*
X11048605Y-11880093D01*
X11024454Y-11919504D01*
X10723454Y-12220504D01*
X10668937Y-12248281D01*
X10653450Y-12249500D01*
X7725326Y-12249500D01*
X7652260Y-12264034D01*
X7569399Y-12319399D01*
X7514034Y-12402260D01*
X7499500Y-12475326D01*
X7499500Y-13524674D01*
X7514034Y-13597740D01*
X7569399Y-13680601D01*
X7652260Y-13735966D01*
X7725326Y-13750500D01*
X11274674Y-13750500D01*
X11347740Y-13735966D01*
X11430601Y-13680601D01*
X11485966Y-13597740D01*
X11500500Y-13524674D01*
X11500500Y-13254175D01*
X11519407Y-13195984D01*
X11568907Y-13160020D01*
X11630093Y-13160020D01*
X11679593Y-13195984D01*
X11697653Y-13241253D01*
X11705619Y-13301760D01*
X11761088Y-13435676D01*
X11765039Y-13440826D01*
X11765042Y-13440830D01*
X11803864Y-13491423D01*
X11824289Y-13549099D01*
X11803865Y-13611958D01*
X11719139Y-13722375D01*
X11663670Y-13856291D01*
X11644750Y-14000000D01*
X11663670Y-14143709D01*
X11719139Y-14277625D01*
X11807379Y-14392621D01*
X11922375Y-14480861D01*
X12056291Y-14536330D01*
X12062720Y-14537176D01*
X12062722Y-14537177D01*
X12128981Y-14545900D01*
X12194565Y-14554534D01*
X12251646Y-14582683D01*
X12470504Y-14801541D01*
X12498281Y-14856058D01*
X12499500Y-14871545D01*
X12499500Y-15524674D01*
X12514034Y-15597740D01*
X12569399Y-15680601D01*
X12652260Y-15735966D01*
X12725326Y-15750500D01*
X16274674Y-15750500D01*
X16347740Y-15735966D01*
X16430601Y-15680601D01*
X16485966Y-15597740D01*
X16500500Y-15524674D01*
X16500500Y-14475326D01*
X16485966Y-14402260D01*
X16430601Y-14319399D01*
X16347740Y-14264034D01*
X16274674Y-14249500D01*
X13021544Y-14249500D01*
X12963353Y-14230593D01*
X12951548Y-14220511D01*
X12782681Y-14051643D01*
X12754534Y-13994565D01*
X12737177Y-13862722D01*
X12737137Y-13862421D01*
X12748287Y-13802261D01*
X12792669Y-13760144D01*
X12835290Y-13750500D01*
X16274674Y-13750500D01*
X16347740Y-13735966D01*
X16430601Y-13680601D01*
X16485966Y-13597740D01*
X16500500Y-13524674D01*
X16500500Y-12475326D01*
X16485966Y-12402260D01*
X16430601Y-12319399D01*
X16347740Y-12264034D01*
X16274674Y-12249500D01*
X13185543Y-12249500D01*
X13127352Y-12230593D01*
X13091388Y-12181093D01*
X13091388Y-12119907D01*
X13115539Y-12080496D01*
X13416539Y-11779496D01*
X13471056Y-11751719D01*
X13486543Y-11750500D01*
X16274674Y-11750500D01*
X16347740Y-11735966D01*
X16430601Y-11680601D01*
X16485966Y-11597740D01*
X16500500Y-11524674D01*
X16500500Y-10475326D01*
X16485966Y-10402260D01*
X16430601Y-10319399D01*
X16347740Y-10264034D01*
X16274674Y-10249500D01*
X12725326Y-10249500D01*
X12652260Y-10264034D01*
X12651998Y-10262717D01*
X12601385Y-10266698D01*
X12549217Y-10234726D01*
X12525805Y-10178197D01*
X12525500Y-10170434D01*
X12525500Y-9829566D01*
X12544407Y-9771375D01*
X12593907Y-9735411D01*
X12651429Y-9735411D01*
X12652260Y-9735966D01*
X12725326Y-9750500D01*
X16274674Y-9750500D01*
X16347740Y-9735966D01*
X16430601Y-9680601D01*
X16485966Y-9597740D01*
X16500500Y-9524674D01*
X16500500Y-8475326D01*
X16485966Y-8402260D01*
X16430601Y-8319399D01*
X16347740Y-8264034D01*
X16274674Y-8249500D01*
X15104360Y-8249500D01*
X15046169Y-8230593D01*
X15018712Y-8195146D01*
X15016932Y-8196147D01*
X15016370Y-8195146D01*
X14996170Y-8159220D01*
X14991663Y-8150146D01*
X14977479Y-8117491D01*
X14977475Y-8117484D01*
X14974780Y-8111280D01*
X14962104Y-8095699D01*
X14952606Y-8081743D01*
X14946086Y-8070147D01*
X14946085Y-8070146D01*
X14942765Y-8064241D01*
X14912810Y-8034286D01*
X14906018Y-8026760D01*
X14883549Y-7999141D01*
X14883546Y-7999139D01*
X14879278Y-7993892D01*
X14862870Y-7982310D01*
X14849957Y-7971433D01*
X14619364Y-7740839D01*
X14610826Y-7731104D01*
X14596570Y-7712525D01*
X14596569Y-7712524D01*
X14592621Y-7707379D01*
X14564649Y-7685916D01*
X14563500Y-7684975D01*
X14562634Y-7684109D01*
X14533940Y-7662349D01*
X14533559Y-7662058D01*
X14480390Y-7621261D01*
X14477625Y-7619139D01*
X14476154Y-7618530D01*
X14472342Y-7615639D01*
X14407052Y-7589893D01*
X14405494Y-7589262D01*
X14355903Y-7568721D01*
X14309377Y-7528985D01*
X14295093Y-7469490D01*
X14318508Y-7412962D01*
X14323784Y-7407253D01*
X15080724Y-6650313D01*
X15096580Y-6637438D01*
X15096947Y-6637198D01*
X15107836Y-6630084D01*
X15112872Y-6623614D01*
X15112874Y-6623612D01*
X15128226Y-6603887D01*
X15132025Y-6599584D01*
X15131975Y-6599542D01*
X15134630Y-6596407D01*
X15137520Y-6593517D01*
X15149900Y-6576177D01*
X15152333Y-6572914D01*
X15184809Y-6531189D01*
X15187388Y-6523677D01*
X15187396Y-6523662D01*
X15192010Y-6517199D01*
X15201484Y-6485377D01*
X15905035Y-6485377D01*
X15923971Y-6653436D01*
X15979828Y-6813067D01*
X15982785Y-6817773D01*
X15982786Y-6817775D01*
X16060325Y-6941176D01*
X16069807Y-6956267D01*
X16189394Y-7075854D01*
X16194102Y-7078812D01*
X16194103Y-7078813D01*
X16323187Y-7159922D01*
X16332594Y-7165833D01*
X16492225Y-7221690D01*
X16497754Y-7222313D01*
X16514164Y-7224162D01*
X16660284Y-7240626D01*
X16665813Y-7240003D01*
X16694072Y-7236819D01*
X16806404Y-7224162D01*
X16822814Y-7222313D01*
X16828343Y-7221690D01*
X16987974Y-7165833D01*
X16997382Y-7159922D01*
X17126465Y-7078813D01*
X17126466Y-7078812D01*
X17131174Y-7075854D01*
X17250761Y-6956267D01*
X17260243Y-6941176D01*
X17337782Y-6817775D01*
X17337783Y-6817773D01*
X17340740Y-6813067D01*
X17396597Y-6653436D01*
X17415533Y-6485377D01*
X17396597Y-6317318D01*
X17340740Y-6157687D01*
X17333580Y-6146291D01*
X17253720Y-6019196D01*
X17253719Y-6019195D01*
X17250761Y-6014487D01*
X17131174Y-5894900D01*
X17082112Y-5864072D01*
X17042901Y-5817104D01*
X17035784Y-5780247D01*
X17035784Y-5527563D01*
X17043320Y-5489678D01*
X17066898Y-5432754D01*
X17069381Y-5426760D01*
X17070637Y-5417226D01*
X17087454Y-5289484D01*
X17088301Y-5283051D01*
X17084644Y-5255272D01*
X17070228Y-5145773D01*
X17070227Y-5145771D01*
X17069381Y-5139342D01*
X17013912Y-5005426D01*
X16925672Y-4890430D01*
X16810676Y-4802190D01*
X16676760Y-4746721D01*
X16670331Y-4745875D01*
X16670329Y-4745874D01*
X16539484Y-4728648D01*
X16533051Y-4727801D01*
X16526618Y-4728648D01*
X16395773Y-4745874D01*
X16395771Y-4745875D01*
X16389342Y-4746721D01*
X16255426Y-4802190D01*
X16140430Y-4890430D01*
X16052190Y-5005426D01*
X15996721Y-5139342D01*
X15995875Y-5145771D01*
X15995874Y-5145773D01*
X15981458Y-5255272D01*
X15977801Y-5283051D01*
X15978648Y-5289484D01*
X15995466Y-5417226D01*
X15996721Y-5426760D01*
X16052190Y-5560676D01*
X16140430Y-5675672D01*
X16145579Y-5679623D01*
X16145583Y-5679627D01*
X16206634Y-5726474D01*
X16241289Y-5776898D01*
X16239687Y-5838063D01*
X16199037Y-5888841D01*
X16189394Y-5894900D01*
X16069807Y-6014487D01*
X16066849Y-6019195D01*
X16066848Y-6019196D01*
X15986989Y-6146291D01*
X15979828Y-6157687D01*
X15923971Y-6317318D01*
X15905035Y-6485377D01*
X15201484Y-6485377D01*
X15207099Y-6466515D01*
X15208332Y-6462667D01*
X15222837Y-6420418D01*
X15222837Y-6420416D01*
X15225500Y-6412660D01*
X15225500Y-6404716D01*
X15225502Y-6404702D01*
X15227769Y-6397088D01*
X15225585Y-6344286D01*
X15225500Y-6340195D01*
X15225500Y-4335770D01*
X15244407Y-4277579D01*
X15293907Y-4241615D01*
X15355093Y-4241615D01*
X15390149Y-4261667D01*
X15473277Y-4335312D01*
X15473280Y-4335314D01*
X15477760Y-4339283D01*
X15483059Y-4342064D01*
X15483063Y-4342067D01*
X15612332Y-4409913D01*
X15612334Y-4409914D01*
X15617635Y-4412696D01*
X15623447Y-4414129D01*
X15623451Y-4414130D01*
X15765199Y-4449067D01*
X15765203Y-4449067D01*
X15771015Y-4450500D01*
X15928985Y-4450500D01*
X15934797Y-4449067D01*
X15934801Y-4449067D01*
X16076549Y-4414130D01*
X16076553Y-4414129D01*
X16082365Y-4412696D01*
X16087666Y-4409914D01*
X16087668Y-4409913D01*
X16216937Y-4342067D01*
X16216941Y-4342064D01*
X16222240Y-4339283D01*
X16226720Y-4335314D01*
X16226723Y-4335312D01*
X16309851Y-4261667D01*
X16340483Y-4234530D01*
X16414849Y-4126792D01*
X16426820Y-4109449D01*
X16426821Y-4109448D01*
X16430220Y-4104523D01*
X16432342Y-4098928D01*
X16432344Y-4098924D01*
X16456816Y-4034395D01*
X16495129Y-3986690D01*
X16549383Y-3970500D01*
X18043921Y-3970500D01*
X18047301Y-3970558D01*
X18105056Y-3972531D01*
X18105058Y-3972531D01*
X18111826Y-3972762D01*
X18121108Y-3970500D01*
X18152978Y-3962734D01*
X18162936Y-3960841D01*
X18189576Y-3957179D01*
X18204920Y-3955070D01*
X18211131Y-3952372D01*
X18211135Y-3952371D01*
X18223344Y-3947068D01*
X18239344Y-3941687D01*
X18252279Y-3938535D01*
X18252280Y-3938534D01*
X18258852Y-3936933D01*
X18264750Y-3933617D01*
X18264752Y-3933616D01*
X18295786Y-3916167D01*
X18304863Y-3911658D01*
X18337513Y-3897476D01*
X18337512Y-3897476D01*
X18343720Y-3894780D01*
X18359297Y-3882107D01*
X18373249Y-3872612D01*
X18379038Y-3869357D01*
X18384859Y-3866084D01*
X18384861Y-3866082D01*
X18390759Y-3862766D01*
X18420724Y-3832801D01*
X18428250Y-3826010D01*
X18461108Y-3799278D01*
X18462790Y-3801346D01*
X18506239Y-3777304D01*
X18525056Y-3775499D01*
X18695484Y-3775499D01*
X18752114Y-3769412D01*
X18880226Y-3721628D01*
X18989687Y-3639687D01*
X19071246Y-3530736D01*
X19121255Y-3495482D01*
X19182434Y-3496356D01*
X19231415Y-3533023D01*
X19249500Y-3590064D01*
X19249500Y-5305232D01*
X19230593Y-5363423D01*
X19220504Y-5375236D01*
X16847213Y-7748527D01*
X16832210Y-7760839D01*
X16831826Y-7761096D01*
X16819399Y-7769399D01*
X16794614Y-7806493D01*
X16764034Y-7852259D01*
X16744592Y-7950000D01*
X16746494Y-7959562D01*
X16747598Y-7965112D01*
X16749500Y-7984426D01*
X16749500Y-15995140D01*
X16749023Y-16004843D01*
X16736055Y-16136515D01*
X16732270Y-16155546D01*
X16732268Y-16155553D01*
X16695278Y-16277492D01*
X16687851Y-16295421D01*
X16627784Y-16407798D01*
X16617002Y-16423934D01*
X16536163Y-16522438D01*
X16522443Y-16536159D01*
X16462559Y-16585305D01*
X16423937Y-16617001D01*
X16407800Y-16627783D01*
X16295423Y-16687850D01*
X16277495Y-16695277D01*
X16155548Y-16732269D01*
X16136520Y-16736054D01*
X16022913Y-16747243D01*
X16004875Y-16749020D01*
X15995171Y-16749497D01*
X15955832Y-16749497D01*
X15955827Y-16749499D01*
X15955815Y-16749500D01*
X7504860Y-16749500D01*
X7495157Y-16749023D01*
X7481292Y-16747657D01*
X7363483Y-16736055D01*
X7344454Y-16732270D01*
X7222507Y-16695278D01*
X7204579Y-16687851D01*
X7092202Y-16627784D01*
X7076066Y-16617002D01*
X6977562Y-16536163D01*
X6963841Y-16522443D01*
X6882999Y-16423937D01*
X6872217Y-16407800D01*
X6812150Y-16295423D01*
X6804723Y-16277494D01*
X6804722Y-16277492D01*
X6767731Y-16155548D01*
X6763946Y-16136518D01*
X6750980Y-16004875D01*
X6750503Y-15995171D01*
X6750503Y-15955832D01*
X6750501Y-15955827D01*
X6750500Y-15955815D01*
X6750500Y-5901580D01*
X6748974Y-5891942D01*
X6725420Y-5743235D01*
X6719708Y-5707171D01*
X6712635Y-5685403D01*
X6660083Y-5523664D01*
X6660081Y-5523660D01*
X6658883Y-5519972D01*
X6657120Y-5516513D01*
X6657118Y-5516507D01*
X6571292Y-5348066D01*
X6571290Y-5348062D01*
X6569522Y-5344593D01*
X6520136Y-5276618D01*
X6456112Y-5188497D01*
X6453827Y-5185352D01*
X6314645Y-5046171D01*
X6162253Y-4935452D01*
X6158551Y-4932762D01*
X6158547Y-4932760D01*
X6155404Y-4930476D01*
X6136590Y-4920890D01*
X5983492Y-4842882D01*
X5983487Y-4842880D01*
X5980025Y-4841116D01*
X5928825Y-4824480D01*
X5796526Y-4781493D01*
X5796524Y-4781492D01*
X5792826Y-4780291D01*
X5695621Y-4764896D01*
X5602262Y-4750109D01*
X5602260Y-4750109D01*
X5598416Y-4749500D01*
X-9995140Y-4749500D01*
X-10004843Y-4749023D01*
X-10018708Y-4747657D01*
X-10136517Y-4736055D01*
X-10155546Y-4732270D01*
X-10277491Y-4695278D01*
X-10295420Y-4687851D01*
X-10407798Y-4627784D01*
X-10423934Y-4617003D01*
X-10445688Y-4599150D01*
X-10522441Y-4536161D01*
X-10536158Y-4522444D01*
X-10617000Y-4423937D01*
X-10627781Y-4407801D01*
X-10687848Y-4295423D01*
X-10695275Y-4277494D01*
X-10706159Y-4241615D01*
X-10732267Y-4155549D01*
X-10736052Y-4136518D01*
X-10736954Y-4127354D01*
X-10749020Y-4004846D01*
X-10749258Y-4000000D01*
X-10505647Y-4000000D01*
X-10485165Y-4142457D01*
X-10425377Y-4273373D01*
X-10331128Y-4382143D01*
X-10304484Y-4399266D01*
X-10216010Y-4456125D01*
X-10216008Y-4456126D01*
X-10210053Y-4459953D01*
X-10203263Y-4461947D01*
X-10203260Y-4461948D01*
X-10080392Y-4498025D01*
X-10071961Y-4500500D01*
X-9928039Y-4500500D01*
X-9919608Y-4498025D01*
X-9796740Y-4461948D01*
X-9796737Y-4461947D01*
X-9789947Y-4459953D01*
X-9783992Y-4456126D01*
X-9783990Y-4456125D01*
X-9695516Y-4399266D01*
X-9668872Y-4382143D01*
X-9574623Y-4273373D01*
X-9514835Y-4142457D01*
X-9494353Y-4000000D01*
X-9514835Y-3857543D01*
X-9574623Y-3726627D01*
X-9615081Y-3679936D01*
X-9664235Y-3623208D01*
X-9664236Y-3623207D01*
X-9668872Y-3617857D01*
X-9771886Y-3551654D01*
X-9783990Y-3543875D01*
X-9783992Y-3543874D01*
X-9789947Y-3540047D01*
X-9796737Y-3538053D01*
X-9796740Y-3538052D01*
X-9921248Y-3501494D01*
X-9928039Y-3499500D01*
X-10071961Y-3499500D01*
X-10078752Y-3501494D01*
X-10203260Y-3538052D01*
X-10203263Y-3538053D01*
X-10210053Y-3540047D01*
X-10216008Y-3543874D01*
X-10216010Y-3543875D01*
X-10228114Y-3551654D01*
X-10331128Y-3617857D01*
X-10335764Y-3623207D01*
X-10335765Y-3623208D01*
X-10384919Y-3679936D01*
X-10425377Y-3726627D01*
X-10485165Y-3857543D01*
X-10505647Y-4000000D01*
X-10749258Y-4000000D01*
X-10749497Y-3995143D01*
X-10749497Y-3955833D01*
X-10749499Y-3955828D01*
X-10749500Y-3955816D01*
X-10749500Y-2950000D01*
X-2905250Y-2950000D01*
X-2904403Y-2956433D01*
X-2889529Y-3069407D01*
X-2886330Y-3093709D01*
X-2830861Y-3227625D01*
X-2742621Y-3342621D01*
X-2627625Y-3430861D01*
X-2493709Y-3486330D01*
X-2487280Y-3487176D01*
X-2487278Y-3487177D01*
X-2356433Y-3504403D01*
X-2350000Y-3505250D01*
X-2343567Y-3504403D01*
X-2212722Y-3487177D01*
X-2212720Y-3487176D01*
X-2206291Y-3486330D01*
X-2072375Y-3430861D01*
X-1957379Y-3342621D01*
X-1950200Y-3333265D01*
X-1899776Y-3298608D01*
X-1838612Y-3300208D01*
X-1801652Y-3323526D01*
X-1762102Y-3363076D01*
X-1646518Y-3419582D01*
X-1638909Y-3420691D01*
X-1638908Y-3420691D01*
X-1618763Y-3423626D01*
X-1571582Y-3430500D01*
X-1128418Y-3430500D01*
X-1081237Y-3423626D01*
X-1061092Y-3420691D01*
X-1061091Y-3420691D01*
X-1053482Y-3419582D01*
X-937898Y-3363076D01*
X-846924Y-3272102D01*
X-797804Y-3171627D01*
X-793795Y-3163426D01*
X-793795Y-3163425D01*
X-790418Y-3156518D01*
X-779500Y-3081582D01*
X-779500Y-2738418D01*
X-788751Y-2674923D01*
X-789309Y-2671092D01*
X-789309Y-2671091D01*
X-790418Y-2663482D01*
X-846924Y-2547898D01*
X-924818Y-2470004D01*
X-952595Y-2415487D01*
X-943024Y-2355055D01*
X-924818Y-2329996D01*
X-846924Y-2252102D01*
X-790418Y-2136518D01*
X-779500Y-2061582D01*
X-779500Y-1718418D01*
X-790418Y-1643482D01*
X-846924Y-1527898D01*
X-937898Y-1436924D01*
X-1053482Y-1380418D01*
X-1061091Y-1379309D01*
X-1061092Y-1379309D01*
X-1081237Y-1376374D01*
X-1128418Y-1369500D01*
X-1275500Y-1369500D01*
X-1333691Y-1350593D01*
X-1369655Y-1301093D01*
X-1374500Y-1270500D01*
X-1374500Y649670D01*
X-1355593Y707861D01*
X-1306093Y743825D01*
X-1256186Y746768D01*
X-1245490Y744641D01*
X-1224674Y740500D01*
X-974460Y740500D01*
X-916269Y721593D01*
X-880305Y672093D01*
X-880305Y610907D01*
X-890634Y588829D01*
X-951018Y492728D01*
X-953702Y487872D01*
X-976059Y441448D01*
X-978181Y436324D01*
X-1036817Y268753D01*
X-1038353Y263422D01*
X-1049820Y213180D01*
X-1050745Y207737D01*
X-1070781Y29918D01*
X-1071014Y27143D01*
X-1072188Y6249D01*
X-1070880Y-12380D01*
X-1071762Y-12442D01*
X-1071403Y-18843D01*
X-1070596Y-18832D01*
X-1070392Y-33366D01*
X-1050745Y-207737D01*
X-1049820Y-213180D01*
X-1038353Y-263422D01*
X-1036817Y-268753D01*
X-978181Y-436324D01*
X-976059Y-441448D01*
X-953702Y-487872D01*
X-951018Y-492728D01*
X-856561Y-643056D01*
X-853352Y-647578D01*
X-821239Y-687846D01*
X-817528Y-692000D01*
X-692000Y-817528D01*
X-687846Y-821239D01*
X-647578Y-853352D01*
X-643056Y-856561D01*
X-492728Y-951018D01*
X-487872Y-953702D01*
X-441448Y-976059D01*
X-436324Y-978181D01*
X-268753Y-1036817D01*
X-263422Y-1038353D01*
X-213192Y-1049817D01*
X-207714Y-1050748D01*
X-45085Y-1069072D01*
X-43056Y-1068656D01*
X-32209Y-1069876D01*
X-31133Y-1069802D01*
X-26761Y-1070088D01*
X1725Y-1068216D01*
X13995Y-1071030D01*
X14090Y-1068914D01*
X37246Y-1069955D01*
X207722Y-1050747D01*
X213191Y-1049817D01*
X263422Y-1038353D01*
X268753Y-1036817D01*
X436324Y-978181D01*
X441448Y-976059D01*
X487872Y-953702D01*
X492728Y-951018D01*
X643056Y-856561D01*
X647578Y-853352D01*
X687846Y-821239D01*
X692000Y-817528D01*
X755496Y-754032D01*
X810013Y-726255D01*
X870445Y-735826D01*
X913710Y-779091D01*
X924500Y-824036D01*
X924500Y-1459883D01*
X906071Y-1517410D01*
X902723Y-1522099D01*
X896924Y-1527898D01*
X893322Y-1535266D01*
X855862Y-1611892D01*
X840418Y-1643482D01*
X829500Y-1718418D01*
X829500Y-2061582D01*
X840418Y-2136518D01*
X896924Y-2252102D01*
X974818Y-2329996D01*
X1002595Y-2384513D01*
X993024Y-2444945D01*
X974818Y-2470004D01*
X896924Y-2547898D01*
X840418Y-2663482D01*
X839309Y-2671091D01*
X839309Y-2671092D01*
X838751Y-2674923D01*
X829500Y-2738418D01*
X829500Y-3081582D01*
X840418Y-3156518D01*
X843795Y-3163425D01*
X843795Y-3163426D01*
X847804Y-3171627D01*
X896924Y-3272102D01*
X987898Y-3363076D01*
X1103482Y-3419582D01*
X1111091Y-3420691D01*
X1111092Y-3420691D01*
X1131237Y-3423626D01*
X1178418Y-3430500D01*
X1621582Y-3430500D01*
X1668763Y-3423626D01*
X1688908Y-3420691D01*
X1688909Y-3420691D01*
X1696518Y-3419582D01*
X1812102Y-3363076D01*
X1860682Y-3314496D01*
X1915199Y-3286719D01*
X1930686Y-3285500D01*
X2064492Y-3285500D01*
X2124760Y-3305958D01*
X2222375Y-3380861D01*
X2356291Y-3436330D01*
X2362720Y-3437176D01*
X2362722Y-3437177D01*
X2493567Y-3454403D01*
X2500000Y-3455250D01*
X2506433Y-3454403D01*
X2637278Y-3437177D01*
X2637280Y-3437176D01*
X2643709Y-3436330D01*
X2777625Y-3380861D01*
X2892621Y-3292621D01*
X2980861Y-3177625D01*
X3036330Y-3043709D01*
X3055250Y-2900000D01*
X3044454Y-2817994D01*
X3037177Y-2762722D01*
X3037176Y-2762720D01*
X3036330Y-2756291D01*
X2980861Y-2622375D01*
X2892621Y-2507379D01*
X2777625Y-2419139D01*
X2643709Y-2363670D01*
X2637280Y-2362824D01*
X2637278Y-2362823D01*
X2506433Y-2345597D01*
X2500000Y-2344750D01*
X2493567Y-2345597D01*
X2362722Y-2362823D01*
X2362720Y-2362824D01*
X2356291Y-2363670D01*
X2222375Y-2419139D01*
X2107379Y-2507379D01*
X2107208Y-2507157D01*
X2055935Y-2533281D01*
X2040448Y-2534500D01*
X1930686Y-2534500D01*
X1872495Y-2515593D01*
X1860682Y-2505504D01*
X1825182Y-2470004D01*
X1797405Y-2415487D01*
X1806976Y-2355055D01*
X1825182Y-2329996D01*
X1903076Y-2252102D01*
X1959582Y-2136518D01*
X1970500Y-2061582D01*
X1970500Y-1718418D01*
X1959582Y-1643482D01*
X1903076Y-1527898D01*
X1812102Y-1436924D01*
X1804737Y-1433323D01*
X1804735Y-1433322D01*
X1731020Y-1397285D01*
X1687046Y-1354741D01*
X1675500Y-1308344D01*
X1675500Y740289D01*
X1677607Y760605D01*
X1678684Y765742D01*
X1680367Y773768D01*
X1678643Y787603D01*
X1676260Y806717D01*
X1675905Y812445D01*
X1675838Y812439D01*
X1675500Y816518D01*
X1675500Y820614D01*
X1671993Y841630D01*
X1671406Y845661D01*
X1670928Y849500D01*
X1669039Y864652D01*
X1665881Y889987D01*
X1665880Y889989D01*
X1664866Y898126D01*
X1661376Y905265D01*
X1661372Y905278D01*
X1660065Y913110D01*
X1656162Y920322D01*
X1656161Y920325D01*
X1634922Y959572D01*
X1633050Y963208D01*
X1613430Y1003341D01*
X1613427Y1003346D01*
X1609826Y1010711D01*
X1604208Y1016329D01*
X1604200Y1016340D01*
X1600419Y1023326D01*
X1579866Y1042247D01*
X1561553Y1059105D01*
X1558600Y1061937D01*
X1479496Y1141041D01*
X1451719Y1195558D01*
X1450500Y1211045D01*
X1450500Y1524500D01*
X1469407Y1582691D01*
X1518907Y1618655D01*
X1549500Y1623500D01*
X1893136Y1623500D01*
X1904219Y1622878D01*
X1941035Y1618730D01*
X1997669Y1629445D01*
X2001311Y1630064D01*
X2050951Y1637546D01*
X2050953Y1637546D01*
X2058287Y1638652D01*
X2064583Y1641684D01*
X2067602Y1642677D01*
X2074472Y1643977D01*
X2113437Y1664571D01*
X2125435Y1670912D01*
X2128741Y1672581D01*
X2173960Y1694357D01*
X2173961Y1694358D01*
X2180642Y1697575D01*
X2185761Y1702325D01*
X2188361Y1704170D01*
X2194538Y1707434D01*
X2235305Y1748201D01*
X2237972Y1750769D01*
X2274758Y1784901D01*
X2274759Y1784902D01*
X2280194Y1789945D01*
X2283511Y1795691D01*
X2289521Y1802417D01*
X2585647Y2098543D01*
X2907607Y2420504D01*
X2962124Y2448281D01*
X2977611Y2449500D01*
X3028985Y2449500D01*
X3034797Y2450933D01*
X3034801Y2450933D01*
X3176549Y2485870D01*
X3176553Y2485871D01*
X3182365Y2487304D01*
X3187666Y2490086D01*
X3187668Y2490087D01*
X3316937Y2557933D01*
X3316941Y2557936D01*
X3322240Y2560717D01*
X3326720Y2564686D01*
X3326723Y2564688D01*
X3390995Y2621628D01*
X3440483Y2665470D01*
X3530220Y2795477D01*
X3551314Y2851097D01*
X3584114Y2937583D01*
X3584115Y2937586D01*
X3586237Y2943182D01*
X3593136Y3000000D01*
X9494353Y3000000D01*
X9514835Y2857543D01*
X9574623Y2726627D01*
X9579264Y2721271D01*
X9656944Y2631623D01*
X9668872Y2617857D01*
X9713801Y2588983D01*
X9783990Y2543875D01*
X9783992Y2543874D01*
X9789947Y2540047D01*
X9796737Y2538053D01*
X9796740Y2538052D01*
X9873203Y2515601D01*
X9928039Y2499500D01*
X10071961Y2499500D01*
X10126797Y2515601D01*
X10203260Y2538052D01*
X10203263Y2538053D01*
X10210053Y2540047D01*
X10216008Y2543874D01*
X10216010Y2543875D01*
X10286199Y2588983D01*
X10331128Y2617857D01*
X10343057Y2631623D01*
X10420736Y2721271D01*
X10425377Y2726627D01*
X10485165Y2857543D01*
X10505647Y3000000D01*
X10485165Y3142457D01*
X10425377Y3273373D01*
X10357207Y3352046D01*
X10335765Y3376792D01*
X10335764Y3376793D01*
X10331128Y3382143D01*
X10270590Y3421048D01*
X10216010Y3456125D01*
X10216008Y3456126D01*
X10210053Y3459953D01*
X10203263Y3461947D01*
X10203260Y3461948D01*
X10078752Y3498506D01*
X10071961Y3500500D01*
X9928039Y3500500D01*
X9921248Y3498506D01*
X9796740Y3461948D01*
X9796737Y3461947D01*
X9789947Y3459953D01*
X9783992Y3456126D01*
X9783990Y3456125D01*
X9729410Y3421048D01*
X9668872Y3382143D01*
X9664236Y3376793D01*
X9664235Y3376792D01*
X9642793Y3352046D01*
X9574623Y3273373D01*
X9514835Y3142457D01*
X9494353Y3000000D01*
X3593136Y3000000D01*
X3605278Y3100000D01*
X3586237Y3256818D01*
X3582968Y3265439D01*
X3532343Y3398926D01*
X3532342Y3398928D01*
X3530220Y3404523D01*
X3440483Y3534530D01*
X3381361Y3586907D01*
X3326723Y3635312D01*
X3326720Y3635314D01*
X3322240Y3639283D01*
X3316941Y3642064D01*
X3316937Y3642067D01*
X3187668Y3709913D01*
X3187666Y3709914D01*
X3182365Y3712696D01*
X3176553Y3714129D01*
X3176549Y3714130D01*
X3034801Y3749067D01*
X3034797Y3749067D01*
X3028985Y3750500D01*
X2871015Y3750500D01*
X2865203Y3749067D01*
X2865199Y3749067D01*
X2723451Y3714130D01*
X2723447Y3714129D01*
X2717635Y3712696D01*
X2712334Y3709914D01*
X2712332Y3709913D01*
X2583063Y3642067D01*
X2583059Y3642064D01*
X2577760Y3639283D01*
X2573280Y3635314D01*
X2573277Y3635312D01*
X2518638Y3586906D01*
X2459517Y3534530D01*
X2369780Y3404523D01*
X2367658Y3398928D01*
X2367657Y3398926D01*
X2317033Y3265439D01*
X2313763Y3256818D01*
X2313041Y3250871D01*
X2296328Y3113228D01*
X2268054Y3055157D01*
X1766393Y2553496D01*
X1711876Y2525719D01*
X1696389Y2524500D01*
X1397313Y2524500D01*
X1342312Y2541184D01*
X1338285Y2543875D01*
X1297740Y2570966D01*
X1288177Y2572868D01*
X1279168Y2576600D01*
X1280157Y2578989D01*
X1239306Y2601864D01*
X1213687Y2657427D01*
X1213000Y2669069D01*
X1213000Y3193290D01*
X1215107Y3213606D01*
X1216184Y3218743D01*
X1217867Y3226769D01*
X1213760Y3259716D01*
X1213404Y3265445D01*
X1213338Y3265439D01*
X1213000Y3269517D01*
X1213000Y3273614D01*
X1212147Y3278729D01*
X1209495Y3294626D01*
X1208906Y3298669D01*
X1203381Y3342984D01*
X1203379Y3342990D01*
X1202365Y3351126D01*
X1198876Y3358263D01*
X1198873Y3358273D01*
X1197565Y3366110D01*
X1172414Y3412584D01*
X1170541Y3416223D01*
X1150931Y3456338D01*
X1150930Y3456339D01*
X1147326Y3463712D01*
X1141707Y3469331D01*
X1141699Y3469342D01*
X1137919Y3476326D01*
X1131883Y3481882D01*
X1131882Y3481884D01*
X1099064Y3512095D01*
X1096111Y3514927D01*
X1039495Y3571543D01*
X1011718Y3626060D01*
X1010499Y3641547D01*
X1010499Y3800734D01*
X996017Y3892175D01*
X939859Y4002391D01*
X852391Y4089859D01*
X845454Y4093394D01*
X845452Y4093395D01*
X749115Y4142481D01*
X749114Y4142481D01*
X742175Y4146017D01*
X734481Y4147236D01*
X734480Y4147236D01*
X654581Y4159891D01*
X654579Y4159891D01*
X650735Y4160500D01*
X480022Y4160500D01*
X309266Y4160499D01*
X305423Y4159890D01*
X305418Y4159890D01*
X225519Y4147236D01*
X225516Y4147235D01*
X217825Y4146017D01*
X162717Y4117938D01*
X114548Y4093395D01*
X114546Y4093394D01*
X107609Y4089859D01*
X20141Y4002391D01*
X16606Y3995454D01*
X16605Y3995452D01*
X-3582Y3955832D01*
X-36017Y3892175D01*
X-50500Y3800735D01*
X-50499Y3399266D01*
X-49890Y3395423D01*
X-49890Y3395418D01*
X-41585Y3342984D01*
X-36017Y3307825D01*
X-18463Y3273373D01*
X15587Y3206547D01*
X20141Y3197609D01*
X107609Y3110141D01*
X114546Y3106606D01*
X114548Y3106605D01*
X210885Y3057519D01*
X217825Y3053983D01*
X225519Y3052764D01*
X225520Y3052764D01*
X305419Y3040109D01*
X305421Y3040109D01*
X309265Y3039500D01*
X363000Y3039500D01*
X421191Y3020593D01*
X457155Y2971093D01*
X462000Y2940500D01*
X462000Y2669069D01*
X443093Y2610878D01*
X393593Y2574914D01*
X388646Y2573623D01*
X386824Y2572869D01*
X377260Y2570966D01*
X354089Y2555484D01*
X307718Y2524500D01*
X294399Y2515601D01*
X239034Y2432740D01*
X237132Y2423178D01*
X237131Y2423175D01*
X235685Y2415909D01*
X211425Y2368177D01*
X181382Y2335541D01*
X178548Y2332587D01*
X-55497Y2098543D01*
X-110013Y2070766D01*
X-170445Y2080337D01*
X-213710Y2123602D01*
X-224500Y2168547D01*
X-224500Y2359674D01*
X-239034Y2432740D01*
X-294399Y2515601D01*
X-307717Y2524500D01*
X-354089Y2555484D01*
X-377260Y2570966D01*
X-450326Y2585500D01*
X-1224674Y2585500D01*
X-1297740Y2570966D01*
X-1320911Y2555484D01*
X-1367282Y2524500D01*
X-1380601Y2515601D01*
X-1435966Y2432740D01*
X-1437868Y2423178D01*
X-1437869Y2423175D01*
X-1439315Y2415909D01*
X-1463575Y2368177D01*
X-1493606Y2335554D01*
X-1496440Y2332600D01*
X-1980728Y1848313D01*
X-1996583Y1835438D01*
X-2007836Y1828086D01*
X-2020709Y1811547D01*
X-2028222Y1801894D01*
X-2032027Y1797585D01*
X-2031977Y1797542D01*
X-2034628Y1794412D01*
X-2037520Y1791520D01*
X-2039896Y1788192D01*
X-2039897Y1788191D01*
X-2049910Y1774167D01*
X-2052354Y1770890D01*
X-2069005Y1749496D01*
X-2084809Y1729191D01*
X-2087389Y1721676D01*
X-2087394Y1721667D01*
X-2092010Y1715201D01*
X-2107095Y1664530D01*
X-2108323Y1660696D01*
X-2125500Y1610662D01*
X-2125500Y1602708D01*
X-2127768Y1595090D01*
X-2127429Y1586891D01*
X-2127429Y1586890D01*
X-2125585Y1542300D01*
X-2125500Y1538210D01*
X-2125500Y-1440788D01*
X-2127607Y-1461104D01*
X-2130367Y-1474268D01*
X-2129353Y-1482403D01*
X-2129353Y-1482405D01*
X-2126260Y-1507217D01*
X-2125905Y-1512945D01*
X-2125838Y-1512939D01*
X-2125500Y-1517018D01*
X-2125500Y-1521114D01*
X-2122172Y-1541056D01*
X-2121996Y-1542113D01*
X-2121407Y-1546152D01*
X-2114866Y-1598626D01*
X-2111376Y-1605765D01*
X-2111372Y-1605778D01*
X-2110065Y-1613610D01*
X-2106162Y-1620822D01*
X-2106161Y-1620825D01*
X-2084922Y-1660072D01*
X-2083050Y-1663708D01*
X-2063430Y-1703841D01*
X-2063427Y-1703846D01*
X-2059826Y-1711211D01*
X-2054208Y-1716829D01*
X-2054200Y-1716840D01*
X-2050419Y-1723826D01*
X-2044384Y-1729382D01*
X-2044383Y-1729383D01*
X-2011552Y-1759606D01*
X-2008599Y-1762438D01*
X-1949496Y-1821541D01*
X-1921719Y-1876058D01*
X-1920500Y-1891545D01*
X-1920500Y-2061582D01*
X-1909582Y-2136518D01*
X-1853076Y-2252102D01*
X-1775182Y-2329996D01*
X-1747405Y-2384513D01*
X-1756976Y-2444945D01*
X-1775182Y-2470004D01*
X-1810682Y-2505504D01*
X-1865199Y-2533281D01*
X-1880686Y-2534500D01*
X-1953589Y-2534500D01*
X-2013856Y-2514042D01*
X-2067226Y-2473090D01*
X-2072375Y-2469139D01*
X-2078368Y-2466656D01*
X-2078371Y-2466655D01*
X-2160558Y-2432613D01*
X-2206291Y-2413670D01*
X-2212720Y-2412824D01*
X-2212722Y-2412823D01*
X-2343567Y-2395597D01*
X-2350000Y-2394750D01*
X-2356433Y-2395597D01*
X-2487278Y-2412823D01*
X-2487280Y-2412824D01*
X-2493709Y-2413670D01*
X-2627625Y-2469139D01*
X-2742621Y-2557379D01*
X-2830861Y-2672375D01*
X-2886330Y-2806291D01*
X-2887176Y-2812720D01*
X-2887177Y-2812722D01*
X-2894373Y-2867385D01*
X-2905250Y-2950000D01*
X-10749500Y-2950000D01*
X-10749500Y3995143D01*
X-10749023Y4004847D01*
X-10748669Y4008446D01*
X-10736055Y4136518D01*
X-10732270Y4155546D01*
X-10695277Y4277494D01*
X-10687851Y4295420D01*
X-10627784Y4407798D01*
X-10617003Y4423934D01*
X-10570972Y4480024D01*
X-10536161Y4522441D01*
X-10522444Y4536158D01*
X-10423937Y4617000D01*
X-10407801Y4627781D01*
X-10295423Y4687848D01*
X-10277494Y4695275D01*
X-10277484Y4695278D01*
X-10155549Y4732267D01*
X-10136520Y4736052D01*
X-10004846Y4749020D01*
X-9995143Y4749497D01*
X-9955833Y4749497D01*
X-9955828Y4749499D01*
X-9955816Y4749500D01*
X18495140Y4749500D01*
X18504843Y4749023D01*
G37*
%TD.AperFunction*%
%TA.AperFunction,Conductor*%
G36*
X12294945Y2755952D02*
G01*
X12320004Y2737746D01*
X12397609Y2660141D01*
X12404546Y2656606D01*
X12404548Y2656605D01*
X12491867Y2612114D01*
X12507825Y2603983D01*
X12515519Y2602764D01*
X12515520Y2602764D01*
X12595419Y2590109D01*
X12595421Y2590109D01*
X12599265Y2589500D01*
X12619326Y2589500D01*
X12789642Y2589501D01*
X12847832Y2570594D01*
X12859646Y2560505D01*
X13445504Y1974647D01*
X13473281Y1920130D01*
X13474500Y1904643D01*
X13474500Y1047723D01*
X13465225Y1005885D01*
X13458941Y992408D01*
X13455741Y985545D01*
X13449500Y938139D01*
X13449501Y161862D01*
X13449924Y158652D01*
X13449924Y158645D01*
X13454752Y121968D01*
X13455741Y114455D01*
X13458944Y107587D01*
X13495571Y29040D01*
X13504253Y10421D01*
X13585421Y-70747D01*
X13593269Y-74407D01*
X13593271Y-74408D01*
X13659361Y-105226D01*
X13689455Y-119259D01*
X13736861Y-125500D01*
X13849965Y-125500D01*
X13963138Y-125499D01*
X13966348Y-125076D01*
X13966355Y-125076D01*
X14003035Y-120248D01*
X14003038Y-120247D01*
X14010545Y-119259D01*
X14058161Y-97055D01*
X14118890Y-89599D01*
X14141839Y-97055D01*
X14189455Y-119259D01*
X14236861Y-125500D01*
X14349965Y-125500D01*
X14463138Y-125499D01*
X14466348Y-125076D01*
X14466355Y-125076D01*
X14503035Y-120248D01*
X14503038Y-120247D01*
X14510545Y-119259D01*
X14558161Y-97055D01*
X14618890Y-89599D01*
X14641839Y-97055D01*
X14689455Y-119259D01*
X14696967Y-120248D01*
X14733647Y-125077D01*
X14733649Y-125077D01*
X14736861Y-125500D01*
X14775501Y-125500D01*
X14833692Y-144407D01*
X14869656Y-193907D01*
X14874501Y-224498D01*
X14874501Y-263138D01*
X14880741Y-310545D01*
X14883941Y-317407D01*
X14902945Y-358161D01*
X14910401Y-418890D01*
X14902945Y-441839D01*
X14880741Y-489455D01*
X14874500Y-536861D01*
X14874501Y-763138D01*
X14874924Y-766348D01*
X14874924Y-766355D01*
X14879431Y-800592D01*
X14880741Y-810545D01*
X14902199Y-856561D01*
X14902945Y-858161D01*
X14910401Y-918890D01*
X14902945Y-941839D01*
X14880741Y-989455D01*
X14874500Y-1036861D01*
X14874501Y-1263138D01*
X14874924Y-1266348D01*
X14874924Y-1266355D01*
X14879497Y-1301093D01*
X14880741Y-1310545D01*
X14883941Y-1317407D01*
X14902945Y-1358161D01*
X14910401Y-1418890D01*
X14902945Y-1441839D01*
X14880741Y-1489455D01*
X14874500Y-1536861D01*
X14874501Y-1763138D01*
X14874924Y-1766348D01*
X14874924Y-1766355D01*
X14879431Y-1800592D01*
X14880741Y-1810545D01*
X14883941Y-1817407D01*
X14902945Y-1858161D01*
X14910401Y-1918890D01*
X14902945Y-1941839D01*
X14880741Y-1989455D01*
X14874500Y-2036861D01*
X14874501Y-2263138D01*
X14874924Y-2266348D01*
X14874924Y-2266355D01*
X14876834Y-2280861D01*
X14880741Y-2310545D01*
X14883941Y-2317407D01*
X14902945Y-2358161D01*
X14910401Y-2418890D01*
X14902945Y-2441839D01*
X14880741Y-2489455D01*
X14879752Y-2496967D01*
X14878411Y-2507157D01*
X14874500Y-2536861D01*
X14874500Y-2575501D01*
X14855593Y-2633692D01*
X14806093Y-2669656D01*
X14775502Y-2674501D01*
X14736862Y-2674501D01*
X14716520Y-2677179D01*
X14696965Y-2679752D01*
X14696962Y-2679753D01*
X14689455Y-2680741D01*
X14654588Y-2697000D01*
X14641839Y-2702945D01*
X14581110Y-2710401D01*
X14558161Y-2702945D01*
X14545412Y-2697000D01*
X14510545Y-2680741D01*
X14463139Y-2674500D01*
X14350035Y-2674500D01*
X14236862Y-2674501D01*
X14233652Y-2674924D01*
X14233645Y-2674924D01*
X14196967Y-2679752D01*
X14196966Y-2679752D01*
X14189455Y-2680741D01*
X14154588Y-2697000D01*
X14093271Y-2725592D01*
X14093269Y-2725593D01*
X14085421Y-2729253D01*
X14004253Y-2810421D01*
X14000593Y-2818269D01*
X14000592Y-2818271D01*
X13965481Y-2893567D01*
X13955741Y-2914455D01*
X13949500Y-2961861D01*
X13949501Y-3738138D01*
X13949924Y-3741348D01*
X13949924Y-3741355D01*
X13954478Y-3775951D01*
X13955741Y-3785545D01*
X13958942Y-3792410D01*
X13958943Y-3792413D01*
X13965225Y-3805885D01*
X13974500Y-3847723D01*
X13974500Y-6003455D01*
X13955593Y-6061646D01*
X13945504Y-6073459D01*
X12823458Y-7195504D01*
X12768941Y-7223281D01*
X12753454Y-7224500D01*
X12462801Y-7224500D01*
X12442485Y-7222393D01*
X12437348Y-7221316D01*
X12437347Y-7221316D01*
X12429321Y-7219633D01*
X12421186Y-7220647D01*
X12421184Y-7220647D01*
X12396372Y-7223740D01*
X12390644Y-7224095D01*
X12390650Y-7224162D01*
X12386571Y-7224500D01*
X12382475Y-7224500D01*
X12361459Y-7228007D01*
X12357437Y-7228593D01*
X12343300Y-7230355D01*
X12313102Y-7234119D01*
X12313100Y-7234120D01*
X12304963Y-7235134D01*
X12297824Y-7238624D01*
X12297811Y-7238628D01*
X12289979Y-7239935D01*
X12282767Y-7243838D01*
X12282764Y-7243839D01*
X12243517Y-7265078D01*
X12239881Y-7266950D01*
X12199748Y-7286570D01*
X12199743Y-7286573D01*
X12192378Y-7290174D01*
X12186760Y-7295792D01*
X12186749Y-7295800D01*
X12179763Y-7299581D01*
X12174207Y-7305616D01*
X12174206Y-7305617D01*
X12143984Y-7338447D01*
X12141152Y-7341400D01*
X11469273Y-8013278D01*
X11453417Y-8026153D01*
X11442164Y-8033505D01*
X11437127Y-8039977D01*
X11421778Y-8059697D01*
X11417973Y-8064006D01*
X11418023Y-8064049D01*
X11415372Y-8067179D01*
X11412480Y-8070071D01*
X11410104Y-8073399D01*
X11410103Y-8073400D01*
X11400090Y-8087424D01*
X11397646Y-8090701D01*
X11370228Y-8125928D01*
X11365191Y-8132400D01*
X11362611Y-8139915D01*
X11362606Y-8139924D01*
X11357990Y-8146390D01*
X11348356Y-8178749D01*
X11313633Y-8229124D01*
X11253473Y-8249500D01*
X11020545Y-8249500D01*
X10962354Y-8230593D01*
X10926390Y-8181093D01*
X10926390Y-8119907D01*
X10950541Y-8080496D01*
X11030724Y-8000313D01*
X11046580Y-7987438D01*
X11046947Y-7987198D01*
X11057836Y-7980084D01*
X11062872Y-7973614D01*
X11062874Y-7973612D01*
X11078226Y-7953887D01*
X11082025Y-7949584D01*
X11081975Y-7949542D01*
X11084630Y-7946407D01*
X11087520Y-7943517D01*
X11099900Y-7926177D01*
X11102333Y-7922914D01*
X11134809Y-7881189D01*
X11137388Y-7873677D01*
X11137396Y-7873662D01*
X11142010Y-7867199D01*
X11157099Y-7816515D01*
X11158332Y-7812667D01*
X11172837Y-7770418D01*
X11172837Y-7770416D01*
X11175500Y-7762660D01*
X11175500Y-7754716D01*
X11175502Y-7754702D01*
X11177769Y-7747088D01*
X11175585Y-7694286D01*
X11175500Y-7690195D01*
X11175500Y-7169782D01*
X11194407Y-7111591D01*
X11243907Y-7075627D01*
X11290237Y-7073329D01*
X11290301Y-7072646D01*
X11295043Y-7073091D01*
X11295045Y-7073091D01*
X11296287Y-7073207D01*
X11296290Y-7073208D01*
X11318438Y-7075285D01*
X11318445Y-7075285D01*
X11320734Y-7075500D01*
X11979266Y-7075500D01*
X11981555Y-7075285D01*
X11981562Y-7075285D01*
X11991411Y-7074361D01*
X12009699Y-7072646D01*
X12137882Y-7027793D01*
X12229471Y-6960198D01*
X12241176Y-6951559D01*
X12241177Y-6951558D01*
X12247150Y-6947150D01*
X12327793Y-6837882D01*
X12372646Y-6709699D01*
X12375500Y-6679266D01*
X12375500Y-6170734D01*
X12375207Y-6167602D01*
X12373208Y-6146291D01*
X12373208Y-6146289D01*
X12372646Y-6140301D01*
X12356055Y-6092886D01*
X12350500Y-6060189D01*
X12350500Y-6050799D01*
X12370958Y-5990532D01*
X12376908Y-5982778D01*
X12376911Y-5982772D01*
X12380861Y-5977625D01*
X12436330Y-5843709D01*
X12439778Y-5817524D01*
X12454403Y-5706433D01*
X12455250Y-5700000D01*
X12439071Y-5577112D01*
X12437177Y-5562722D01*
X12437176Y-5562720D01*
X12436330Y-5556291D01*
X12380861Y-5422375D01*
X12310951Y-5331267D01*
X12290527Y-5273591D01*
X12309838Y-5212211D01*
X12325705Y-5190712D01*
X12375472Y-5155119D01*
X12405360Y-5150500D01*
X12490755Y-5150500D01*
X12511071Y-5152607D01*
X12516208Y-5153684D01*
X12516209Y-5153684D01*
X12524235Y-5155367D01*
X12532370Y-5154353D01*
X12532372Y-5154353D01*
X12557184Y-5151260D01*
X12562912Y-5150905D01*
X12562906Y-5150838D01*
X12566985Y-5150500D01*
X12571081Y-5150500D01*
X12592097Y-5146993D01*
X12596119Y-5146407D01*
X12610256Y-5144645D01*
X12640454Y-5140881D01*
X12640456Y-5140880D01*
X12648593Y-5139866D01*
X12655732Y-5136376D01*
X12655745Y-5136372D01*
X12663577Y-5135065D01*
X12705399Y-5112432D01*
X12752518Y-5100500D01*
X13004851Y-5100499D01*
X13050734Y-5100499D01*
X13054577Y-5099890D01*
X13054582Y-5099890D01*
X13134481Y-5087236D01*
X13134484Y-5087235D01*
X13142175Y-5086017D01*
X13225745Y-5043436D01*
X13245452Y-5033395D01*
X13245454Y-5033394D01*
X13252391Y-5029859D01*
X13339859Y-4942391D01*
X13344766Y-4932762D01*
X13392481Y-4839115D01*
X13392481Y-4839114D01*
X13396017Y-4832175D01*
X13400141Y-4806141D01*
X13409891Y-4744581D01*
X13409891Y-4744579D01*
X13410500Y-4740735D01*
X13410499Y-4399266D01*
X13409890Y-4395418D01*
X13397236Y-4315519D01*
X13397235Y-4315516D01*
X13396017Y-4307825D01*
X13339859Y-4197609D01*
X13254496Y-4112246D01*
X13226719Y-4057729D01*
X13225500Y-4042242D01*
X13225500Y-3847723D01*
X13234775Y-3805885D01*
X13241059Y-3792408D01*
X13241059Y-3792407D01*
X13244259Y-3785545D01*
X13250500Y-3738139D01*
X13250499Y-2961862D01*
X13249785Y-2956433D01*
X13245248Y-2921967D01*
X13245248Y-2921966D01*
X13244259Y-2914455D01*
X13214480Y-2850593D01*
X13199408Y-2818271D01*
X13199407Y-2818269D01*
X13195747Y-2810421D01*
X13114579Y-2729253D01*
X13106731Y-2725593D01*
X13106729Y-2725592D01*
X13017414Y-2683944D01*
X13010545Y-2680741D01*
X12963139Y-2674500D01*
X12850035Y-2674500D01*
X12736862Y-2674501D01*
X12733652Y-2674924D01*
X12733645Y-2674924D01*
X12696965Y-2679752D01*
X12696962Y-2679753D01*
X12689455Y-2680741D01*
X12654588Y-2697000D01*
X12641839Y-2702945D01*
X12581110Y-2710401D01*
X12558161Y-2702945D01*
X12545412Y-2697000D01*
X12510545Y-2680741D01*
X12463139Y-2674500D01*
X12402227Y-2674500D01*
X12245658Y-2674501D01*
X12187468Y-2655594D01*
X12151504Y-2606094D01*
X12151503Y-2544909D01*
X12186987Y-2496956D01*
X12189579Y-2495747D01*
X12270747Y-2414579D01*
X12277351Y-2400418D01*
X12316056Y-2317414D01*
X12319259Y-2310545D01*
X12325500Y-2263139D01*
X12325499Y-2036862D01*
X12319259Y-1989455D01*
X12285785Y-1917670D01*
X12274408Y-1893271D01*
X12274407Y-1893269D01*
X12270747Y-1885421D01*
X12189579Y-1804253D01*
X12181731Y-1800593D01*
X12181729Y-1800592D01*
X12092414Y-1758944D01*
X12085545Y-1755741D01*
X12038139Y-1749500D01*
X11650060Y-1749500D01*
X11261862Y-1749501D01*
X11258652Y-1749924D01*
X11258645Y-1749924D01*
X11221967Y-1754752D01*
X11221966Y-1754752D01*
X11214455Y-1755741D01*
X11167301Y-1777729D01*
X11118271Y-1800592D01*
X11118269Y-1800593D01*
X11110421Y-1804253D01*
X11029253Y-1885421D01*
X11025593Y-1893269D01*
X11025592Y-1893271D01*
X11014215Y-1917670D01*
X10972487Y-1962418D01*
X10912426Y-1974093D01*
X10856973Y-1948235D01*
X10827310Y-1894721D01*
X10825491Y-1875831D01*
X10825491Y-1424169D01*
X10844398Y-1365978D01*
X10893898Y-1330014D01*
X10955084Y-1330014D01*
X11004584Y-1365978D01*
X11014215Y-1382330D01*
X11022455Y-1400000D01*
X11029253Y-1414579D01*
X11110421Y-1495747D01*
X11118269Y-1499407D01*
X11118271Y-1499408D01*
X11196113Y-1535706D01*
X11214455Y-1544259D01*
X11261861Y-1550500D01*
X11649940Y-1550500D01*
X12038138Y-1550499D01*
X12041348Y-1550076D01*
X12041355Y-1550076D01*
X12078033Y-1545248D01*
X12078034Y-1545248D01*
X12085545Y-1544259D01*
X12133063Y-1522101D01*
X12181729Y-1499408D01*
X12181731Y-1499407D01*
X12189579Y-1495747D01*
X12270747Y-1414579D01*
X12277546Y-1400000D01*
X12316056Y-1317414D01*
X12319259Y-1310545D01*
X12325500Y-1263139D01*
X12325499Y-1036862D01*
X12319259Y-989455D01*
X12285785Y-917670D01*
X12274408Y-893271D01*
X12274407Y-893269D01*
X12270747Y-885421D01*
X12189579Y-804253D01*
X12181731Y-800593D01*
X12181729Y-800592D01*
X12092414Y-758944D01*
X12085545Y-755741D01*
X12038139Y-749500D01*
X11650060Y-749500D01*
X11261862Y-749501D01*
X11258652Y-749924D01*
X11258645Y-749924D01*
X11221967Y-754752D01*
X11221966Y-754752D01*
X11214455Y-755741D01*
X11169830Y-776550D01*
X11118271Y-800592D01*
X11118269Y-800593D01*
X11110421Y-804253D01*
X11029253Y-885421D01*
X11025593Y-893269D01*
X11025592Y-893271D01*
X11014215Y-917670D01*
X10972487Y-962418D01*
X10912426Y-974093D01*
X10856973Y-948235D01*
X10827310Y-894721D01*
X10825491Y-875831D01*
X10825491Y-846554D01*
X10844398Y-788363D01*
X10854487Y-776550D01*
X11076541Y-554496D01*
X11131058Y-526719D01*
X11146545Y-525500D01*
X11152277Y-525500D01*
X11194115Y-534775D01*
X11207592Y-541059D01*
X11207593Y-541059D01*
X11214455Y-544259D01*
X11261861Y-550500D01*
X11649940Y-550500D01*
X12038138Y-550499D01*
X12041348Y-550076D01*
X12041355Y-550076D01*
X12078033Y-545248D01*
X12078034Y-545248D01*
X12085545Y-544259D01*
X12137879Y-519855D01*
X12181729Y-499408D01*
X12181731Y-499407D01*
X12189579Y-495747D01*
X12270747Y-414579D01*
X12275201Y-405029D01*
X12316056Y-317414D01*
X12319259Y-310545D01*
X12323614Y-277467D01*
X12325077Y-266353D01*
X12325077Y-266351D01*
X12325500Y-263139D01*
X12325500Y-224499D01*
X12344407Y-166308D01*
X12393907Y-130344D01*
X12424498Y-125499D01*
X12463138Y-125499D01*
X12483480Y-122821D01*
X12503035Y-120248D01*
X12503038Y-120247D01*
X12510545Y-119259D01*
X12558161Y-97055D01*
X12618890Y-89599D01*
X12641839Y-97055D01*
X12689455Y-119259D01*
X12736861Y-125500D01*
X12849965Y-125500D01*
X12963138Y-125499D01*
X12966348Y-125076D01*
X12966355Y-125076D01*
X13003033Y-120248D01*
X13003034Y-120248D01*
X13010545Y-119259D01*
X13074151Y-89599D01*
X13106729Y-74408D01*
X13106731Y-74407D01*
X13114579Y-70747D01*
X13195747Y10421D01*
X13204430Y29040D01*
X13241056Y107586D01*
X13241056Y107587D01*
X13244259Y114455D01*
X13250500Y161861D01*
X13250499Y938138D01*
X13244259Y985545D01*
X13241058Y992410D01*
X13241057Y992413D01*
X13234775Y1005885D01*
X13225500Y1047723D01*
X13225500Y1050789D01*
X13227607Y1071105D01*
X13228684Y1076242D01*
X13230367Y1084268D01*
X13226260Y1117217D01*
X13225904Y1122946D01*
X13225838Y1122941D01*
X13225500Y1127021D01*
X13225500Y1131114D01*
X13224827Y1135148D01*
X13224826Y1135158D01*
X13221994Y1152127D01*
X13221403Y1156179D01*
X13215881Y1200483D01*
X13215881Y1200484D01*
X13214866Y1208625D01*
X13211375Y1215764D01*
X13211372Y1215774D01*
X13210065Y1223610D01*
X13184920Y1270074D01*
X13183047Y1273712D01*
X13163428Y1313844D01*
X13163426Y1313846D01*
X13159826Y1321211D01*
X13154208Y1326829D01*
X13154200Y1326840D01*
X13150419Y1333826D01*
X13111552Y1369606D01*
X13108599Y1372438D01*
X12104496Y2376542D01*
X12076719Y2431059D01*
X12075500Y2446546D01*
X12075500Y2592242D01*
X12094407Y2650433D01*
X12104496Y2662246D01*
X12179996Y2737746D01*
X12234513Y2765523D01*
X12294945Y2755952D01*
G37*
%TD.AperFunction*%
%TA.AperFunction,Conductor*%
G36*
X11004584Y-2365978D02*
G01*
X11014215Y-2382330D01*
X11022650Y-2400418D01*
X11029253Y-2414579D01*
X11110421Y-2495747D01*
X11118269Y-2499407D01*
X11118271Y-2499408D01*
X11193527Y-2534500D01*
X11214455Y-2544259D01*
X11261861Y-2550500D01*
X11470876Y-2550500D01*
X12029342Y-2550499D01*
X12087533Y-2569406D01*
X12123497Y-2618906D01*
X12123497Y-2680092D01*
X12088013Y-2728044D01*
X12085421Y-2729253D01*
X12004253Y-2810421D01*
X12000593Y-2818269D01*
X12000592Y-2818271D01*
X11965481Y-2893567D01*
X11955741Y-2914455D01*
X11949500Y-2961861D01*
X11949501Y-3738138D01*
X11949924Y-3741348D01*
X11949924Y-3741355D01*
X11954478Y-3775951D01*
X11955741Y-3785545D01*
X11961499Y-3797892D01*
X11999279Y-3878912D01*
X12004253Y-3889579D01*
X12071853Y-3957179D01*
X12099630Y-4011696D01*
X12090059Y-4072128D01*
X12046794Y-4115393D01*
X11992605Y-4125750D01*
X11981583Y-4124716D01*
X11981556Y-4124715D01*
X11979266Y-4124500D01*
X11320734Y-4124500D01*
X11318445Y-4124715D01*
X11318438Y-4124715D01*
X11296290Y-4126792D01*
X11296287Y-4126793D01*
X11295194Y-4126895D01*
X11295193Y-4126895D01*
X11290301Y-4127354D01*
X11290212Y-4126400D01*
X11234738Y-4120882D01*
X11189041Y-4080195D01*
X11175500Y-4030218D01*
X11175500Y-3899228D01*
X11177607Y-3878912D01*
X11178684Y-3873775D01*
X11180367Y-3865749D01*
X11176260Y-3832801D01*
X11175904Y-3827073D01*
X11175838Y-3827079D01*
X11175500Y-3823001D01*
X11175500Y-3818904D01*
X11173328Y-3805885D01*
X11171995Y-3797892D01*
X11171406Y-3793849D01*
X11165881Y-3749534D01*
X11165879Y-3749528D01*
X11164865Y-3741392D01*
X11161376Y-3734255D01*
X11161373Y-3734245D01*
X11160065Y-3726408D01*
X11134914Y-3679934D01*
X11133041Y-3676295D01*
X11113431Y-3636180D01*
X11113430Y-3636179D01*
X11109826Y-3628806D01*
X11104207Y-3623187D01*
X11104199Y-3623176D01*
X11100419Y-3616192D01*
X11094383Y-3610636D01*
X11094382Y-3610634D01*
X11061564Y-3580423D01*
X11058611Y-3577591D01*
X11032674Y-3551654D01*
X11004525Y-3494572D01*
X11003552Y-3487177D01*
X10989555Y-3380861D01*
X10987168Y-3362731D01*
X10987167Y-3362729D01*
X10986321Y-3356300D01*
X10930852Y-3222384D01*
X10845949Y-3111737D01*
X10825491Y-3051469D01*
X10825491Y-2424169D01*
X10844398Y-2365978D01*
X10893898Y-2330014D01*
X10955084Y-2330014D01*
X11004584Y-2365978D01*
G37*
%TD.AperFunction*%
%TD*%
M02*
