%TF.GenerationSoftware,KiCad,Pcbnew,6.99.0-1.20221101gitf80c150.fc36*%
%TF.CreationDate,2022-11-28T17:43:37+00:00*%
%TF.ProjectId,bugg-mic-r4,62756767-2d6d-4696-932d-72342e6b6963,rev?*%
%TF.SameCoordinates,Original*%
%TF.FileFunction,Copper,L6,Bot*%
%TF.FilePolarity,Positive*%
%FSLAX46Y46*%
G04 Gerber Fmt 4.6, Leading zero omitted, Abs format (unit mm)*
G04 Created by KiCad (PCBNEW 6.99.0-1.20221101gitf80c150.fc36) date 2022-11-28 17:43:37*
%MOMM*%
%LPD*%
G01*
G04 APERTURE LIST*
%TA.AperFunction,ComponentPad*%
%ADD10C,0.500000*%
%TD*%
%TA.AperFunction,SMDPad,CuDef*%
%ADD11R,2.650000X2.650000*%
%TD*%
%TA.AperFunction,ViaPad*%
%ADD12C,0.600000*%
%TD*%
%TA.AperFunction,ViaPad*%
%ADD13C,0.800000*%
%TD*%
%TA.AperFunction,Conductor*%
%ADD14C,0.600000*%
%TD*%
%TA.AperFunction,Conductor*%
%ADD15C,0.250000*%
%TD*%
G04 APERTURE END LIST*
D10*
%TO.P,U301,25,VSS_THERMAL*%
%TO.N,GND*%
X14675000Y-325000D03*
X13600000Y-325000D03*
X12525000Y-325000D03*
X14675000Y-1400000D03*
X13600000Y-1400000D03*
D11*
X13599999Y-1399999D03*
D10*
X12525000Y-1400000D03*
X14675000Y-2475000D03*
X13600000Y-2475000D03*
X12525000Y-2475000D03*
%TD*%
D12*
%TO.N,GND*%
X-600000Y-3450000D03*
D13*
X15600000Y-5350000D03*
D12*
X500000Y-3450000D03*
X11750000Y-14700000D03*
X13700000Y-4400000D03*
X12950000Y2000000D03*
X11750000Y-15300000D03*
X16000000Y4350000D03*
X10550000Y1350000D03*
X-3050000Y4100000D03*
X15950000Y550000D03*
X18550000Y4000000D03*
X11455944Y-7673746D03*
X4000000Y4200000D03*
X11450000Y-3550000D03*
X10950000Y4050000D03*
%TO.N,+3V3*%
X16750000Y2350000D03*
X14200000Y-8100000D03*
D13*
X2950000Y3100000D03*
X15850000Y-3800000D03*
D12*
X11900000Y-5700000D03*
%TO.N,/SDOUT*%
X17550000Y-1800000D03*
X12200000Y-14000000D03*
%TO.N,/BCLK*%
X18133725Y-1252932D03*
X12241949Y-13158051D03*
%TO.N,/FSYNC*%
X18674709Y-663564D03*
X12200000Y-12200000D03*
%TO.N,Net-(U301-PDMDIN1_GPI1)*%
X-2350000Y-2950000D03*
X9500000Y-2900000D03*
%TO.N,Net-(U301-PDMCLK1_GPO1)*%
X2500000Y-2900000D03*
X10449991Y-3500009D03*
%TO.N,Net-(U301-GPIO1)*%
X16533051Y-5283051D03*
X16974627Y-2425373D03*
%TD*%
D14*
%TO.N,+3V3*%
X14200000Y-8100000D02*
X14000000Y-7900000D01*
X16750000Y-234300D02*
X16750000Y2350000D01*
X11900000Y-5700000D02*
X11950000Y-5650000D01*
X14000000Y-7900000D02*
X14000000Y-5650000D01*
X11950000Y-5650000D02*
X14000000Y-5650000D01*
X16000000Y3100000D02*
X2950000Y3100000D01*
X15450000Y-1534300D02*
X16750000Y-234300D01*
X15450000Y-3400000D02*
X15450000Y-1534300D01*
X16750000Y2350000D02*
X16000000Y3100000D01*
X14000000Y-5650000D02*
X15850000Y-3800000D01*
X15850000Y-3800000D02*
X15450000Y-3400000D01*
D15*
%TO.N,/SDOUT*%
X18000000Y-4700000D02*
X14950000Y-7750000D01*
X11800000Y-10900000D02*
X11050000Y-11650000D01*
X11050000Y-11650000D02*
X11050000Y-12850000D01*
X14950000Y-8763604D02*
X12813604Y-10900000D01*
X11050000Y-12850000D02*
X12200000Y-14000000D01*
X14950000Y-7750000D02*
X14950000Y-8763604D01*
X18000000Y-2250000D02*
X18000000Y-4700000D01*
X17550000Y-1800000D02*
X18000000Y-2250000D01*
X12813604Y-10900000D02*
X11800000Y-10900000D01*
%TO.N,/BCLK*%
X11500000Y-12416102D02*
X12241949Y-13158051D01*
X13000000Y-11350000D02*
X12063590Y-11350000D01*
X18133725Y-1252932D02*
X18450011Y-1569218D01*
X18450011Y-1569218D02*
X18450011Y-4963579D01*
X12063590Y-11350000D02*
X11500000Y-11913590D01*
X11500000Y-11913590D02*
X11500000Y-12416102D01*
X18450011Y-4963579D02*
X15400000Y-8013590D01*
X15400000Y-8950000D02*
X13000000Y-11350000D01*
X15400000Y-8013590D02*
X15400000Y-8950000D01*
%TO.N,/FSYNC*%
X15850000Y-9150000D02*
X12800000Y-12200000D01*
X12800000Y-12200000D02*
X12200000Y-12200000D01*
X18674709Y-663564D02*
X18974708Y-963563D01*
X18974708Y-5275292D02*
X15850000Y-8400000D01*
X15850000Y-8400000D02*
X15850000Y-9150000D01*
X18974708Y-963563D02*
X18974708Y-5275292D01*
%TO.N,Net-(U301-PDMDIN1_GPI1)*%
X9500000Y-2900000D02*
X8250000Y-4150000D01*
X8250000Y-4150000D02*
X-1150000Y-4150000D01*
X-1150000Y-4150000D02*
X-2350000Y-2950000D01*
%TO.N,Net-(U301-PDMCLK1_GPO1)*%
X8700000Y-2150000D02*
X7950000Y-2900000D01*
X10450000Y-2600000D02*
X10000000Y-2150000D01*
X10449991Y-3500009D02*
X10450000Y-3500000D01*
X10450000Y-3500000D02*
X10450000Y-2600000D01*
X7950000Y-2900000D02*
X2500000Y-2900000D01*
X10000000Y-2150000D02*
X8700000Y-2150000D01*
%TO.N,Net-(U301-GPIO1)*%
X16974627Y-2425373D02*
X16974627Y-4841475D01*
X16974627Y-4841475D02*
X16533051Y-5283051D01*
%TD*%
%TA.AperFunction,Conductor*%
%TO.N,GND*%
G36*
X18504843Y4749023D02*
G01*
X18518708Y4747657D01*
X18636517Y4736055D01*
X18655546Y4732270D01*
X18777492Y4695278D01*
X18795421Y4687851D01*
X18907798Y4627784D01*
X18923934Y4617002D01*
X19022438Y4536163D01*
X19036159Y4522443D01*
X19036164Y4522437D01*
X19117001Y4423937D01*
X19127783Y4407800D01*
X19187850Y4295423D01*
X19195277Y4277495D01*
X19232268Y4155551D01*
X19236054Y4136518D01*
X19249020Y4004875D01*
X19249497Y3995171D01*
X19249497Y3955832D01*
X19249499Y3955827D01*
X19249500Y3955815D01*
X19249500Y-216706D01*
X19230593Y-274897D01*
X19181093Y-310861D01*
X19119907Y-310861D01*
X19076420Y-280127D01*
X19075868Y-280679D01*
X19072656Y-277467D01*
X19071960Y-276975D01*
X19071287Y-276098D01*
X19071281Y-276092D01*
X19067330Y-270943D01*
X18952334Y-182703D01*
X18818418Y-127234D01*
X18811989Y-126388D01*
X18811987Y-126387D01*
X18681142Y-109161D01*
X18674709Y-108314D01*
X18668276Y-109161D01*
X18537431Y-126387D01*
X18537429Y-126388D01*
X18531000Y-127234D01*
X18397084Y-182703D01*
X18282088Y-270943D01*
X18193848Y-385939D01*
X18138379Y-519855D01*
X18137533Y-526284D01*
X18137532Y-526286D01*
X18124552Y-624880D01*
X18098211Y-680105D01*
X18039322Y-710111D01*
X18021933Y-712400D01*
X17996447Y-715755D01*
X17996445Y-715756D01*
X17990016Y-716602D01*
X17856100Y-772071D01*
X17741104Y-860311D01*
X17652864Y-975307D01*
X17597395Y-1109223D01*
X17593555Y-1138393D01*
X17589989Y-1165476D01*
X17563648Y-1220700D01*
X17504759Y-1250706D01*
X17479817Y-1253990D01*
X17406291Y-1263670D01*
X17272375Y-1319139D01*
X17157379Y-1407379D01*
X17069139Y-1522375D01*
X17013670Y-1656291D01*
X16995683Y-1792918D01*
X16995626Y-1793348D01*
X16969285Y-1848573D01*
X16910396Y-1878579D01*
X16837349Y-1888196D01*
X16837347Y-1888197D01*
X16830918Y-1889043D01*
X16697002Y-1944512D01*
X16582006Y-2032752D01*
X16493766Y-2147748D01*
X16438297Y-2281664D01*
X16437451Y-2288093D01*
X16437450Y-2288095D01*
X16427174Y-2366153D01*
X16419377Y-2425373D01*
X16420224Y-2431806D01*
X16436377Y-2554496D01*
X16438297Y-2569082D01*
X16493766Y-2702998D01*
X16497717Y-2708147D01*
X16578669Y-2813645D01*
X16599127Y-2873913D01*
X16599127Y-3422478D01*
X16580220Y-3480669D01*
X16530720Y-3516633D01*
X16469534Y-3516633D01*
X16418652Y-3478716D01*
X16343890Y-3370404D01*
X16343884Y-3370397D01*
X16340483Y-3365470D01*
X16281361Y-3313093D01*
X16226723Y-3264688D01*
X16226720Y-3264686D01*
X16222240Y-3260717D01*
X16216941Y-3257936D01*
X16216937Y-3257933D01*
X16150043Y-3222825D01*
X16082365Y-3187304D01*
X16075804Y-3185687D01*
X16075398Y-3185435D01*
X16070953Y-3183749D01*
X16071283Y-3182878D01*
X16023832Y-3153403D01*
X16000760Y-3096735D01*
X16000500Y-3089565D01*
X16000500Y-1803333D01*
X16019407Y-1745142D01*
X16029496Y-1733329D01*
X17131428Y-631397D01*
X17133859Y-629048D01*
X17176098Y-589600D01*
X17176100Y-589597D01*
X17181044Y-584980D01*
X17184561Y-579197D01*
X17184564Y-579193D01*
X17203059Y-548780D01*
X17208762Y-540400D01*
X17230271Y-512036D01*
X17230272Y-512034D01*
X17234361Y-506642D01*
X17241727Y-487961D01*
X17249237Y-472841D01*
X17256154Y-461467D01*
X17259672Y-455682D01*
X17271103Y-414885D01*
X17274334Y-405277D01*
X17287393Y-372161D01*
X17287393Y-372160D01*
X17289876Y-365864D01*
X17291930Y-345889D01*
X17295082Y-329302D01*
X17298673Y-316487D01*
X17298673Y-316484D01*
X17300500Y-309965D01*
X17300500Y-267600D01*
X17301019Y-257476D01*
X17304660Y-222063D01*
X17304660Y-222060D01*
X17305352Y-215328D01*
X17301940Y-195539D01*
X17300500Y-178718D01*
X17300500Y2307432D01*
X17301347Y2320354D01*
X17304403Y2343566D01*
X17304403Y2343567D01*
X17305250Y2350000D01*
X17304403Y2356435D01*
X17302802Y2368596D01*
X17302013Y2384898D01*
X17302531Y2400056D01*
X17302531Y2400058D01*
X17302762Y2406826D01*
X17293170Y2446190D01*
X17291202Y2456704D01*
X17286786Y2490248D01*
X17286785Y2490253D01*
X17286330Y2493709D01*
X17285722Y2495177D01*
X17285070Y2499920D01*
X17282373Y2506130D01*
X17277068Y2518344D01*
X17271687Y2534344D01*
X17268536Y2547272D01*
X17266933Y2553852D01*
X17248895Y2585932D01*
X17243725Y2596569D01*
X17233346Y2621626D01*
X17233345Y2621628D01*
X17230861Y2627625D01*
X17228635Y2630525D01*
X17228399Y2630994D01*
X17227477Y2632511D01*
X17224780Y2638720D01*
X17212104Y2654301D01*
X17202606Y2668257D01*
X17196085Y2679854D01*
X17192765Y2685759D01*
X17169365Y2709160D01*
X17160829Y2718893D01*
X17146573Y2737471D01*
X17142621Y2742621D01*
X17137869Y2746267D01*
X17134683Y2749798D01*
X17133553Y2750853D01*
X17129278Y2756108D01*
X17112870Y2767691D01*
X17099960Y2778565D01*
X16397083Y3481441D01*
X16394734Y3483873D01*
X16355301Y3526096D01*
X16350680Y3531044D01*
X16344897Y3534561D01*
X16344893Y3534564D01*
X16314480Y3553059D01*
X16306100Y3558762D01*
X16277736Y3580271D01*
X16277734Y3580272D01*
X16272342Y3584361D01*
X16266048Y3586843D01*
X16266046Y3586844D01*
X16253662Y3591727D01*
X16238541Y3599237D01*
X16227167Y3606154D01*
X16221382Y3609672D01*
X16206191Y3613928D01*
X16180585Y3621103D01*
X16170977Y3624334D01*
X16137861Y3637393D01*
X16137860Y3637393D01*
X16131564Y3639876D01*
X16111589Y3641930D01*
X16095002Y3645082D01*
X16082187Y3648673D01*
X16082184Y3648673D01*
X16075665Y3650500D01*
X16033300Y3650500D01*
X16023176Y3651019D01*
X15987763Y3654660D01*
X15987760Y3654660D01*
X15981028Y3655352D01*
X15961239Y3651940D01*
X15944418Y3650500D01*
X3325270Y3650500D01*
X3279262Y3661840D01*
X3187668Y3709913D01*
X3187666Y3709914D01*
X3182365Y3712696D01*
X3176553Y3714129D01*
X3176549Y3714130D01*
X3034801Y3749067D01*
X3034797Y3749067D01*
X3028985Y3750500D01*
X2871015Y3750500D01*
X2865203Y3749067D01*
X2865199Y3749067D01*
X2723451Y3714130D01*
X2723447Y3714129D01*
X2717635Y3712696D01*
X2712334Y3709914D01*
X2712332Y3709913D01*
X2583063Y3642067D01*
X2583059Y3642064D01*
X2577760Y3639283D01*
X2573280Y3635314D01*
X2573277Y3635312D01*
X2532557Y3599237D01*
X2459517Y3534530D01*
X2369780Y3404523D01*
X2313763Y3256818D01*
X2294722Y3100000D01*
X2313763Y2943182D01*
X2369780Y2795477D01*
X2373179Y2790552D01*
X2373180Y2790551D01*
X2396954Y2756108D01*
X2459517Y2665470D01*
X2489712Y2638720D01*
X2573277Y2564688D01*
X2573280Y2564686D01*
X2577760Y2560717D01*
X2583059Y2557936D01*
X2583063Y2557933D01*
X2712332Y2490087D01*
X2712334Y2490086D01*
X2717635Y2487304D01*
X2723447Y2485871D01*
X2723451Y2485870D01*
X2865199Y2450933D01*
X2865203Y2450933D01*
X2871015Y2449500D01*
X3028985Y2449500D01*
X3034797Y2450933D01*
X3034801Y2450933D01*
X3176549Y2485870D01*
X3176553Y2485871D01*
X3182365Y2487304D01*
X3187666Y2490086D01*
X3187668Y2490087D01*
X3279262Y2538160D01*
X3325270Y2549500D01*
X15730968Y2549500D01*
X15789159Y2530593D01*
X15800971Y2520504D01*
X16170503Y2150973D01*
X16198281Y2096456D01*
X16199500Y2080969D01*
X16199500Y34733D01*
X16180593Y-23458D01*
X16170504Y-35271D01*
X15068572Y-1137203D01*
X15066141Y-1139552D01*
X15023902Y-1179000D01*
X15023900Y-1179003D01*
X15018956Y-1183620D01*
X15015439Y-1189403D01*
X15015436Y-1189407D01*
X14996941Y-1219820D01*
X14991238Y-1228200D01*
X14974172Y-1250706D01*
X14965639Y-1261958D01*
X14963157Y-1268252D01*
X14963156Y-1268254D01*
X14958273Y-1280638D01*
X14950763Y-1295759D01*
X14940328Y-1312918D01*
X14938501Y-1319439D01*
X14928897Y-1353715D01*
X14925666Y-1363323D01*
X14910124Y-1402736D01*
X14908071Y-1422708D01*
X14904918Y-1439298D01*
X14899500Y-1458635D01*
X14899500Y-1501000D01*
X14898981Y-1511124D01*
X14894648Y-1553272D01*
X14895799Y-1559946D01*
X14898060Y-1573061D01*
X14899500Y-1589882D01*
X14899500Y-3388921D01*
X14899442Y-3392301D01*
X14897238Y-3456826D01*
X14898842Y-3463408D01*
X14907266Y-3497978D01*
X14909159Y-3507936D01*
X14914930Y-3549920D01*
X14917628Y-3556131D01*
X14917629Y-3556135D01*
X14922932Y-3568344D01*
X14928313Y-3584344D01*
X14933067Y-3603852D01*
X14936383Y-3609750D01*
X14936384Y-3609752D01*
X14953833Y-3640786D01*
X14958341Y-3649860D01*
X14975220Y-3688720D01*
X14979493Y-3693972D01*
X14987891Y-3704295D01*
X14997388Y-3718249D01*
X15007234Y-3735759D01*
X15011291Y-3739816D01*
X15031239Y-3797178D01*
X15013529Y-3855744D01*
X15002264Y-3869212D01*
X14391705Y-4479770D01*
X13800971Y-5070504D01*
X13746454Y-5098281D01*
X13730967Y-5099500D01*
X11961096Y-5099500D01*
X11957716Y-5099442D01*
X11899943Y-5097468D01*
X11899941Y-5097468D01*
X11893174Y-5097237D01*
X11886598Y-5098840D01*
X11886594Y-5098840D01*
X11852012Y-5107268D01*
X11842054Y-5109161D01*
X11800080Y-5114930D01*
X11781657Y-5122933D01*
X11765660Y-5128312D01*
X11746148Y-5133067D01*
X11740248Y-5136385D01*
X11740244Y-5136386D01*
X11709214Y-5153833D01*
X11700140Y-5158341D01*
X11661280Y-5175220D01*
X11648826Y-5185352D01*
X11645705Y-5187891D01*
X11631751Y-5197388D01*
X11625962Y-5200643D01*
X11620141Y-5203916D01*
X11620139Y-5203918D01*
X11614241Y-5207234D01*
X11584276Y-5237199D01*
X11576750Y-5243990D01*
X11543892Y-5270722D01*
X11539988Y-5276253D01*
X11539260Y-5277284D01*
X11518652Y-5298728D01*
X11512535Y-5303422D01*
X11512532Y-5303425D01*
X11507379Y-5307379D01*
X11503425Y-5312532D01*
X11485921Y-5335344D01*
X11484975Y-5336500D01*
X11484109Y-5337366D01*
X11481016Y-5341445D01*
X11462399Y-5365995D01*
X11462058Y-5366441D01*
X11441768Y-5392885D01*
X11419139Y-5422375D01*
X11418530Y-5423846D01*
X11415639Y-5427658D01*
X11413155Y-5433957D01*
X11389896Y-5492939D01*
X11389266Y-5494496D01*
X11363670Y-5556291D01*
X11363193Y-5559915D01*
X11363029Y-5560412D01*
X11362609Y-5562134D01*
X11360124Y-5568436D01*
X11359432Y-5575172D01*
X11359431Y-5575174D01*
X11353330Y-5634523D01*
X11353002Y-5637322D01*
X11344750Y-5700000D01*
X11345532Y-5705938D01*
X11345288Y-5710697D01*
X11345341Y-5712236D01*
X11344648Y-5718972D01*
X11355308Y-5780798D01*
X11355900Y-5784694D01*
X11363670Y-5843709D01*
X11366152Y-5849703D01*
X11367832Y-5855972D01*
X11367506Y-5856059D01*
X11369209Y-5861424D01*
X11370360Y-5868100D01*
X11373269Y-5874216D01*
X11395724Y-5921434D01*
X11397780Y-5926060D01*
X11419139Y-5977625D01*
X11423090Y-5982773D01*
X11426335Y-5988395D01*
X11426237Y-5988452D01*
X11432333Y-5998413D01*
X11432442Y-5998643D01*
X11432446Y-5998649D01*
X11435353Y-6004762D01*
X11439804Y-6009866D01*
X11471730Y-6046480D01*
X11475650Y-6051271D01*
X11507379Y-6092621D01*
X11512524Y-6096569D01*
X11513383Y-6097228D01*
X11527730Y-6110704D01*
X11534808Y-6118821D01*
X11540466Y-6122532D01*
X11540474Y-6122539D01*
X11577992Y-6147146D01*
X11583954Y-6151379D01*
X11622375Y-6180861D01*
X11628374Y-6183346D01*
X11628376Y-6183347D01*
X11632821Y-6185189D01*
X11649227Y-6193868D01*
X11655682Y-6198102D01*
X11655686Y-6198104D01*
X11661347Y-6201817D01*
X11687960Y-6210264D01*
X11707029Y-6216316D01*
X11714965Y-6219213D01*
X11750291Y-6233845D01*
X11750293Y-6233846D01*
X11756291Y-6236330D01*
X11771188Y-6238291D01*
X11788208Y-6242081D01*
X11805584Y-6247596D01*
X11849781Y-6249105D01*
X11859315Y-6249893D01*
X11900000Y-6255250D01*
X11906433Y-6254403D01*
X11906435Y-6254403D01*
X11918596Y-6252802D01*
X11934898Y-6252013D01*
X11950056Y-6252531D01*
X11950058Y-6252531D01*
X11956826Y-6252762D01*
X11996190Y-6243170D01*
X12006701Y-6241202D01*
X12043709Y-6236330D01*
X12064472Y-6227730D01*
X12078918Y-6223009D01*
X12103852Y-6216933D01*
X12110479Y-6213207D01*
X12111393Y-6212967D01*
X12116055Y-6211129D01*
X12116276Y-6211689D01*
X12159001Y-6200500D01*
X13350500Y-6200500D01*
X13408691Y-6219407D01*
X13444655Y-6268907D01*
X13449500Y-6299500D01*
X13449500Y-7888921D01*
X13449442Y-7892301D01*
X13447238Y-7956826D01*
X13448842Y-7963408D01*
X13457266Y-7997978D01*
X13459159Y-8007936D01*
X13464930Y-8049920D01*
X13467628Y-8056131D01*
X13467629Y-8056135D01*
X13472932Y-8068344D01*
X13478313Y-8084344D01*
X13483067Y-8103852D01*
X13486383Y-8109750D01*
X13486384Y-8109752D01*
X13503833Y-8140786D01*
X13508341Y-8149860D01*
X13525220Y-8188720D01*
X13529493Y-8193972D01*
X13537891Y-8204295D01*
X13547388Y-8218249D01*
X13557234Y-8235759D01*
X13587199Y-8265724D01*
X13593990Y-8273250D01*
X13620722Y-8306108D01*
X13626253Y-8310012D01*
X13637123Y-8317685D01*
X13650036Y-8328561D01*
X13780643Y-8459168D01*
X13789175Y-8468897D01*
X13807379Y-8492621D01*
X13825501Y-8506526D01*
X13835344Y-8514079D01*
X13836500Y-8515025D01*
X13837366Y-8515891D01*
X13866060Y-8537651D01*
X13866441Y-8537942D01*
X13922375Y-8580861D01*
X13923846Y-8581470D01*
X13927658Y-8584361D01*
X13933957Y-8586845D01*
X13992939Y-8610104D01*
X13994506Y-8610738D01*
X14050298Y-8633848D01*
X14050300Y-8633849D01*
X14056291Y-8636330D01*
X14059915Y-8636807D01*
X14060412Y-8636971D01*
X14062134Y-8637391D01*
X14068436Y-8639876D01*
X14075172Y-8640568D01*
X14075174Y-8640569D01*
X14134523Y-8646670D01*
X14137322Y-8646998D01*
X14190931Y-8654056D01*
X14200000Y-8655250D01*
X14205938Y-8654468D01*
X14210701Y-8654712D01*
X14212237Y-8654660D01*
X14218972Y-8655352D01*
X14226583Y-8654040D01*
X14280826Y-8644688D01*
X14284713Y-8644097D01*
X14287790Y-8643692D01*
X14347950Y-8654841D01*
X14390069Y-8699222D01*
X14398057Y-8759884D01*
X14370718Y-8811849D01*
X12687062Y-10495504D01*
X12632545Y-10523281D01*
X12617058Y-10524500D01*
X11849212Y-10524500D01*
X11828896Y-10522393D01*
X11823759Y-10521316D01*
X11823758Y-10521316D01*
X11815732Y-10519633D01*
X11807597Y-10520647D01*
X11807595Y-10520647D01*
X11782783Y-10523740D01*
X11777055Y-10524095D01*
X11777061Y-10524162D01*
X11772982Y-10524500D01*
X11768886Y-10524500D01*
X11747870Y-10528007D01*
X11743848Y-10528593D01*
X11729711Y-10530355D01*
X11699513Y-10534119D01*
X11699511Y-10534120D01*
X11691374Y-10535134D01*
X11684235Y-10538624D01*
X11684222Y-10538628D01*
X11676390Y-10539935D01*
X11669178Y-10543838D01*
X11669175Y-10543839D01*
X11629928Y-10565078D01*
X11626292Y-10566950D01*
X11586159Y-10586570D01*
X11586154Y-10586573D01*
X11578789Y-10590174D01*
X11573171Y-10595792D01*
X11573160Y-10595801D01*
X11566174Y-10599581D01*
X11530371Y-10638472D01*
X11527564Y-10641398D01*
X10819273Y-11349689D01*
X10803417Y-11362564D01*
X10792164Y-11369916D01*
X10787127Y-11376388D01*
X10771778Y-11396108D01*
X10767973Y-11400417D01*
X10768023Y-11400460D01*
X10765372Y-11403590D01*
X10762480Y-11406482D01*
X10760104Y-11409810D01*
X10760103Y-11409811D01*
X10750090Y-11423835D01*
X10747646Y-11427112D01*
X10715191Y-11468811D01*
X10712611Y-11476326D01*
X10712606Y-11476335D01*
X10707990Y-11482801D01*
X10692905Y-11533472D01*
X10691677Y-11537306D01*
X10674500Y-11587340D01*
X10674500Y-11595294D01*
X10672232Y-11602912D01*
X10672571Y-11611111D01*
X10672571Y-11611112D01*
X10674415Y-11655702D01*
X10674500Y-11659792D01*
X10674500Y-12800788D01*
X10672393Y-12821104D01*
X10669633Y-12834268D01*
X10670647Y-12842403D01*
X10670647Y-12842405D01*
X10673740Y-12867217D01*
X10674095Y-12872945D01*
X10674162Y-12872939D01*
X10674500Y-12877018D01*
X10674500Y-12881114D01*
X10675174Y-12885152D01*
X10678004Y-12902113D01*
X10678593Y-12906152D01*
X10685134Y-12958626D01*
X10688624Y-12965765D01*
X10688628Y-12965778D01*
X10689935Y-12973610D01*
X10693838Y-12980822D01*
X10693839Y-12980825D01*
X10715078Y-13020072D01*
X10716950Y-13023708D01*
X10736570Y-13063841D01*
X10736573Y-13063846D01*
X10740174Y-13071211D01*
X10745792Y-13076829D01*
X10745800Y-13076840D01*
X10749581Y-13083826D01*
X10755616Y-13089382D01*
X10755617Y-13089383D01*
X10788448Y-13119606D01*
X10791401Y-13122438D01*
X11617317Y-13948354D01*
X11645466Y-14005435D01*
X11663670Y-14143709D01*
X11719139Y-14277625D01*
X11807379Y-14392621D01*
X11922375Y-14480861D01*
X12056291Y-14536330D01*
X12062720Y-14537176D01*
X12062722Y-14537177D01*
X12193567Y-14554403D01*
X12200000Y-14555250D01*
X12206433Y-14554403D01*
X12337278Y-14537177D01*
X12337280Y-14537176D01*
X12343709Y-14536330D01*
X12477625Y-14480861D01*
X12592621Y-14392621D01*
X12680861Y-14277625D01*
X12736330Y-14143709D01*
X12755250Y-14000000D01*
X12736330Y-13856291D01*
X12680861Y-13722375D01*
X12676910Y-13717225D01*
X12676907Y-13717221D01*
X12638085Y-13666628D01*
X12617660Y-13608952D01*
X12638084Y-13546092D01*
X12718859Y-13440825D01*
X12722810Y-13435676D01*
X12778279Y-13301760D01*
X12797199Y-13158051D01*
X12786720Y-13078454D01*
X12779126Y-13020773D01*
X12779125Y-13020771D01*
X12778279Y-13014342D01*
X12722810Y-12880426D01*
X12634570Y-12765430D01*
X12629421Y-12761479D01*
X12629416Y-12761474D01*
X12618426Y-12753041D01*
X12583771Y-12702617D01*
X12585373Y-12641452D01*
X12622621Y-12592911D01*
X12678694Y-12575500D01*
X12750788Y-12575500D01*
X12771104Y-12577607D01*
X12776241Y-12578684D01*
X12776242Y-12578684D01*
X12784268Y-12580367D01*
X12792403Y-12579353D01*
X12792405Y-12579353D01*
X12817217Y-12576260D01*
X12822945Y-12575905D01*
X12822939Y-12575838D01*
X12827018Y-12575500D01*
X12831114Y-12575500D01*
X12852130Y-12571993D01*
X12856152Y-12571407D01*
X12870289Y-12569645D01*
X12900487Y-12565881D01*
X12900489Y-12565880D01*
X12908626Y-12564866D01*
X12915765Y-12561376D01*
X12915778Y-12561372D01*
X12923610Y-12560065D01*
X12930822Y-12556162D01*
X12930825Y-12556161D01*
X12970072Y-12534922D01*
X12973708Y-12533050D01*
X13013841Y-12513430D01*
X13013846Y-12513427D01*
X13021211Y-12509826D01*
X13026829Y-12504208D01*
X13026840Y-12504200D01*
X13033826Y-12500419D01*
X13069606Y-12461552D01*
X13072438Y-12458599D01*
X16080724Y-9450313D01*
X16096580Y-9437438D01*
X16096947Y-9437198D01*
X16107836Y-9430084D01*
X16112872Y-9423614D01*
X16112874Y-9423612D01*
X16128226Y-9403887D01*
X16132026Y-9399583D01*
X16131976Y-9399541D01*
X16134630Y-9396407D01*
X16137519Y-9393518D01*
X16149905Y-9376170D01*
X16152350Y-9372893D01*
X16179770Y-9337663D01*
X16184809Y-9331189D01*
X16187390Y-9323672D01*
X16187393Y-9323666D01*
X16192010Y-9317199D01*
X16207100Y-9266512D01*
X16208324Y-9262691D01*
X16225500Y-9212660D01*
X16225500Y-9204707D01*
X16227768Y-9197089D01*
X16225585Y-9144299D01*
X16225500Y-9140209D01*
X16225500Y-8596545D01*
X16244407Y-8538354D01*
X16254496Y-8526541D01*
X16580496Y-8200541D01*
X16635013Y-8172764D01*
X16695445Y-8182335D01*
X16738710Y-8225600D01*
X16749500Y-8270545D01*
X16749500Y-15995140D01*
X16749023Y-16004843D01*
X16736055Y-16136515D01*
X16732270Y-16155546D01*
X16732268Y-16155553D01*
X16695278Y-16277492D01*
X16687851Y-16295421D01*
X16627784Y-16407798D01*
X16617002Y-16423934D01*
X16536163Y-16522438D01*
X16522443Y-16536159D01*
X16462559Y-16585305D01*
X16423937Y-16617001D01*
X16407800Y-16627783D01*
X16295423Y-16687850D01*
X16277495Y-16695277D01*
X16155548Y-16732269D01*
X16136520Y-16736054D01*
X16022913Y-16747243D01*
X16004875Y-16749020D01*
X15995171Y-16749497D01*
X15955832Y-16749497D01*
X15955827Y-16749499D01*
X15955815Y-16749500D01*
X7504860Y-16749500D01*
X7495157Y-16749023D01*
X7481292Y-16747657D01*
X7363483Y-16736055D01*
X7344454Y-16732270D01*
X7222507Y-16695278D01*
X7204579Y-16687851D01*
X7092202Y-16627784D01*
X7076066Y-16617002D01*
X6977562Y-16536163D01*
X6963841Y-16522443D01*
X6882999Y-16423937D01*
X6872217Y-16407800D01*
X6812150Y-16295423D01*
X6804723Y-16277494D01*
X6804722Y-16277492D01*
X6767731Y-16155548D01*
X6763946Y-16136518D01*
X6750980Y-16004875D01*
X6750503Y-15995171D01*
X6750503Y-15955832D01*
X6750501Y-15955827D01*
X6750500Y-15955815D01*
X6750500Y-5901580D01*
X6719708Y-5707171D01*
X6710757Y-5679623D01*
X6660083Y-5523664D01*
X6660081Y-5523660D01*
X6658883Y-5519972D01*
X6657120Y-5516513D01*
X6657118Y-5516507D01*
X6571292Y-5348066D01*
X6571290Y-5348062D01*
X6569522Y-5344593D01*
X6546229Y-5312532D01*
X6456112Y-5188497D01*
X6453827Y-5185352D01*
X6314645Y-5046171D01*
X6187547Y-4953829D01*
X6158551Y-4932762D01*
X6158547Y-4932760D01*
X6155404Y-4930476D01*
X6086915Y-4895579D01*
X5983492Y-4842882D01*
X5983487Y-4842880D01*
X5980025Y-4841116D01*
X5911452Y-4818835D01*
X5796526Y-4781493D01*
X5796524Y-4781492D01*
X5792826Y-4780291D01*
X5695621Y-4764896D01*
X5602262Y-4750109D01*
X5602260Y-4750109D01*
X5598416Y-4749500D01*
X-9995140Y-4749500D01*
X-10004843Y-4749023D01*
X-10018708Y-4747657D01*
X-10136517Y-4736055D01*
X-10155546Y-4732270D01*
X-10277491Y-4695278D01*
X-10295420Y-4687851D01*
X-10407798Y-4627784D01*
X-10423934Y-4617003D01*
X-10469234Y-4579827D01*
X-10522441Y-4536161D01*
X-10536158Y-4522444D01*
X-10617000Y-4423937D01*
X-10627781Y-4407801D01*
X-10687848Y-4295423D01*
X-10695275Y-4277494D01*
X-10732267Y-4155549D01*
X-10736052Y-4136518D01*
X-10737933Y-4117413D01*
X-10749020Y-4004846D01*
X-10749497Y-3995143D01*
X-10749497Y-3955833D01*
X-10749499Y-3955828D01*
X-10749500Y-3955816D01*
X-10749500Y-2950000D01*
X-2905250Y-2950000D01*
X-2904403Y-2956433D01*
X-2893759Y-3037278D01*
X-2886330Y-3093709D01*
X-2830861Y-3227625D01*
X-2742621Y-3342621D01*
X-2627625Y-3430861D01*
X-2493709Y-3486330D01*
X-2487280Y-3487176D01*
X-2487278Y-3487177D01*
X-2424232Y-3495477D01*
X-2355435Y-3504534D01*
X-2298354Y-3532683D01*
X-1450313Y-4380724D01*
X-1437438Y-4396580D01*
X-1430084Y-4407836D01*
X-1423614Y-4412872D01*
X-1423612Y-4412874D01*
X-1403887Y-4428226D01*
X-1399583Y-4432026D01*
X-1399541Y-4431976D01*
X-1396407Y-4434630D01*
X-1393518Y-4437519D01*
X-1376171Y-4449905D01*
X-1372893Y-4452350D01*
X-1331189Y-4484809D01*
X-1323672Y-4487390D01*
X-1323666Y-4487393D01*
X-1317199Y-4492010D01*
X-1266512Y-4507100D01*
X-1262691Y-4508324D01*
X-1212660Y-4525500D01*
X-1204710Y-4525500D01*
X-1204704Y-4525501D01*
X-1197089Y-4527768D01*
X-1188890Y-4527429D01*
X-1188889Y-4527429D01*
X-1144299Y-4525585D01*
X-1140209Y-4525500D01*
X8200788Y-4525500D01*
X8221104Y-4527607D01*
X8226241Y-4528684D01*
X8226242Y-4528684D01*
X8234268Y-4530367D01*
X8242403Y-4529353D01*
X8242405Y-4529353D01*
X8267217Y-4526260D01*
X8272945Y-4525905D01*
X8272939Y-4525838D01*
X8277018Y-4525500D01*
X8281114Y-4525500D01*
X8302130Y-4521993D01*
X8306152Y-4521407D01*
X8320289Y-4519645D01*
X8350487Y-4515881D01*
X8350489Y-4515880D01*
X8358626Y-4514866D01*
X8365765Y-4511376D01*
X8365778Y-4511372D01*
X8373610Y-4510065D01*
X8380822Y-4506162D01*
X8380825Y-4506161D01*
X8420072Y-4484922D01*
X8423708Y-4483050D01*
X8463841Y-4463430D01*
X8463846Y-4463427D01*
X8471211Y-4459826D01*
X8476829Y-4454208D01*
X8476840Y-4454200D01*
X8483826Y-4450419D01*
X8495702Y-4437519D01*
X8519606Y-4411552D01*
X8522438Y-4408599D01*
X9448355Y-3482683D01*
X9505436Y-3454534D01*
X9554217Y-3448112D01*
X9637278Y-3437177D01*
X9637280Y-3437176D01*
X9643709Y-3436330D01*
X9759668Y-3388299D01*
X9820663Y-3383498D01*
X9872832Y-3415468D01*
X9896247Y-3471996D01*
X9895705Y-3492682D01*
X9895588Y-3493571D01*
X9895588Y-3493576D01*
X9894741Y-3500009D01*
X9913661Y-3643718D01*
X9969130Y-3777634D01*
X10057370Y-3892630D01*
X10172366Y-3980870D01*
X10306282Y-4036339D01*
X10312711Y-4037185D01*
X10312713Y-4037186D01*
X10443558Y-4054412D01*
X10449991Y-4055259D01*
X10456424Y-4054412D01*
X10587269Y-4037186D01*
X10587271Y-4037185D01*
X10593700Y-4036339D01*
X10727616Y-3980870D01*
X10842612Y-3892630D01*
X10930852Y-3777634D01*
X10986321Y-3643718D01*
X11005241Y-3500009D01*
X10998977Y-3452433D01*
X10987168Y-3362731D01*
X10987167Y-3362729D01*
X10986321Y-3356300D01*
X10930852Y-3222384D01*
X10845958Y-3111748D01*
X10825500Y-3051481D01*
X10825500Y-2649212D01*
X10827607Y-2628896D01*
X10828684Y-2623759D01*
X10828684Y-2623758D01*
X10830367Y-2615732D01*
X10826260Y-2582783D01*
X10825905Y-2577055D01*
X10825838Y-2577061D01*
X10825500Y-2572982D01*
X10825500Y-2568886D01*
X10821993Y-2547870D01*
X10821406Y-2543839D01*
X10815881Y-2499513D01*
X10815880Y-2499511D01*
X10814866Y-2491374D01*
X10811376Y-2484235D01*
X10811372Y-2484222D01*
X10810065Y-2476390D01*
X10806162Y-2469178D01*
X10806161Y-2469175D01*
X10784922Y-2429928D01*
X10783050Y-2426292D01*
X10763430Y-2386159D01*
X10763427Y-2386154D01*
X10759826Y-2378789D01*
X10754208Y-2373171D01*
X10754200Y-2373160D01*
X10750419Y-2366174D01*
X10738553Y-2355250D01*
X10711541Y-2330384D01*
X10708588Y-2327551D01*
X10300313Y-1919275D01*
X10287438Y-1903420D01*
X10284570Y-1899031D01*
X10280084Y-1892164D01*
X10253892Y-1871778D01*
X10249583Y-1867973D01*
X10249540Y-1868023D01*
X10246410Y-1865372D01*
X10243518Y-1862480D01*
X10226165Y-1850090D01*
X10222888Y-1847646D01*
X10187661Y-1820228D01*
X10187660Y-1820227D01*
X10181189Y-1815191D01*
X10173674Y-1812611D01*
X10173665Y-1812606D01*
X10167199Y-1807990D01*
X10116528Y-1792905D01*
X10112694Y-1791677D01*
X10062660Y-1774500D01*
X10054705Y-1774500D01*
X10047088Y-1772232D01*
X10038889Y-1772571D01*
X10038888Y-1772571D01*
X9994298Y-1774415D01*
X9990208Y-1774500D01*
X8749212Y-1774500D01*
X8728896Y-1772393D01*
X8723759Y-1771316D01*
X8723758Y-1771316D01*
X8715732Y-1769633D01*
X8707597Y-1770647D01*
X8707595Y-1770647D01*
X8682783Y-1773740D01*
X8677055Y-1774095D01*
X8677061Y-1774162D01*
X8672982Y-1774500D01*
X8668886Y-1774500D01*
X8647870Y-1778007D01*
X8643848Y-1778593D01*
X8629711Y-1780355D01*
X8599513Y-1784119D01*
X8599511Y-1784120D01*
X8591374Y-1785134D01*
X8584235Y-1788624D01*
X8584222Y-1788628D01*
X8576390Y-1789935D01*
X8569178Y-1793838D01*
X8569175Y-1793839D01*
X8529928Y-1815078D01*
X8526292Y-1816950D01*
X8486159Y-1836570D01*
X8486154Y-1836573D01*
X8478789Y-1840174D01*
X8473171Y-1845792D01*
X8473160Y-1845801D01*
X8466174Y-1849581D01*
X8430371Y-1888472D01*
X8427564Y-1891398D01*
X7823458Y-2495504D01*
X7768941Y-2523281D01*
X7753454Y-2524500D01*
X2948540Y-2524500D01*
X2888272Y-2504042D01*
X2852236Y-2476390D01*
X2777625Y-2419139D01*
X2643709Y-2363670D01*
X2637280Y-2362824D01*
X2637278Y-2362823D01*
X2506433Y-2345597D01*
X2500000Y-2344750D01*
X2493567Y-2345597D01*
X2362722Y-2362823D01*
X2362720Y-2362824D01*
X2356291Y-2363670D01*
X2222375Y-2419139D01*
X2217226Y-2423090D01*
X2137549Y-2484229D01*
X2107379Y-2507379D01*
X2019139Y-2622375D01*
X1963670Y-2756291D01*
X1962824Y-2762720D01*
X1962823Y-2762722D01*
X1956119Y-2813645D01*
X1944750Y-2900000D01*
X1945597Y-2906433D01*
X1954150Y-2971395D01*
X1963670Y-3043709D01*
X2019139Y-3177625D01*
X2107379Y-3292621D01*
X2222375Y-3380861D01*
X2356291Y-3436330D01*
X2362720Y-3437176D01*
X2362722Y-3437177D01*
X2493567Y-3454403D01*
X2500000Y-3455250D01*
X2506433Y-3454403D01*
X2637278Y-3437177D01*
X2637280Y-3437176D01*
X2643709Y-3436330D01*
X2777625Y-3380861D01*
X2888272Y-3295958D01*
X2948540Y-3275500D01*
X7900788Y-3275500D01*
X7921104Y-3277607D01*
X7926241Y-3278684D01*
X7926242Y-3278684D01*
X7934268Y-3280367D01*
X7942403Y-3279353D01*
X7942405Y-3279353D01*
X7967217Y-3276260D01*
X7972945Y-3275905D01*
X7972939Y-3275838D01*
X7977018Y-3275500D01*
X7981114Y-3275500D01*
X8002130Y-3271993D01*
X8006152Y-3271407D01*
X8020289Y-3269645D01*
X8050487Y-3265881D01*
X8050489Y-3265880D01*
X8058626Y-3264866D01*
X8065765Y-3261376D01*
X8065778Y-3261372D01*
X8073610Y-3260065D01*
X8080822Y-3256162D01*
X8080825Y-3256161D01*
X8120072Y-3234922D01*
X8123708Y-3233050D01*
X8163841Y-3213430D01*
X8163846Y-3213427D01*
X8171211Y-3209826D01*
X8176829Y-3204208D01*
X8176840Y-3204200D01*
X8183826Y-3200419D01*
X8195900Y-3187304D01*
X8219606Y-3161552D01*
X8222438Y-3158599D01*
X8826541Y-2554496D01*
X8881058Y-2526719D01*
X8896545Y-2525500D01*
X8911103Y-2525500D01*
X8969294Y-2544407D01*
X9005258Y-2593907D01*
X9005258Y-2655093D01*
X9002574Y-2662367D01*
X8963670Y-2756291D01*
X8962824Y-2762720D01*
X8962823Y-2762722D01*
X8956119Y-2813645D01*
X8948185Y-2873913D01*
X8945466Y-2894564D01*
X8917317Y-2951646D01*
X8123458Y-3745504D01*
X8068941Y-3773281D01*
X8053454Y-3774500D01*
X-953455Y-3774500D01*
X-1011646Y-3755593D01*
X-1023459Y-3745504D01*
X-1767317Y-3001645D01*
X-1795466Y-2944563D01*
X-1812823Y-2812722D01*
X-1812824Y-2812720D01*
X-1813670Y-2806291D01*
X-1869139Y-2672375D01*
X-1957379Y-2557379D01*
X-2072375Y-2469139D01*
X-2206291Y-2413670D01*
X-2212720Y-2412824D01*
X-2212722Y-2412823D01*
X-2343567Y-2395597D01*
X-2350000Y-2394750D01*
X-2356433Y-2395597D01*
X-2487278Y-2412823D01*
X-2487280Y-2412824D01*
X-2493709Y-2413670D01*
X-2627625Y-2469139D01*
X-2742621Y-2557379D01*
X-2830861Y-2672375D01*
X-2886330Y-2806291D01*
X-2887176Y-2812720D01*
X-2887177Y-2812722D01*
X-2895233Y-2873913D01*
X-2905250Y-2950000D01*
X-10749500Y-2950000D01*
X-10749500Y3995143D01*
X-10749023Y4004847D01*
X-10736055Y4136516D01*
X-10732270Y4155546D01*
X-10695277Y4277494D01*
X-10687851Y4295420D01*
X-10627784Y4407798D01*
X-10617003Y4423934D01*
X-10570972Y4480024D01*
X-10536161Y4522441D01*
X-10522444Y4536158D01*
X-10423937Y4617000D01*
X-10407801Y4627781D01*
X-10295423Y4687848D01*
X-10277494Y4695275D01*
X-10277484Y4695278D01*
X-10155549Y4732267D01*
X-10136520Y4736052D01*
X-10004846Y4749020D01*
X-9995143Y4749497D01*
X-9955833Y4749497D01*
X-9955828Y4749499D01*
X-9955816Y4749500D01*
X18495140Y4749500D01*
X18504843Y4749023D01*
G37*
%TD.AperFunction*%
%TA.AperFunction,Conductor*%
G36*
X16578790Y-4117413D02*
G01*
X16599127Y-4177522D01*
X16599127Y-4632281D01*
X16580220Y-4690472D01*
X16530720Y-4726436D01*
X16513050Y-4730434D01*
X16478025Y-4735045D01*
X16389342Y-4746721D01*
X16255426Y-4802190D01*
X16140430Y-4890430D01*
X16052190Y-5005426D01*
X15996721Y-5139342D01*
X15995875Y-5145771D01*
X15995874Y-5145773D01*
X15981458Y-5255272D01*
X15977801Y-5283051D01*
X15978648Y-5289484D01*
X15995780Y-5419610D01*
X15996721Y-5426760D01*
X16052190Y-5560676D01*
X16140430Y-5675672D01*
X16145579Y-5679623D01*
X16250527Y-5760153D01*
X16285182Y-5810578D01*
X16283580Y-5871742D01*
X16260263Y-5908699D01*
X14719504Y-7449458D01*
X14664987Y-7477235D01*
X14604555Y-7467664D01*
X14561290Y-7424399D01*
X14550500Y-7379454D01*
X14550500Y-5919033D01*
X14569407Y-5860842D01*
X14579496Y-5849029D01*
X15974550Y-4453974D01*
X16020862Y-4427855D01*
X16076548Y-4414130D01*
X16076550Y-4414129D01*
X16082365Y-4412696D01*
X16087666Y-4409914D01*
X16087668Y-4409913D01*
X16216937Y-4342067D01*
X16216941Y-4342064D01*
X16222240Y-4339283D01*
X16226720Y-4335314D01*
X16226723Y-4335312D01*
X16291986Y-4277494D01*
X16340483Y-4234530D01*
X16343884Y-4229603D01*
X16343890Y-4229596D01*
X16418652Y-4121284D01*
X16467268Y-4084134D01*
X16528436Y-4082656D01*
X16578790Y-4117413D01*
G37*
%TD.AperFunction*%
%TD*%
M02*
