%TF.GenerationSoftware,KiCad,Pcbnew,6.99.0-1.20221101gitf80c150.fc36*%
%TF.CreationDate,2022-11-28T17:43:38+00:00*%
%TF.ProjectId,bugg-mic-r4,62756767-2d6d-4696-932d-72342e6b6963,rev?*%
%TF.SameCoordinates,Original*%
%TF.FileFunction,Legend,Top*%
%TF.FilePolarity,Positive*%
%FSLAX46Y46*%
G04 Gerber Fmt 4.6, Leading zero omitted, Abs format (unit mm)*
G04 Created by KiCad (PCBNEW 6.99.0-1.20221101gitf80c150.fc36) date 2022-11-28 17:43:38*
%MOMM*%
%LPD*%
G01*
G04 APERTURE LIST*
%ADD10C,0.150000*%
%ADD11C,0.120000*%
G04 APERTURE END LIST*
D10*
X13764285Y-6075904D02*
X14259523Y-6075904D01*
X14259523Y-6075904D02*
X13992857Y-6380666D01*
X13992857Y-6380666D02*
X14107142Y-6380666D01*
X14107142Y-6380666D02*
X14183333Y-6418761D01*
X14183333Y-6418761D02*
X14221428Y-6456857D01*
X14221428Y-6456857D02*
X14259523Y-6533047D01*
X14259523Y-6533047D02*
X14259523Y-6723523D01*
X14259523Y-6723523D02*
X14221428Y-6799714D01*
X14221428Y-6799714D02*
X14183333Y-6837809D01*
X14183333Y-6837809D02*
X14107142Y-6875904D01*
X14107142Y-6875904D02*
X13878571Y-6875904D01*
X13878571Y-6875904D02*
X13802380Y-6837809D01*
X13802380Y-6837809D02*
X13764285Y-6799714D01*
X14754762Y-6075904D02*
X14830952Y-6075904D01*
X14830952Y-6075904D02*
X14907143Y-6114000D01*
X14907143Y-6114000D02*
X14945238Y-6152095D01*
X14945238Y-6152095D02*
X14983333Y-6228285D01*
X14983333Y-6228285D02*
X15021428Y-6380666D01*
X15021428Y-6380666D02*
X15021428Y-6571142D01*
X15021428Y-6571142D02*
X14983333Y-6723523D01*
X14983333Y-6723523D02*
X14945238Y-6799714D01*
X14945238Y-6799714D02*
X14907143Y-6837809D01*
X14907143Y-6837809D02*
X14830952Y-6875904D01*
X14830952Y-6875904D02*
X14754762Y-6875904D01*
X14754762Y-6875904D02*
X14678571Y-6837809D01*
X14678571Y-6837809D02*
X14640476Y-6799714D01*
X14640476Y-6799714D02*
X14602381Y-6723523D01*
X14602381Y-6723523D02*
X14564285Y-6571142D01*
X14564285Y-6571142D02*
X14564285Y-6380666D01*
X14564285Y-6380666D02*
X14602381Y-6228285D01*
X14602381Y-6228285D02*
X14640476Y-6152095D01*
X14640476Y-6152095D02*
X14678571Y-6114000D01*
X14678571Y-6114000D02*
X14754762Y-6075904D01*
X15288095Y-6075904D02*
X15783333Y-6075904D01*
X15783333Y-6075904D02*
X15516667Y-6380666D01*
X15516667Y-6380666D02*
X15630952Y-6380666D01*
X15630952Y-6380666D02*
X15707143Y-6418761D01*
X15707143Y-6418761D02*
X15745238Y-6456857D01*
X15745238Y-6456857D02*
X15783333Y-6533047D01*
X15783333Y-6533047D02*
X15783333Y-6723523D01*
X15783333Y-6723523D02*
X15745238Y-6799714D01*
X15745238Y-6799714D02*
X15707143Y-6837809D01*
X15707143Y-6837809D02*
X15630952Y-6875904D01*
X15630952Y-6875904D02*
X15402381Y-6875904D01*
X15402381Y-6875904D02*
X15326190Y-6837809D01*
X15326190Y-6837809D02*
X15288095Y-6799714D01*
X7490476Y-12493904D02*
X7109524Y-12493904D01*
X7109524Y-12493904D02*
X7071428Y-12874857D01*
X7071428Y-12874857D02*
X7109524Y-12836761D01*
X7109524Y-12836761D02*
X7185714Y-12798666D01*
X7185714Y-12798666D02*
X7376190Y-12798666D01*
X7376190Y-12798666D02*
X7452381Y-12836761D01*
X7452381Y-12836761D02*
X7490476Y-12874857D01*
X7490476Y-12874857D02*
X7528571Y-12951047D01*
X7528571Y-12951047D02*
X7528571Y-13141523D01*
X7528571Y-13141523D02*
X7490476Y-13217714D01*
X7490476Y-13217714D02*
X7452381Y-13255809D01*
X7452381Y-13255809D02*
X7376190Y-13293904D01*
X7376190Y-13293904D02*
X7185714Y-13293904D01*
X7185714Y-13293904D02*
X7109524Y-13255809D01*
X7109524Y-13255809D02*
X7071428Y-13217714D01*
X7033333Y-14493904D02*
X7566667Y-14493904D01*
X7566667Y-14493904D02*
X7223809Y-15293904D01*
X6864285Y-4075904D02*
X7359523Y-4075904D01*
X7359523Y-4075904D02*
X7092857Y-4380666D01*
X7092857Y-4380666D02*
X7207142Y-4380666D01*
X7207142Y-4380666D02*
X7283333Y-4418761D01*
X7283333Y-4418761D02*
X7321428Y-4456857D01*
X7321428Y-4456857D02*
X7359523Y-4533047D01*
X7359523Y-4533047D02*
X7359523Y-4723523D01*
X7359523Y-4723523D02*
X7321428Y-4799714D01*
X7321428Y-4799714D02*
X7283333Y-4837809D01*
X7283333Y-4837809D02*
X7207142Y-4875904D01*
X7207142Y-4875904D02*
X6978571Y-4875904D01*
X6978571Y-4875904D02*
X6902380Y-4837809D01*
X6902380Y-4837809D02*
X6864285Y-4799714D01*
X7854762Y-4075904D02*
X7930952Y-4075904D01*
X7930952Y-4075904D02*
X8007143Y-4114000D01*
X8007143Y-4114000D02*
X8045238Y-4152095D01*
X8045238Y-4152095D02*
X8083333Y-4228285D01*
X8083333Y-4228285D02*
X8121428Y-4380666D01*
X8121428Y-4380666D02*
X8121428Y-4571142D01*
X8121428Y-4571142D02*
X8083333Y-4723523D01*
X8083333Y-4723523D02*
X8045238Y-4799714D01*
X8045238Y-4799714D02*
X8007143Y-4837809D01*
X8007143Y-4837809D02*
X7930952Y-4875904D01*
X7930952Y-4875904D02*
X7854762Y-4875904D01*
X7854762Y-4875904D02*
X7778571Y-4837809D01*
X7778571Y-4837809D02*
X7740476Y-4799714D01*
X7740476Y-4799714D02*
X7702381Y-4723523D01*
X7702381Y-4723523D02*
X7664285Y-4571142D01*
X7664285Y-4571142D02*
X7664285Y-4380666D01*
X7664285Y-4380666D02*
X7702381Y-4228285D01*
X7702381Y-4228285D02*
X7740476Y-4152095D01*
X7740476Y-4152095D02*
X7778571Y-4114000D01*
X7778571Y-4114000D02*
X7854762Y-4075904D01*
X8883333Y-4875904D02*
X8426190Y-4875904D01*
X8654762Y-4875904D02*
X8654762Y-4075904D01*
X8654762Y-4075904D02*
X8578571Y-4190190D01*
X8578571Y-4190190D02*
X8502381Y-4266380D01*
X8502381Y-4266380D02*
X8426190Y-4304476D01*
X6983333Y-10493904D02*
X7478571Y-10493904D01*
X7478571Y-10493904D02*
X7211905Y-10798666D01*
X7211905Y-10798666D02*
X7326190Y-10798666D01*
X7326190Y-10798666D02*
X7402381Y-10836761D01*
X7402381Y-10836761D02*
X7440476Y-10874857D01*
X7440476Y-10874857D02*
X7478571Y-10951047D01*
X7478571Y-10951047D02*
X7478571Y-11141523D01*
X7478571Y-11141523D02*
X7440476Y-11217714D01*
X7440476Y-11217714D02*
X7402381Y-11255809D01*
X7402381Y-11255809D02*
X7326190Y-11293904D01*
X7326190Y-11293904D02*
X7097619Y-11293904D01*
X7097619Y-11293904D02*
X7021428Y-11255809D01*
X7021428Y-11255809D02*
X6983333Y-11217714D01*
X6864285Y-6075904D02*
X7359523Y-6075904D01*
X7359523Y-6075904D02*
X7092857Y-6380666D01*
X7092857Y-6380666D02*
X7207142Y-6380666D01*
X7207142Y-6380666D02*
X7283333Y-6418761D01*
X7283333Y-6418761D02*
X7321428Y-6456857D01*
X7321428Y-6456857D02*
X7359523Y-6533047D01*
X7359523Y-6533047D02*
X7359523Y-6723523D01*
X7359523Y-6723523D02*
X7321428Y-6799714D01*
X7321428Y-6799714D02*
X7283333Y-6837809D01*
X7283333Y-6837809D02*
X7207142Y-6875904D01*
X7207142Y-6875904D02*
X6978571Y-6875904D01*
X6978571Y-6875904D02*
X6902380Y-6837809D01*
X6902380Y-6837809D02*
X6864285Y-6799714D01*
X7854762Y-6075904D02*
X7930952Y-6075904D01*
X7930952Y-6075904D02*
X8007143Y-6114000D01*
X8007143Y-6114000D02*
X8045238Y-6152095D01*
X8045238Y-6152095D02*
X8083333Y-6228285D01*
X8083333Y-6228285D02*
X8121428Y-6380666D01*
X8121428Y-6380666D02*
X8121428Y-6571142D01*
X8121428Y-6571142D02*
X8083333Y-6723523D01*
X8083333Y-6723523D02*
X8045238Y-6799714D01*
X8045238Y-6799714D02*
X8007143Y-6837809D01*
X8007143Y-6837809D02*
X7930952Y-6875904D01*
X7930952Y-6875904D02*
X7854762Y-6875904D01*
X7854762Y-6875904D02*
X7778571Y-6837809D01*
X7778571Y-6837809D02*
X7740476Y-6799714D01*
X7740476Y-6799714D02*
X7702381Y-6723523D01*
X7702381Y-6723523D02*
X7664285Y-6571142D01*
X7664285Y-6571142D02*
X7664285Y-6380666D01*
X7664285Y-6380666D02*
X7702381Y-6228285D01*
X7702381Y-6228285D02*
X7740476Y-6152095D01*
X7740476Y-6152095D02*
X7778571Y-6114000D01*
X7778571Y-6114000D02*
X7854762Y-6075904D01*
X8426190Y-6152095D02*
X8464286Y-6114000D01*
X8464286Y-6114000D02*
X8540476Y-6075904D01*
X8540476Y-6075904D02*
X8730952Y-6075904D01*
X8730952Y-6075904D02*
X8807143Y-6114000D01*
X8807143Y-6114000D02*
X8845238Y-6152095D01*
X8845238Y-6152095D02*
X8883333Y-6228285D01*
X8883333Y-6228285D02*
X8883333Y-6304476D01*
X8883333Y-6304476D02*
X8845238Y-6418761D01*
X8845238Y-6418761D02*
X8388095Y-6875904D01*
X8388095Y-6875904D02*
X8883333Y-6875904D01*
X7478571Y-9293904D02*
X7021428Y-9293904D01*
X7250000Y-9293904D02*
X7250000Y-8493904D01*
X7250000Y-8493904D02*
X7173809Y-8608190D01*
X7173809Y-8608190D02*
X7097619Y-8684380D01*
X7097619Y-8684380D02*
X7021428Y-8722476D01*
D11*
%TO.C,C303*%
X13160000Y3707836D02*
X13160000Y3492164D01*
X12440000Y3707836D02*
X12440000Y3492164D01*
%TO.C,C309*%
X17460000Y932836D02*
X17460000Y717164D01*
X16740000Y932836D02*
X16740000Y717164D01*
%TO.C,TP303*%
X17360284Y-6485377D02*
G75*
G03*
X17360284Y-6485377I-700000J0D01*
G01*
%TO.C,C304*%
X15670000Y3200580D02*
X15670000Y2919420D01*
X14650000Y3200580D02*
X14650000Y2919420D01*
%TO.C,C311*%
X17410000Y-3792164D02*
X17410000Y-4007836D01*
X16690000Y-3792164D02*
X16690000Y-4007836D01*
%TO.C,TP302*%
X10600000Y-6500000D02*
G75*
G03*
X10600000Y-6500000I-700000J0D01*
G01*
%TO.C,C310*%
X18910000Y-3709420D02*
X18910000Y-3990580D01*
X17890000Y-3709420D02*
X17890000Y-3990580D01*
%TO.C,C312*%
X12490000Y-5157836D02*
X12490000Y-4942164D01*
X13210000Y-5157836D02*
X13210000Y-4942164D01*
%TO.C,C307*%
X17120000Y3692836D02*
X17120000Y3477164D01*
X16400000Y3692836D02*
X16400000Y3477164D01*
%TO.C,R302*%
X1780000Y-2246359D02*
X1780000Y-2553641D01*
X1020000Y-2246359D02*
X1020000Y-2553641D01*
%TO.C,J301*%
X8685000Y-8240000D02*
X9940000Y-8240000D01*
X9940000Y-7940000D02*
X9940000Y-8240000D01*
X9940000Y-7940000D02*
X14060000Y-7940000D01*
X9940000Y-9760000D02*
X9940000Y-10240000D01*
X9940000Y-11760000D02*
X9940000Y-12240000D01*
X9940000Y-13760000D02*
X9940000Y-14240000D01*
X9940000Y-15760000D02*
X9940000Y-16060000D01*
X9940000Y-16060000D02*
X14060000Y-16060000D01*
X14060000Y-7940000D02*
X14060000Y-8240000D01*
X14060000Y-9760000D02*
X14060000Y-10240000D01*
X14060000Y-11760000D02*
X14060000Y-12240000D01*
X14060000Y-13760000D02*
X14060000Y-14240000D01*
X14060000Y-15760000D02*
X14060000Y-16060000D01*
%TO.C,R301*%
X-970000Y-2246359D02*
X-970000Y-2553641D01*
X-1730000Y-2246359D02*
X-1730000Y-2553641D01*
%TO.C,U301*%
X11490000Y710000D02*
X11940000Y710000D01*
X15710000Y260000D02*
X15710000Y710000D01*
X11490000Y260000D02*
X11490000Y710000D01*
X15710000Y-3060000D02*
X15710000Y-3510000D01*
X11490000Y-3060000D02*
X11490000Y-3510000D01*
X15710000Y-3510000D02*
X15260000Y-3510000D01*
X11490000Y-3510000D02*
X11940000Y-3510000D01*
%TO.C,C306*%
X18060000Y3692836D02*
X18060000Y3477164D01*
X17340000Y3692836D02*
X17340000Y3477164D01*
%TO.C,C302*%
X12060000Y3707836D02*
X12060000Y3492164D01*
X11340000Y3707836D02*
X11340000Y3492164D01*
%TO.C,MIC301*%
X-1440000Y-590000D02*
X-1440000Y-1090000D01*
X-940000Y2630000D02*
X-1440000Y2630000D01*
X-940000Y-1090000D02*
X-1440000Y-1090000D01*
X1440000Y2630000D02*
X940000Y2630000D01*
X1440000Y2630000D02*
X1440000Y2130000D01*
X1440000Y-590000D02*
X1440000Y-1090000D01*
X1440000Y-1090000D02*
X940000Y-1090000D01*
%TO.C,R303*%
X12172500Y-5362742D02*
X12172500Y-5837258D01*
X11127500Y-5362742D02*
X11127500Y-5837258D01*
%TO.C,TP301*%
X10600000Y-4450000D02*
G75*
G03*
X10600000Y-4450000I-700000J0D01*
G01*
%TO.C,C308*%
X18810000Y1265580D02*
X18810000Y984420D01*
X17790000Y1265580D02*
X17790000Y984420D01*
%TO.C,C305*%
X14285000Y3707836D02*
X14285000Y3492164D01*
X13565000Y3707836D02*
X13565000Y3492164D01*
%TO.C,C301*%
X107836Y3240000D02*
X-107836Y3240000D01*
X107836Y3960000D02*
X-107836Y3960000D01*
%TD*%
M02*
