%TF.GenerationSoftware,KiCad,Pcbnew,7.99.0-1.20230926git54171ec.fc37*%
%TF.CreationDate,2023-10-03T14:44:04+01:00*%
%TF.ProjectId,bugg-mic-r5,62756767-2d6d-4696-932d-72352e6b6963,rev?*%
%TF.SameCoordinates,Original*%
%TF.FileFunction,Soldermask,Top*%
%TF.FilePolarity,Negative*%
%FSLAX46Y46*%
G04 Gerber Fmt 4.6, Leading zero omitted, Abs format (unit mm)*
G04 Created by KiCad (PCBNEW 7.99.0-1.20230926git54171ec.fc37) date 2023-10-03 14:44:04*
%MOMM*%
%LPD*%
G01*
G04 APERTURE LIST*
G04 Aperture macros list*
%AMRoundRect*
0 Rectangle with rounded corners*
0 $1 Rounding radius*
0 $2 $3 $4 $5 $6 $7 $8 $9 X,Y pos of 4 corners*
0 Add a 4 corners polygon primitive as box body*
4,1,4,$2,$3,$4,$5,$6,$7,$8,$9,$2,$3,0*
0 Add four circle primitives for the rounded corners*
1,1,$1+$1,$2,$3*
1,1,$1+$1,$4,$5*
1,1,$1+$1,$6,$7*
1,1,$1+$1,$8,$9*
0 Add four rect primitives between the rounded corners*
20,1,$1+$1,$2,$3,$4,$5,0*
20,1,$1+$1,$4,$5,$6,$7,0*
20,1,$1+$1,$6,$7,$8,$9,0*
20,1,$1+$1,$8,$9,$2,$3,0*%
%AMFreePoly0*
4,1,111,-2.563245,3.679731,-2.180727,3.619146,-1.806637,3.518909,-1.445074,3.380118,-1.100000,3.204294,-0.775195,2.993363,-0.474217,2.749636,-0.200364,2.475783,0.043363,2.174805,0.254294,1.850000,0.430118,1.504926,0.568909,1.143363,0.669146,0.769273,0.729731,0.386755,0.750000,0.000000,0.729731,-0.386755,0.669146,-0.769273,0.568909,-1.143363,0.430118,-1.504926,0.254294,-1.850000,
0.043363,-2.174805,-0.200364,-2.475783,-0.474217,-2.749636,-0.775195,-2.993363,-1.100000,-3.204294,-1.445074,-3.380118,-1.806637,-3.518909,-2.180727,-3.619146,-2.563245,-3.679731,-2.950000,-3.700000,-3.336755,-3.679731,-3.719273,-3.619146,-4.093363,-3.518909,-4.454926,-3.380118,-4.800000,-3.204294,-5.124805,-2.993363,-5.425783,-2.749636,-5.699636,-2.475783,-5.943363,-2.174805,-6.154294,-1.850000,
-6.330118,-1.504926,-6.468909,-1.143363,-6.569146,-0.769273,-6.629731,-0.386755,-6.650000,0.000000,-5.254935,0.000000,-5.235216,-0.300854,-5.176396,-0.596561,-5.079482,-0.882060,-4.946132,-1.152468,-4.778628,-1.403156,-4.579835,-1.629835,-4.353156,-1.828628,-4.102468,-1.996132,-3.832060,-2.129482,-3.546561,-2.226396,-3.250854,-2.285216,-2.950000,-2.304935,-2.649146,-2.285216,-2.353439,-2.226396,
-2.067940,-2.129482,-1.797532,-1.996132,-1.546844,-1.828628,-1.320165,-1.629835,-1.121372,-1.403156,-0.953868,-1.152468,-0.820518,-0.882060,-0.723604,-0.596561,-0.664784,-0.300854,-0.645065,0.000000,-0.664784,0.300854,-0.723604,0.596561,-0.820518,0.882060,-0.953868,1.152467,-1.121372,1.403156,-1.320165,1.629835,-1.546844,1.828628,-1.797532,1.996132,-2.067940,2.129482,-2.353439,2.226396,
-2.649146,2.285216,-2.950000,2.304935,-3.250854,2.285216,-3.546561,2.226396,-3.832060,2.129482,-4.102467,1.996132,-4.353156,1.828628,-4.579835,1.629835,-4.778628,1.403156,-4.946132,1.152467,-5.079482,0.882060,-5.176396,0.596561,-5.235216,0.300854,-5.254935,0.000000,-6.650000,0.000000,-6.629731,0.386755,-6.569146,0.769273,-6.468909,1.143363,-6.330118,1.504926,-6.154294,1.850000,
-5.943363,2.174805,-5.699636,2.475783,-5.425783,2.749636,-5.124805,2.993363,-4.800000,3.204294,-4.454926,3.380118,-4.093363,3.518909,-3.719273,3.619146,-3.336755,3.679731,-2.950000,3.700000,-2.563245,3.679731,-2.563245,3.679731,$1*%
%AMFreePoly1*
4,1,53,0.180798,1.454629,0.352531,1.394537,0.506585,1.297738,0.635238,1.169085,0.732037,1.015031,0.792129,0.843298,0.812500,0.662500,0.792129,0.481702,0.732037,0.309969,0.635238,0.155915,0.506585,0.027262,0.352531,-0.069537,0.180798,-0.129629,0.000000,-0.150000,-0.180798,-0.129629,-0.352531,-0.069537,-0.506585,0.027262,-0.635238,0.155915,-0.732037,0.309969,-0.792129,0.481702,
-0.812500,0.662500,-0.517770,0.662500,-0.496797,0.516627,-0.435576,0.382572,-0.339067,0.271196,-0.215089,0.191520,-0.073686,0.150000,0.073686,0.150000,0.215089,0.191520,0.339067,0.271196,0.435576,0.382572,0.496797,0.516627,0.517770,0.662500,0.496797,0.808373,0.435576,0.942428,0.339067,1.053804,0.215089,1.133480,0.073686,1.175000,-0.073686,1.175000,-0.215089,1.133480,
-0.339067,1.053804,-0.435576,0.942428,-0.496797,0.808373,-0.517770,0.662500,-0.812500,0.662500,-0.792129,0.843298,-0.732037,1.015031,-0.635238,1.169085,-0.506585,1.297738,-0.352531,1.394537,-0.180798,1.454629,0.000000,1.475000,0.180798,1.454629,0.180798,1.454629,$1*%
G04 Aperture macros list end*
%ADD10C,0.150000*%
%ADD11RoundRect,0.140000X-0.170000X0.140000X-0.170000X-0.140000X0.170000X-0.140000X0.170000X0.140000X0*%
%ADD12C,1.000000*%
%ADD13RoundRect,0.225000X-0.250000X0.225000X-0.250000X-0.225000X0.250000X-0.225000X0.250000X0.225000X0*%
%ADD14RoundRect,0.140000X0.170000X-0.140000X0.170000X0.140000X-0.170000X0.140000X-0.170000X-0.140000X0*%
%ADD15C,4.400000*%
%ADD16FreePoly0,0.000000*%
%ADD17RoundRect,0.135000X-0.185000X0.135000X-0.185000X-0.135000X0.185000X-0.135000X0.185000X0.135000X0*%
%ADD18C,1.200000*%
%ADD19R,3.000000X1.000000*%
%ADD20RoundRect,0.075000X-0.075000X0.350000X-0.075000X-0.350000X0.075000X-0.350000X0.075000X0.350000X0*%
%ADD21RoundRect,0.075000X-0.350000X0.075000X-0.350000X-0.075000X0.350000X-0.075000X0.350000X0.075000X0*%
%ADD22R,2.650000X2.650000*%
%ADD23C,0.500000*%
%ADD24R,0.725000X0.522000*%
%ADD25FreePoly1,0.000000*%
%ADD26RoundRect,0.140000X0.140000X0.170000X-0.140000X0.170000X-0.140000X-0.170000X0.140000X-0.170000X0*%
G04 APERTURE END LIST*
D10*
X-3942857Y-4412295D02*
X-3942857Y-3612295D01*
X-3942857Y-3917057D02*
X-3866667Y-3878961D01*
X-3866667Y-3878961D02*
X-3714286Y-3878961D01*
X-3714286Y-3878961D02*
X-3638095Y-3917057D01*
X-3638095Y-3917057D02*
X-3600000Y-3955152D01*
X-3600000Y-3955152D02*
X-3561905Y-4031342D01*
X-3561905Y-4031342D02*
X-3561905Y-4259914D01*
X-3561905Y-4259914D02*
X-3600000Y-4336104D01*
X-3600000Y-4336104D02*
X-3638095Y-4374200D01*
X-3638095Y-4374200D02*
X-3714286Y-4412295D01*
X-3714286Y-4412295D02*
X-3866667Y-4412295D01*
X-3866667Y-4412295D02*
X-3942857Y-4374200D01*
X-2876190Y-3878961D02*
X-2876190Y-4412295D01*
X-3219047Y-3878961D02*
X-3219047Y-4298009D01*
X-3219047Y-4298009D02*
X-3180952Y-4374200D01*
X-3180952Y-4374200D02*
X-3104762Y-4412295D01*
X-3104762Y-4412295D02*
X-2990476Y-4412295D01*
X-2990476Y-4412295D02*
X-2914285Y-4374200D01*
X-2914285Y-4374200D02*
X-2876190Y-4336104D01*
X-2152380Y-3878961D02*
X-2152380Y-4526580D01*
X-2152380Y-4526580D02*
X-2190475Y-4602771D01*
X-2190475Y-4602771D02*
X-2228571Y-4640866D01*
X-2228571Y-4640866D02*
X-2304761Y-4678961D01*
X-2304761Y-4678961D02*
X-2419047Y-4678961D01*
X-2419047Y-4678961D02*
X-2495237Y-4640866D01*
X-2152380Y-4374200D02*
X-2228571Y-4412295D01*
X-2228571Y-4412295D02*
X-2380952Y-4412295D01*
X-2380952Y-4412295D02*
X-2457142Y-4374200D01*
X-2457142Y-4374200D02*
X-2495237Y-4336104D01*
X-2495237Y-4336104D02*
X-2533333Y-4259914D01*
X-2533333Y-4259914D02*
X-2533333Y-4031342D01*
X-2533333Y-4031342D02*
X-2495237Y-3955152D01*
X-2495237Y-3955152D02*
X-2457142Y-3917057D01*
X-2457142Y-3917057D02*
X-2380952Y-3878961D01*
X-2380952Y-3878961D02*
X-2228571Y-3878961D01*
X-2228571Y-3878961D02*
X-2152380Y-3917057D01*
X-1428570Y-3878961D02*
X-1428570Y-4526580D01*
X-1428570Y-4526580D02*
X-1466665Y-4602771D01*
X-1466665Y-4602771D02*
X-1504761Y-4640866D01*
X-1504761Y-4640866D02*
X-1580951Y-4678961D01*
X-1580951Y-4678961D02*
X-1695237Y-4678961D01*
X-1695237Y-4678961D02*
X-1771427Y-4640866D01*
X-1428570Y-4374200D02*
X-1504761Y-4412295D01*
X-1504761Y-4412295D02*
X-1657142Y-4412295D01*
X-1657142Y-4412295D02*
X-1733332Y-4374200D01*
X-1733332Y-4374200D02*
X-1771427Y-4336104D01*
X-1771427Y-4336104D02*
X-1809523Y-4259914D01*
X-1809523Y-4259914D02*
X-1809523Y-4031342D01*
X-1809523Y-4031342D02*
X-1771427Y-3955152D01*
X-1771427Y-3955152D02*
X-1733332Y-3917057D01*
X-1733332Y-3917057D02*
X-1657142Y-3878961D01*
X-1657142Y-3878961D02*
X-1504761Y-3878961D01*
X-1504761Y-3878961D02*
X-1428570Y-3917057D01*
X-1047617Y-4107533D02*
X-438094Y-4107533D01*
X-57141Y-4412295D02*
X-57141Y-3878961D01*
X-57141Y-3955152D02*
X-19046Y-3917057D01*
X-19046Y-3917057D02*
X57143Y-3878961D01*
X57143Y-3878961D02*
X171429Y-3878961D01*
X171429Y-3878961D02*
X247620Y-3917057D01*
X247620Y-3917057D02*
X285715Y-3993247D01*
X285715Y-3993247D02*
X285715Y-4412295D01*
X285715Y-3993247D02*
X323810Y-3917057D01*
X323810Y-3917057D02*
X400001Y-3878961D01*
X400001Y-3878961D02*
X514286Y-3878961D01*
X514286Y-3878961D02*
X590477Y-3917057D01*
X590477Y-3917057D02*
X628572Y-3993247D01*
X628572Y-3993247D02*
X628572Y-4412295D01*
X1009525Y-4412295D02*
X1009525Y-3878961D01*
X1009525Y-3612295D02*
X971429Y-3650390D01*
X971429Y-3650390D02*
X1009525Y-3688485D01*
X1009525Y-3688485D02*
X1047620Y-3650390D01*
X1047620Y-3650390D02*
X1009525Y-3612295D01*
X1009525Y-3612295D02*
X1009525Y-3688485D01*
X1733334Y-4374200D02*
X1657143Y-4412295D01*
X1657143Y-4412295D02*
X1504762Y-4412295D01*
X1504762Y-4412295D02*
X1428572Y-4374200D01*
X1428572Y-4374200D02*
X1390477Y-4336104D01*
X1390477Y-4336104D02*
X1352381Y-4259914D01*
X1352381Y-4259914D02*
X1352381Y-4031342D01*
X1352381Y-4031342D02*
X1390477Y-3955152D01*
X1390477Y-3955152D02*
X1428572Y-3917057D01*
X1428572Y-3917057D02*
X1504762Y-3878961D01*
X1504762Y-3878961D02*
X1657143Y-3878961D01*
X1657143Y-3878961D02*
X1733334Y-3917057D01*
X2076191Y-4107533D02*
X2685715Y-4107533D01*
X3066667Y-4412295D02*
X3066667Y-3878961D01*
X3066667Y-4031342D02*
X3104762Y-3955152D01*
X3104762Y-3955152D02*
X3142857Y-3917057D01*
X3142857Y-3917057D02*
X3219048Y-3878961D01*
X3219048Y-3878961D02*
X3295238Y-3878961D01*
X3942857Y-3612295D02*
X3561905Y-3612295D01*
X3561905Y-3612295D02*
X3523809Y-3993247D01*
X3523809Y-3993247D02*
X3561905Y-3955152D01*
X3561905Y-3955152D02*
X3638095Y-3917057D01*
X3638095Y-3917057D02*
X3828571Y-3917057D01*
X3828571Y-3917057D02*
X3904762Y-3955152D01*
X3904762Y-3955152D02*
X3942857Y-3993247D01*
X3942857Y-3993247D02*
X3980952Y-4069438D01*
X3980952Y-4069438D02*
X3980952Y-4259914D01*
X3980952Y-4259914D02*
X3942857Y-4336104D01*
X3942857Y-4336104D02*
X3904762Y-4374200D01*
X3904762Y-4374200D02*
X3828571Y-4412295D01*
X3828571Y-4412295D02*
X3638095Y-4412295D01*
X3638095Y-4412295D02*
X3561905Y-4374200D01*
X3561905Y-4374200D02*
X3523809Y-4336104D01*
D11*
%TO.C,C303*%
X12800000Y4080000D03*
X12800000Y3120000D03*
%TD*%
%TO.C,C309*%
X17100000Y1305000D03*
X17100000Y345000D03*
%TD*%
D12*
%TO.C,TP303*%
X16660284Y-6485377D03*
%TD*%
D13*
%TO.C,C304*%
X15160000Y3835000D03*
X15160000Y2285000D03*
%TD*%
D11*
%TO.C,C311*%
X17050000Y-3420000D03*
X17050000Y-4380000D03*
%TD*%
D12*
%TO.C,TP302*%
X9900000Y-6500000D03*
%TD*%
D13*
%TO.C,C310*%
X18400000Y-3075000D03*
X18400000Y-4625000D03*
%TD*%
D14*
%TO.C,C312*%
X12850000Y-5530000D03*
X12850000Y-4570000D03*
%TD*%
D11*
%TO.C,C307*%
X16760000Y4065000D03*
X16760000Y3105000D03*
%TD*%
D15*
%TO.C,SP302*%
X6000000Y0D03*
D16*
X8950000Y0D03*
%TD*%
D17*
%TO.C,R302*%
X1400000Y-1890000D03*
X1400000Y-2910000D03*
%TD*%
D18*
%TO.C,J301*%
X12000000Y-10000000D03*
X12000000Y-14000000D03*
D19*
X9725000Y-9000000D03*
X14275000Y-9000000D03*
X9725000Y-11000000D03*
X14275000Y-11000000D03*
X9725000Y-13000000D03*
X14275000Y-13000000D03*
X9725000Y-15000000D03*
X14275000Y-15000000D03*
%TD*%
D17*
%TO.C,R301*%
X-1350000Y-1890000D03*
X-1350000Y-2910000D03*
%TD*%
D20*
%TO.C,U301*%
X14850000Y550000D03*
X14350000Y550000D03*
X13850000Y550000D03*
X13350000Y550000D03*
X12850000Y550000D03*
X12350000Y550000D03*
D21*
X11650000Y-150000D03*
X11650000Y-650000D03*
X11650000Y-1150000D03*
X11650000Y-1650000D03*
X11650000Y-2150000D03*
X11650000Y-2650000D03*
D20*
X12350000Y-3350000D03*
X12850000Y-3350000D03*
X13350000Y-3350000D03*
X13850000Y-3350000D03*
X14350000Y-3350000D03*
X14850000Y-3350000D03*
D21*
X15550000Y-2650000D03*
X15550000Y-2150000D03*
X15550000Y-1650000D03*
X15550000Y-1150000D03*
X15550000Y-650000D03*
X15550000Y-150000D03*
D22*
X13600000Y-1400000D03*
%TD*%
D15*
%TO.C,SP301*%
X-6000000Y0D03*
D16*
X-3050000Y0D03*
%TD*%
D11*
%TO.C,C306*%
X17700000Y4065000D03*
X17700000Y3105000D03*
%TD*%
D12*
%TO.C,FID302*%
X-10000000Y-4000000D03*
%TD*%
D11*
%TO.C,C302*%
X11700000Y4080000D03*
X11700000Y3120000D03*
%TD*%
D12*
%TO.C,FID301*%
X10000000Y3000000D03*
%TD*%
D23*
%TO.C,MIC301*%
X0Y0D03*
D24*
X-837500Y2074000D03*
X-837500Y1252000D03*
D25*
X0Y-662500D03*
D24*
X837500Y1252000D03*
X837500Y2074000D03*
%TD*%
D17*
%TO.C,R303*%
X11900000Y-4565000D03*
X11900000Y-5585000D03*
%TD*%
D12*
%TO.C,TP301*%
X9900000Y-4450000D03*
%TD*%
D13*
%TO.C,C308*%
X18300000Y1900000D03*
X18300000Y350000D03*
%TD*%
D11*
%TO.C,C305*%
X13925000Y4080000D03*
X13925000Y3120000D03*
%TD*%
D26*
%TO.C,C301*%
X480000Y3600000D03*
X-480000Y3600000D03*
%TD*%
M02*
