M48
; DRILL file {KiCad 7.99.0-1.20230926git54171ec.fc37} date 2023-10-10T16:21:44+0100
; FORMAT={-:-/ absolute / metric / decimal}
; #@! TF.CreationDate,2023-10-10T16:21:44+01:00
; #@! TF.GenerationSoftware,Kicad,Pcbnew,7.99.0-1.20230926git54171ec.fc37
; #@! TF.FileFunction,Plated,1,6,PTH
FMAT,2
METRIC
; #@! TA.AperFunction,Plated,PTH,ComponentDrill
T1C0.200
; #@! TA.AperFunction,Plated,PTH,ViaDrill
T2C0.300
; #@! TA.AperFunction,Plated,PTH,ViaDrill
T3C0.400
%
G90
G05
T1
X12.525Y-0.325
X12.525Y-1.4
X12.525Y-2.475
X13.6Y-0.325
X13.6Y-1.4
X13.6Y-2.475
X14.675Y-0.325
X14.675Y-1.4
X14.675Y-2.475
T2
X-3.05Y4.1
X-2.35Y-2.95
X-0.6Y-3.45
X0.5Y-3.45
X2.5Y-2.9
X4.0Y4.2
X9.5Y-2.9
X9.725Y-10.05
X9.725Y-12.05
X10.45Y-3.5
X10.55Y1.35
X10.95Y4.05
X11.1Y-16.025
X11.45Y-3.55
X11.65Y-6.425
X11.65Y-16.025
X11.7Y-7.35
X11.7Y-8.1
X12.85Y-6.45
X12.95Y2.0
X13.7Y-4.4
X14.0Y-7.9
X15.375Y-10.025
X15.95Y0.55
X16.0Y4.35
X16.275Y-12.975
X16.325Y-14.975
X16.533Y-5.283
X16.75Y2.35
X16.975Y-2.425
X17.55Y-1.8
X18.134Y-1.253
X18.55Y4.0
X18.675Y-0.664
T3
X2.95Y3.1
X15.6Y-5.35
X15.85Y-3.8
T0
M30
