%TF.GenerationSoftware,KiCad,Pcbnew,7.99.0-1.20230926git54171ec.fc37*%
%TF.CreationDate,2023-10-10T16:21:44+01:00*%
%TF.ProjectId,bugg-mic-r5,62756767-2d6d-4696-932d-72352e6b6963,rev?*%
%TF.SameCoordinates,Original*%
%TF.FileFunction,Paste,Top*%
%TF.FilePolarity,Positive*%
%FSLAX46Y46*%
G04 Gerber Fmt 4.6, Leading zero omitted, Abs format (unit mm)*
G04 Created by KiCad (PCBNEW 7.99.0-1.20230926git54171ec.fc37) date 2023-10-10 16:21:44*
%MOMM*%
%LPD*%
G01*
G04 APERTURE LIST*
G04 Aperture macros list*
%AMRoundRect*
0 Rectangle with rounded corners*
0 $1 Rounding radius*
0 $2 $3 $4 $5 $6 $7 $8 $9 X,Y pos of 4 corners*
0 Add a 4 corners polygon primitive as box body*
4,1,4,$2,$3,$4,$5,$6,$7,$8,$9,$2,$3,0*
0 Add four circle primitives for the rounded corners*
1,1,$1+$1,$2,$3*
1,1,$1+$1,$4,$5*
1,1,$1+$1,$6,$7*
1,1,$1+$1,$8,$9*
0 Add four rect primitives between the rounded corners*
20,1,$1+$1,$2,$3,$4,$5,0*
20,1,$1+$1,$4,$5,$6,$7,0*
20,1,$1+$1,$6,$7,$8,$9,0*
20,1,$1+$1,$8,$9,$2,$3,0*%
%AMFreePoly0*
4,1,70,1.720620,1.379146,1.738583,1.379146,1.743575,1.375518,1.745891,1.375153,1.761820,1.362263,1.788583,1.342819,1.802485,1.300030,1.804698,1.294273,1.804586,1.293565,1.807681,1.284040,1.807681,0.377294,1.800692,0.355786,1.798809,0.339940,1.793034,0.332215,1.788583,0.318515,1.775910,0.309307,1.767816,0.298480,1.751188,0.291346,1.738583,0.282188,1.729841,0.282188,
1.720245,0.278071,1.583713,0.258318,1.317097,0.187321,1.060568,0.085742,0.817623,-0.045033,0.591568,-0.203224,0.385485,-0.386676,0.202180,-0.592889,0.044150,-0.819056,-0.086452,-1.062095,-0.187847,-1.318696,-0.258655,-1.585362,-0.278311,-1.721909,-0.282188,-1.730963,-0.282188,-1.738583,-0.290132,-1.749517,-0.298686,-1.769494,-0.311753,-1.779277,-0.318515,-1.788583,-0.328531,-1.791837,
-0.340124,-1.800516,-0.364050,-1.803377,-0.377294,-1.807681,-1.284040,-1.807681,-1.288583,-1.806204,-1.294457,-1.807137,-1.342789,-1.788604,-1.342801,-1.788588,-1.342819,-1.788583,-1.342931,-1.788428,-1.375380,-1.748388,-1.376318,-1.742474,-1.379146,-1.738583,-1.379146,-1.724665,-1.383495,-1.697264,-1.332248,-1.364875,-1.248971,-1.039031,-1.134453,-0.722811,-0.989776,-0.419204,-0.816305,-0.131077,
-0.615681,0.138847,-0.389798,0.388019,-0.140792,0.614082,0.128986,0.814903,0.416987,0.988583,0.720489,1.133482,1.036626,1.248229,1.362409,1.331743,1.694761,1.383232,1.720620,1.379146,1.720620,1.379146,$1*%
%AMFreePoly1*
4,1,70,-0.355786,1.800692,-0.339940,1.798809,-0.332215,1.793034,-0.318515,1.788583,-0.309307,1.775910,-0.298480,1.767816,-0.291346,1.751188,-0.282188,1.738583,-0.282188,1.729841,-0.278071,1.720245,-0.258318,1.583713,-0.187321,1.317097,-0.085742,1.060568,0.045033,0.817623,0.203224,0.591568,0.386676,0.385485,0.592889,0.202180,0.819056,0.044150,1.062095,-0.086452,1.318696,-0.187847,
1.585362,-0.258655,1.721909,-0.278311,1.730964,-0.282188,1.738583,-0.282188,1.749517,-0.290132,1.769494,-0.298686,1.779277,-0.311753,1.788583,-0.318515,1.791837,-0.328531,1.800516,-0.340124,1.803377,-0.364050,1.807681,-0.377294,1.807681,-1.284040,1.806204,-1.288583,1.807137,-1.294457,1.788604,-1.342789,1.788588,-1.342801,1.788583,-1.342819,1.788428,-1.342931,1.748388,-1.375380,
1.742474,-1.376318,1.738583,-1.379146,1.724665,-1.379146,1.697264,-1.383495,1.364875,-1.332247,1.039031,-1.248971,0.722812,-1.134453,0.419204,-0.989775,0.131077,-0.816305,-0.138847,-0.615680,-0.388018,-0.389798,-0.614082,-0.140791,-0.814902,0.128987,-0.988582,0.416988,-1.133481,0.720490,-1.248229,1.036626,-1.331742,1.362409,-1.383232,1.694761,-1.379146,1.720619,-1.379146,1.738583,
-1.375518,1.743575,-1.375153,1.745890,-1.362267,1.761814,-1.342819,1.788583,-1.300030,1.802485,-1.294273,1.804698,-1.293565,1.804586,-1.284040,1.807681,-0.377294,1.807681,-0.355786,1.800692,-0.355786,1.800692,$1*%
%AMFreePoly2*
4,1,71,-1.697264,1.383495,-1.364875,1.332247,-1.039031,1.248971,-0.722812,1.134453,-0.419205,0.989775,-0.131078,0.816304,0.138846,0.615680,0.388017,0.389797,0.614081,0.140791,0.814902,-0.128987,0.988582,-0.416988,1.133480,-0.720490,1.248228,-1.036626,1.331741,-1.362409,1.383232,-1.694761,1.379146,-1.720619,1.379146,-1.738583,1.375518,-1.743575,1.375153,-1.745890,1.362267,-1.761814,
1.342819,-1.788583,1.300030,-1.802485,1.294273,-1.804698,1.293565,-1.804586,1.284040,-1.807681,0.377294,-1.807681,0.355786,-1.800692,0.339940,-1.798809,0.332215,-1.793034,0.318515,-1.788583,0.309307,-1.775910,0.298480,-1.767816,0.291346,-1.751188,0.282188,-1.738583,0.282188,-1.729841,0.278071,-1.720245,0.258318,-1.583713,0.187320,-1.317097,0.085742,-1.060569,-0.045033,-0.817623,
-0.203224,-0.591569,-0.386676,-0.385485,-0.592890,-0.202180,-0.819056,-0.044150,-1.062095,0.086452,-1.318696,0.187847,-1.585363,0.258655,-1.721909,0.278311,-1.730964,0.282188,-1.738583,0.282188,-1.749517,0.290132,-1.769494,0.298686,-1.779277,0.311753,-1.788583,0.318515,-1.791837,0.328531,-1.800516,0.340124,-1.803377,0.364050,-1.807681,0.377294,-1.807681,1.284040,-1.806204,1.288583,
-1.807137,1.294457,-1.788604,1.342789,-1.788588,1.342801,-1.788583,1.342819,-1.788428,1.342931,-1.748388,1.375380,-1.742474,1.376318,-1.738583,1.379146,-1.724665,1.379146,-1.697264,1.383496,-1.697264,1.383495,-1.697264,1.383495,$1*%
%AMFreePoly3*
4,1,70,1.288583,1.806204,1.294457,1.807137,1.342789,1.788604,1.342801,1.788588,1.342819,1.788583,1.342931,1.788428,1.375380,1.748388,1.376318,1.742474,1.379146,1.738583,1.379146,1.724665,1.383495,1.697264,1.332247,1.364875,1.248971,1.039031,1.134453,0.722812,0.989775,0.419205,0.816304,0.131078,0.615680,-0.138846,0.389797,-0.388017,0.140791,-0.614081,-0.128987,-0.814902,
-0.416988,-0.988582,-0.720490,-1.133480,-1.036626,-1.248228,-1.362409,-1.331741,-1.694761,-1.383232,-1.720620,-1.379146,-1.738583,-1.379146,-1.743575,-1.375518,-1.745890,-1.375153,-1.761814,-1.362267,-1.788583,-1.342819,-1.802485,-1.300030,-1.804698,-1.294273,-1.804586,-1.293565,-1.807681,-1.284040,-1.807681,-0.377294,-1.800692,-0.355786,-1.798809,-0.339940,-1.793034,-0.332215,-1.788583,-0.318515,
-1.775910,-0.309307,-1.767816,-0.298480,-1.751188,-0.291346,-1.738583,-0.282188,-1.729841,-0.282188,-1.720245,-0.278071,-1.583713,-0.258318,-1.317097,-0.187320,-1.060569,-0.085742,-0.817623,0.045033,-0.591569,0.203224,-0.385485,0.386676,-0.202180,0.592890,-0.044150,0.819056,0.086452,1.062095,0.187847,1.318696,0.258655,1.585363,0.278311,1.721909,0.282188,1.730963,0.282188,1.738583,
0.290132,1.749517,0.298686,1.769494,0.311753,1.779277,0.318515,1.788583,0.328531,1.791837,0.340124,1.800516,0.364050,1.803377,0.377294,1.807681,1.284040,1.807681,1.288583,1.806204,1.288583,1.806204,$1*%
G04 Aperture macros list end*
%ADD10C,0.300000*%
%ADD11RoundRect,0.140000X-0.170000X0.140000X-0.170000X-0.140000X0.170000X-0.140000X0.170000X0.140000X0*%
%ADD12RoundRect,0.225000X-0.250000X0.225000X-0.250000X-0.225000X0.250000X-0.225000X0.250000X0.225000X0*%
%ADD13RoundRect,0.140000X0.170000X-0.140000X0.170000X0.140000X-0.170000X0.140000X-0.170000X-0.140000X0*%
%ADD14FreePoly0,0.000000*%
%ADD15FreePoly1,0.000000*%
%ADD16FreePoly2,0.000000*%
%ADD17FreePoly3,0.000000*%
%ADD18RoundRect,0.135000X-0.185000X0.135000X-0.185000X-0.135000X0.185000X-0.135000X0.185000X0.135000X0*%
%ADD19R,3.000000X1.000000*%
%ADD20RoundRect,0.250000X-0.325000X0.325000X-0.325000X-0.325000X0.325000X-0.325000X0.325000X0.325000X0*%
%ADD21RoundRect,0.075000X-0.075000X0.350000X-0.075000X-0.350000X0.075000X-0.350000X0.075000X0.350000X0*%
%ADD22RoundRect,0.075000X-0.350000X0.075000X-0.350000X-0.075000X0.350000X-0.075000X0.350000X0.075000X0*%
%ADD23R,0.725000X0.522000*%
%ADD24RoundRect,0.140000X0.140000X0.170000X-0.140000X0.170000X-0.140000X-0.170000X0.140000X-0.170000X0*%
G04 APERTURE END LIST*
D10*
%TO.C,MIC301*%
X-599999Y280000D02*
G75*
G02*
X-271239Y604010I599999J-280000D01*
G01*
X-280000Y-599999D02*
G75*
G02*
X-604010Y-271239I280000J599999D01*
G01*
X280000Y599999D02*
G75*
G02*
X603799Y271710I-280000J-599999D01*
G01*
X600000Y-280000D02*
G75*
G02*
X271239Y-604011I-600001J280001D01*
G01*
%TD*%
D11*
%TO.C,C303*%
X12800000Y4080000D03*
X12800000Y3120000D03*
%TD*%
%TO.C,C309*%
X17100000Y1305000D03*
X17100000Y345000D03*
%TD*%
D12*
%TO.C,C304*%
X15160000Y3835000D03*
X15160000Y2285000D03*
%TD*%
D11*
%TO.C,C311*%
X17050000Y-3420000D03*
X17050000Y-4380000D03*
%TD*%
D12*
%TO.C,C310*%
X18400000Y-3075000D03*
X18400000Y-4625000D03*
%TD*%
D13*
%TO.C,C312*%
X12850000Y-5530000D03*
X12850000Y-4570000D03*
%TD*%
D11*
%TO.C,C307*%
X16760000Y4065000D03*
X16760000Y3105000D03*
%TD*%
D14*
%TO.C,SP302*%
X3942319Y2057681D03*
D15*
X3942319Y-2057681D03*
D16*
X8057681Y2057681D03*
D17*
X8057681Y-2057681D03*
%TD*%
D18*
%TO.C,R302*%
X1400000Y-1890000D03*
X1400000Y-2910000D03*
%TD*%
D19*
%TO.C,J301*%
X9725000Y-9000000D03*
X14275000Y-9000000D03*
X9725000Y-11000000D03*
X14275000Y-11000000D03*
X9725000Y-13000000D03*
X14275000Y-13000000D03*
X9725000Y-15000000D03*
X14275000Y-15000000D03*
%TD*%
D18*
%TO.C,R301*%
X-1350000Y-1890000D03*
X-1350000Y-2910000D03*
%TD*%
D20*
%TO.C,U301*%
X14260000Y-740000D03*
X12940000Y-740000D03*
X14260000Y-2060000D03*
X12940000Y-2060000D03*
D21*
X14850000Y550000D03*
X14350000Y550000D03*
X13850000Y550000D03*
X13350000Y550000D03*
X12850000Y550000D03*
X12350000Y550000D03*
D22*
X11650000Y-150000D03*
X11650000Y-650000D03*
X11650000Y-1150000D03*
X11650000Y-1650000D03*
X11650000Y-2150000D03*
X11650000Y-2650000D03*
D21*
X12350000Y-3350000D03*
X12850000Y-3350000D03*
X13350000Y-3350000D03*
X13850000Y-3350000D03*
X14350000Y-3350000D03*
X14850000Y-3350000D03*
D22*
X15550000Y-2650000D03*
X15550000Y-2150000D03*
X15550000Y-1650000D03*
X15550000Y-1150000D03*
X15550000Y-650000D03*
X15550000Y-150000D03*
%TD*%
D14*
%TO.C,SP301*%
X-8057681Y2057681D03*
D15*
X-8057681Y-2057681D03*
D16*
X-3942319Y2057681D03*
D17*
X-3942319Y-2057681D03*
%TD*%
D11*
%TO.C,C306*%
X17700000Y4065000D03*
X17700000Y3105000D03*
%TD*%
%TO.C,C302*%
X11700000Y4080000D03*
X11700000Y3120000D03*
%TD*%
D23*
%TO.C,MIC301*%
X-837500Y2074000D03*
X-837500Y1252000D03*
X837500Y1252000D03*
X837500Y2074000D03*
%TD*%
D18*
%TO.C,R303*%
X11900000Y-4565000D03*
X11900000Y-5585000D03*
%TD*%
D12*
%TO.C,C308*%
X18300000Y1900000D03*
X18300000Y350000D03*
%TD*%
D11*
%TO.C,C305*%
X13925000Y4080000D03*
X13925000Y3120000D03*
%TD*%
D24*
%TO.C,C301*%
X480000Y3600000D03*
X-480000Y3600000D03*
%TD*%
M02*
