%TF.GenerationSoftware,KiCad,Pcbnew,7.99.0-1.20230926git54171ec.fc37*%
%TF.CreationDate,2023-10-10T18:57:34+01:00*%
%TF.ProjectId,bugg-mic-r5,62756767-2d6d-4696-932d-72352e6b6963,rev?*%
%TF.SameCoordinates,Original*%
%TF.FileFunction,Copper,L2,Bot*%
%TF.FilePolarity,Positive*%
%FSLAX46Y46*%
G04 Gerber Fmt 4.6, Leading zero omitted, Abs format (unit mm)*
G04 Created by KiCad (PCBNEW 7.99.0-1.20230926git54171ec.fc37) date 2023-10-10 18:57:34*
%MOMM*%
%LPD*%
G01*
G04 APERTURE LIST*
%TA.AperFunction,ComponentPad*%
%ADD10C,0.500000*%
%TD*%
%TA.AperFunction,SMDPad,CuDef*%
%ADD11R,2.650000X2.650000*%
%TD*%
%TA.AperFunction,ViaPad*%
%ADD12C,0.600000*%
%TD*%
%TA.AperFunction,ViaPad*%
%ADD13C,0.800000*%
%TD*%
%TA.AperFunction,Conductor*%
%ADD14C,0.600000*%
%TD*%
%TA.AperFunction,Conductor*%
%ADD15C,0.200000*%
%TD*%
%TA.AperFunction,Conductor*%
%ADD16C,0.250000*%
%TD*%
G04 APERTURE END LIST*
D10*
%TO.P,U301,25,VSS_THERMAL*%
%TO.N,GND*%
X14675000Y-325000D03*
X13600000Y-325000D03*
X12525000Y-325000D03*
X14675000Y-1400000D03*
X13600000Y-1400000D03*
D11*
X13600000Y-1400000D03*
D10*
X12525000Y-1400000D03*
X14675000Y-2475000D03*
X13600000Y-2475000D03*
X12525000Y-2475000D03*
%TD*%
D12*
%TO.N,GND*%
X-600000Y-3450000D03*
D13*
X15625000Y-5650000D03*
D12*
X500000Y-3450000D03*
X12000000Y-12000000D03*
X11650000Y-16025000D03*
X13700000Y-4400000D03*
X13112500Y1837500D03*
X16325000Y-10000000D03*
X11100000Y-16025000D03*
X16000000Y4350000D03*
X10550000Y1350000D03*
X-3050000Y4100000D03*
X15950000Y550000D03*
X18550000Y4000000D03*
X12850000Y-6450000D03*
X4000000Y4200000D03*
X11450000Y-3550000D03*
X10950000Y4050000D03*
%TO.N,+3V3*%
X16750000Y2350000D03*
X14000000Y-7900000D03*
D13*
X2650000Y2800000D03*
X15850000Y-3800000D03*
D12*
X11650000Y-6425000D03*
%TO.N,/SDOUT*%
X17550000Y-1800000D03*
X16325000Y-14975000D03*
%TO.N,/SCL*%
X9725000Y-10050000D03*
X11700000Y-7350000D03*
%TO.N,/BCLK*%
X18133725Y-1252932D03*
X16275000Y-12975000D03*
%TO.N,/SDA*%
X11700000Y-8100000D03*
X9725000Y-12050000D03*
%TO.N,/FSYNC*%
X18674709Y-663564D03*
X15375000Y-10025000D03*
%TO.N,Net-(U301-PDMDIN1_GPI1)*%
X-2350000Y-2950000D03*
X9500000Y-2900000D03*
%TO.N,Net-(U301-PDMCLK1_GPO1)*%
X2575000Y-2575000D03*
X10449991Y-3500009D03*
%TO.N,Net-(U301-GPIO1)*%
X16533051Y-5283051D03*
X16974627Y-2425373D03*
%TD*%
D14*
%TO.N,+3V3*%
X14000000Y-7900000D02*
X14000000Y-5650000D01*
X11650000Y-6425000D02*
X12425000Y-5650000D01*
X16750000Y-234300D02*
X16750000Y2350000D01*
X2700000Y2750000D02*
X16350000Y2750000D01*
X15450000Y-1534300D02*
X16750000Y-234300D01*
X12425000Y-5650000D02*
X14000000Y-5650000D01*
X15450000Y-3400000D02*
X15450000Y-1534300D01*
X16350000Y2750000D02*
X16750000Y2350000D01*
X2650000Y2800000D02*
X2700000Y2750000D01*
X14000000Y-5650000D02*
X15850000Y-3800000D01*
X15850000Y-3800000D02*
X15450000Y-3400000D01*
D15*
%TO.N,/SDOUT*%
X18000000Y-4700000D02*
X18000000Y-2250000D01*
X15675000Y-13325000D02*
X15675000Y-11794974D01*
X16325000Y-13975000D02*
X15675000Y-13325000D01*
X14450000Y-10569974D02*
X14450000Y-9625000D01*
X15675000Y-11794974D02*
X14450000Y-10569974D01*
X15875000Y-8200000D02*
X15875000Y-6825000D01*
X15875000Y-6825000D02*
X18000000Y-4700000D01*
X16325000Y-14975000D02*
X16325000Y-13975000D01*
X14450000Y-9625000D02*
X15875000Y-8200000D01*
X18000000Y-2250000D02*
X17550000Y-1800000D01*
%TO.N,/SCL*%
X11700000Y-7350000D02*
X11150000Y-7350000D01*
X9725000Y-8775000D02*
X9725000Y-10050000D01*
X11150000Y-7350000D02*
X9725000Y-8775000D01*
%TO.N,/BCLK*%
X14800000Y-10425000D02*
X14800000Y-9800000D01*
X14800000Y-9800000D02*
X16250000Y-8350000D01*
X18450011Y-4963579D02*
X18450011Y-1569218D01*
X16250000Y-7163590D02*
X18450011Y-4963579D01*
X16275000Y-12975000D02*
X16275000Y-11900000D01*
X16275000Y-11900000D02*
X14800000Y-10425000D01*
X16250000Y-8350000D02*
X16250000Y-7163590D01*
X18450011Y-1569218D02*
X18133725Y-1252932D01*
%TO.N,/SDA*%
X11075000Y-8100000D02*
X10300000Y-8875000D01*
X10300000Y-8875000D02*
X10300000Y-11475000D01*
X10300000Y-11475000D02*
X9725000Y-12050000D01*
X11700000Y-8100000D02*
X11075000Y-8100000D01*
%TO.N,/FSYNC*%
X18974708Y-963563D02*
X18674709Y-663564D01*
X16625000Y-8775000D02*
X16625000Y-7625000D01*
X18974708Y-5275292D02*
X18974708Y-963563D01*
X15375000Y-10025000D02*
X16625000Y-8775000D01*
X16625000Y-7625000D02*
X18974708Y-5275292D01*
D16*
%TO.N,Net-(U301-PDMDIN1_GPI1)*%
X9500000Y-2900000D02*
X8250000Y-4150000D01*
X8250000Y-4150000D02*
X-1150000Y-4150000D01*
X-1150000Y-4150000D02*
X-2350000Y-2950000D01*
%TO.N,Net-(U301-PDMCLK1_GPO1)*%
X8700000Y-2150000D02*
X10000000Y-2150000D01*
X2575000Y-2575000D02*
X8275000Y-2575000D01*
X10450000Y-2600000D02*
X10450000Y-3500000D01*
X8275000Y-2575000D02*
X8700000Y-2150000D01*
X10000000Y-2150000D02*
X10450000Y-2600000D01*
X10450000Y-3500000D02*
X10449991Y-3500009D01*
%TO.N,Net-(U301-GPIO1)*%
X16974627Y-2425373D02*
X17500000Y-2950746D01*
X17500000Y-2950746D02*
X17500000Y-4316102D01*
X17500000Y-4316102D02*
X16533051Y-5283051D01*
%TD*%
%TA.AperFunction,Conductor*%
%TO.N,GND*%
G36*
X18502425Y4749261D02*
G01*
X18636515Y4736054D01*
X18655549Y4732268D01*
X18777490Y4695278D01*
X18795420Y4687851D01*
X18907798Y4627784D01*
X18923935Y4617002D01*
X19022438Y4536162D01*
X19036161Y4522439D01*
X19117001Y4423936D01*
X19127783Y4407799D01*
X19187850Y4295422D01*
X19195277Y4277492D01*
X19232267Y4155551D01*
X19236053Y4136518D01*
X19249258Y4002457D01*
X19249497Y3997602D01*
X19249497Y3947870D01*
X19249500Y3947832D01*
X19249500Y-216706D01*
X19230593Y-274897D01*
X19181093Y-310861D01*
X19119907Y-310861D01*
X19071961Y-276977D01*
X19067335Y-270949D01*
X19067333Y-270947D01*
X19067330Y-270943D01*
X18952334Y-182703D01*
X18952330Y-182701D01*
X18818418Y-127234D01*
X18818417Y-127233D01*
X18674709Y-108314D01*
X18531000Y-127233D01*
X18530999Y-127234D01*
X18397087Y-182701D01*
X18397083Y-182703D01*
X18282090Y-270941D01*
X18282086Y-270945D01*
X18193848Y-385938D01*
X18193846Y-385942D01*
X18138379Y-519854D01*
X18138378Y-519855D01*
X18124552Y-624879D01*
X18098211Y-680104D01*
X18044440Y-709299D01*
X18039323Y-710110D01*
X17990014Y-716602D01*
X17856103Y-772069D01*
X17856099Y-772071D01*
X17741106Y-860309D01*
X17741102Y-860313D01*
X17652864Y-975306D01*
X17652862Y-975310D01*
X17597395Y-1109221D01*
X17589988Y-1165477D01*
X17563646Y-1220701D01*
X17509874Y-1249896D01*
X17504758Y-1250706D01*
X17406291Y-1263670D01*
X17406290Y-1263670D01*
X17272378Y-1319137D01*
X17272374Y-1319139D01*
X17157381Y-1407377D01*
X17157377Y-1407381D01*
X17069139Y-1522374D01*
X17069137Y-1522378D01*
X17013670Y-1656290D01*
X17013670Y-1656291D01*
X16995625Y-1793349D01*
X16969284Y-1848574D01*
X16915513Y-1877768D01*
X16910395Y-1878579D01*
X16830918Y-1889043D01*
X16830917Y-1889043D01*
X16697005Y-1944510D01*
X16697001Y-1944512D01*
X16582008Y-2032750D01*
X16582004Y-2032754D01*
X16493766Y-2147747D01*
X16493764Y-2147751D01*
X16438297Y-2281663D01*
X16438296Y-2281664D01*
X16419377Y-2425372D01*
X16419377Y-2425373D01*
X16438296Y-2569081D01*
X16438297Y-2569082D01*
X16488317Y-2689844D01*
X16493766Y-2702998D01*
X16582006Y-2817994D01*
X16697002Y-2906234D01*
X16830918Y-2961703D01*
X16969191Y-2979907D01*
X17024416Y-3006248D01*
X17026273Y-3008056D01*
X17095504Y-3077287D01*
X17123281Y-3131804D01*
X17124500Y-3147291D01*
X17124500Y-4119555D01*
X17105593Y-4177746D01*
X17095504Y-4189559D01*
X16584695Y-4700367D01*
X16530178Y-4728144D01*
X16527614Y-4728516D01*
X16389342Y-4746721D01*
X16389341Y-4746721D01*
X16255429Y-4802188D01*
X16255425Y-4802190D01*
X16140432Y-4890428D01*
X16140428Y-4890432D01*
X16052190Y-5005425D01*
X16052188Y-5005429D01*
X15996721Y-5139341D01*
X15996720Y-5139342D01*
X15977801Y-5283050D01*
X15977801Y-5283051D01*
X15996720Y-5426759D01*
X15996721Y-5426760D01*
X16052190Y-5560676D01*
X16140430Y-5675672D01*
X16140434Y-5675675D01*
X16140435Y-5675676D01*
X16255427Y-5763913D01*
X16260963Y-5767109D01*
X16301904Y-5812579D01*
X16308300Y-5873429D01*
X16281467Y-5922849D01*
X15660118Y-6544198D01*
X15644265Y-6557071D01*
X15634335Y-6563559D01*
X15634332Y-6563561D01*
X15613664Y-6590114D01*
X15609605Y-6594712D01*
X15606619Y-6597698D01*
X15593955Y-6615437D01*
X15562483Y-6655874D01*
X15558981Y-6662343D01*
X15555758Y-6668936D01*
X15541138Y-6718045D01*
X15524499Y-6766512D01*
X15523293Y-6773743D01*
X15522383Y-6781047D01*
X15524500Y-6832231D01*
X15524500Y-8013809D01*
X15505593Y-8072000D01*
X15495504Y-8083813D01*
X14235118Y-9344198D01*
X14219265Y-9357071D01*
X14209335Y-9363559D01*
X14209332Y-9363561D01*
X14188664Y-9390114D01*
X14184605Y-9394712D01*
X14181619Y-9397698D01*
X14168955Y-9415437D01*
X14137483Y-9455874D01*
X14133981Y-9462343D01*
X14130758Y-9468936D01*
X14116138Y-9518045D01*
X14099499Y-9566512D01*
X14098293Y-9573743D01*
X14097383Y-9581047D01*
X14099500Y-9632231D01*
X14099500Y-10523355D01*
X14097393Y-10543670D01*
X14095259Y-10553850D01*
X14094957Y-10555289D01*
X14098827Y-10586330D01*
X14099120Y-10588683D01*
X14099500Y-10594811D01*
X14099500Y-10599014D01*
X14101891Y-10613347D01*
X14103087Y-10620515D01*
X14109425Y-10671362D01*
X14111527Y-10678422D01*
X14113907Y-10685354D01*
X14138295Y-10730418D01*
X14160801Y-10776456D01*
X14165078Y-10782446D01*
X14169579Y-10788229D01*
X14207275Y-10822932D01*
X15295504Y-11911160D01*
X15323281Y-11965677D01*
X15324500Y-11981164D01*
X15324500Y-13278381D01*
X15322393Y-13298696D01*
X15319957Y-13310313D01*
X15324120Y-13343709D01*
X15324500Y-13349837D01*
X15324500Y-13354038D01*
X15328087Y-13375541D01*
X15334425Y-13426388D01*
X15336527Y-13433448D01*
X15338907Y-13440380D01*
X15363295Y-13485444D01*
X15385801Y-13531482D01*
X15390078Y-13537472D01*
X15394579Y-13543255D01*
X15432275Y-13577958D01*
X15945504Y-14091185D01*
X15973281Y-14145702D01*
X15974500Y-14161189D01*
X15974500Y-14501236D01*
X15955593Y-14559427D01*
X15935769Y-14579777D01*
X15932381Y-14582376D01*
X15844139Y-14697374D01*
X15844137Y-14697378D01*
X15788670Y-14831290D01*
X15788669Y-14831291D01*
X15769750Y-14974999D01*
X15769750Y-14975000D01*
X15788669Y-15118708D01*
X15788670Y-15118709D01*
X15844139Y-15252625D01*
X15932379Y-15367621D01*
X16047375Y-15455861D01*
X16181291Y-15511330D01*
X16325000Y-15530250D01*
X16468709Y-15511330D01*
X16602625Y-15455861D01*
X16602624Y-15455861D01*
X16608620Y-15453378D01*
X16609306Y-15455034D01*
X16660839Y-15444076D01*
X16716737Y-15468958D01*
X16747335Y-15521943D01*
X16749500Y-15542535D01*
X16749500Y-15997570D01*
X16749261Y-16002425D01*
X16736054Y-16136515D01*
X16732268Y-16155549D01*
X16695278Y-16277490D01*
X16687851Y-16295420D01*
X16627784Y-16407798D01*
X16617002Y-16423935D01*
X16536162Y-16522438D01*
X16522439Y-16536161D01*
X16423936Y-16617001D01*
X16407799Y-16627783D01*
X16295422Y-16687850D01*
X16277492Y-16695277D01*
X16155551Y-16732267D01*
X16136518Y-16736053D01*
X16002457Y-16749258D01*
X15997602Y-16749497D01*
X15946946Y-16749497D01*
X15946912Y-16749500D01*
X7502430Y-16749500D01*
X7497575Y-16749261D01*
X7363484Y-16736054D01*
X7344450Y-16732268D01*
X7222509Y-16695278D01*
X7204579Y-16687851D01*
X7092201Y-16627784D01*
X7076066Y-16617003D01*
X7026812Y-16576582D01*
X6977561Y-16536162D01*
X6963838Y-16522439D01*
X6882998Y-16423936D01*
X6872216Y-16407799D01*
X6812148Y-16295419D01*
X6804722Y-16277492D01*
X6804721Y-16277490D01*
X6767732Y-16155551D01*
X6763946Y-16136517D01*
X6750742Y-16002456D01*
X6750503Y-15997601D01*
X6750503Y-15947870D01*
X6750500Y-15947832D01*
X6750500Y-13953683D01*
X11145740Y-13953683D01*
X11155755Y-14138407D01*
X11205246Y-14316659D01*
X11205247Y-14316661D01*
X11205250Y-14316667D01*
X11291899Y-14480103D01*
X11291900Y-14480104D01*
X11411661Y-14621098D01*
X11411666Y-14621103D01*
X11558932Y-14733052D01*
X11558934Y-14733053D01*
X11558935Y-14733053D01*
X11558936Y-14733054D01*
X11726833Y-14810732D01*
X11907503Y-14850500D01*
X11907507Y-14850500D01*
X12046112Y-14850500D01*
X12046113Y-14850500D01*
X12183910Y-14835514D01*
X12359221Y-14776444D01*
X12517736Y-14681070D01*
X12652041Y-14553849D01*
X12755858Y-14400730D01*
X12824331Y-14228875D01*
X12854260Y-14046317D01*
X12844245Y-13861593D01*
X12794754Y-13683341D01*
X12708100Y-13519896D01*
X12588337Y-13378900D01*
X12588333Y-13378896D01*
X12441067Y-13266947D01*
X12441065Y-13266946D01*
X12273170Y-13189269D01*
X12273168Y-13189268D01*
X12237033Y-13181314D01*
X12092497Y-13149500D01*
X11953887Y-13149500D01*
X11816090Y-13164486D01*
X11757021Y-13184388D01*
X11640780Y-13223555D01*
X11640777Y-13223556D01*
X11482266Y-13318927D01*
X11482262Y-13318931D01*
X11347960Y-13446149D01*
X11244142Y-13599267D01*
X11175669Y-13771124D01*
X11175669Y-13771125D01*
X11145740Y-13953683D01*
X6750500Y-13953683D01*
X6750500Y-5901576D01*
X6719708Y-5707173D01*
X6719708Y-5707171D01*
X6658883Y-5519972D01*
X6569522Y-5344593D01*
X6453827Y-5185352D01*
X6314645Y-5046171D01*
X6155404Y-4930476D01*
X6155403Y-4930475D01*
X6155401Y-4930474D01*
X5980025Y-4841116D01*
X5792821Y-4780289D01*
X5598419Y-4749500D01*
X5598416Y-4749500D01*
X5524674Y-4749500D01*
X-9997570Y-4749500D01*
X-10002425Y-4749261D01*
X-10136515Y-4736054D01*
X-10155549Y-4732268D01*
X-10277489Y-4695278D01*
X-10295419Y-4687851D01*
X-10407798Y-4627784D01*
X-10423935Y-4617002D01*
X-10522437Y-4536163D01*
X-10536160Y-4522440D01*
X-10616999Y-4423938D01*
X-10627781Y-4407801D01*
X-10687848Y-4295422D01*
X-10695275Y-4277492D01*
X-10732265Y-4155552D01*
X-10736051Y-4136518D01*
X-10749258Y-4002428D01*
X-10749497Y-3997573D01*
X-10749497Y-3947871D01*
X-10749500Y-3947833D01*
X-10749500Y-2950000D01*
X-2905250Y-2950000D01*
X-2886330Y-3093709D01*
X-2830861Y-3227625D01*
X-2742621Y-3342621D01*
X-2627625Y-3430861D01*
X-2493709Y-3486330D01*
X-2355432Y-3504534D01*
X-2300209Y-3530875D01*
X-2298389Y-3532646D01*
X-1450308Y-4380727D01*
X-1437438Y-4396577D01*
X-1430084Y-4407836D01*
X-1401450Y-4430121D01*
X-1396858Y-4434177D01*
X-1393518Y-4437519D01*
X-1393512Y-4437523D01*
X-1374516Y-4451086D01*
X-1352852Y-4467947D01*
X-1331189Y-4484809D01*
X-1331183Y-4484810D01*
X-1324289Y-4488542D01*
X-1317205Y-4492005D01*
X-1317199Y-4492010D01*
X-1264594Y-4507671D01*
X-1212660Y-4525500D01*
X-1212657Y-4525500D01*
X-1204920Y-4526791D01*
X-1197096Y-4527765D01*
X-1197089Y-4527768D01*
X-1142245Y-4525500D01*
X8200789Y-4525500D01*
X8221104Y-4527607D01*
X8225530Y-4528534D01*
X8234268Y-4530367D01*
X8270267Y-4525879D01*
X8276391Y-4525500D01*
X8281118Y-4525500D01*
X8304139Y-4521658D01*
X8333471Y-4518001D01*
X8358626Y-4514866D01*
X8358628Y-4514864D01*
X8366138Y-4512629D01*
X8373606Y-4510065D01*
X8373610Y-4510065D01*
X8421877Y-4483944D01*
X8471211Y-4459826D01*
X8471215Y-4459821D01*
X8477634Y-4455239D01*
X8483823Y-4450422D01*
X8521007Y-4410029D01*
X8983203Y-3947833D01*
X9448354Y-3482681D01*
X9502870Y-3454906D01*
X9505400Y-3454538D01*
X9643709Y-3436330D01*
X9759668Y-3388298D01*
X9820663Y-3383498D01*
X9872832Y-3415468D01*
X9896247Y-3471996D01*
X9895705Y-3492684D01*
X9894741Y-3500006D01*
X9894741Y-3500009D01*
X9913660Y-3643717D01*
X9913661Y-3643718D01*
X9941474Y-3710867D01*
X9969130Y-3777634D01*
X10057370Y-3892630D01*
X10172366Y-3980870D01*
X10306282Y-4036339D01*
X10449991Y-4055259D01*
X10593700Y-4036339D01*
X10727616Y-3980870D01*
X10842612Y-3892630D01*
X10930852Y-3777634D01*
X10986321Y-3643718D01*
X11005241Y-3500009D01*
X10996137Y-3430862D01*
X10986321Y-3356300D01*
X10930852Y-3222384D01*
X10845957Y-3111748D01*
X10825534Y-3054073D01*
X10825500Y-3051481D01*
X10825500Y-2649210D01*
X10827607Y-2628894D01*
X10828974Y-2622375D01*
X10830367Y-2615732D01*
X10825879Y-2579733D01*
X10825500Y-2573608D01*
X10825500Y-2568880D01*
X10821658Y-2545859D01*
X10818035Y-2516805D01*
X10814866Y-2491374D01*
X10814864Y-2491370D01*
X10812626Y-2483850D01*
X10810065Y-2476389D01*
X10783945Y-2428123D01*
X10767629Y-2394750D01*
X10759826Y-2378789D01*
X10759824Y-2378787D01*
X10759824Y-2378786D01*
X10755271Y-2372409D01*
X10750421Y-2366177D01*
X10750419Y-2366174D01*
X10710029Y-2328992D01*
X10300313Y-1919275D01*
X10287437Y-1903419D01*
X10280084Y-1892164D01*
X10261588Y-1877768D01*
X10251463Y-1869887D01*
X10246870Y-1865832D01*
X10243518Y-1862480D01*
X10224504Y-1848905D01*
X10213287Y-1840174D01*
X10181190Y-1815191D01*
X10174281Y-1811452D01*
X10167195Y-1807988D01*
X10128743Y-1796541D01*
X10114596Y-1792329D01*
X10062660Y-1774500D01*
X10062657Y-1774499D01*
X10054923Y-1773208D01*
X10047089Y-1772232D01*
X10047088Y-1772232D01*
X10047086Y-1772232D01*
X9992244Y-1774500D01*
X8749210Y-1774500D01*
X8728895Y-1772393D01*
X8715732Y-1769633D01*
X8679732Y-1774120D01*
X8673609Y-1774500D01*
X8668882Y-1774500D01*
X8645858Y-1778342D01*
X8591374Y-1785134D01*
X8583849Y-1787374D01*
X8576387Y-1789936D01*
X8528122Y-1816055D01*
X8478786Y-1840175D01*
X8472397Y-1844737D01*
X8466172Y-1849582D01*
X8440224Y-1877768D01*
X8428992Y-1889969D01*
X8280292Y-2038670D01*
X8148459Y-2170503D01*
X8093942Y-2198281D01*
X8078455Y-2199500D01*
X7446462Y-2199500D01*
X7388271Y-2180593D01*
X7352307Y-2131093D01*
X7352307Y-2069907D01*
X7388271Y-2020407D01*
X7392454Y-2017529D01*
X7468687Y-1967907D01*
X7708280Y-1763939D01*
X7919822Y-1531007D01*
X8099842Y-1272936D01*
X8245381Y-993964D01*
X8354052Y-698670D01*
X8424069Y-391905D01*
X8454283Y-78704D01*
X8444198Y235789D01*
X8393979Y546410D01*
X8304451Y848059D01*
X8177084Y1135784D01*
X8013970Y1404858D01*
X7817786Y1650865D01*
X7591754Y1869765D01*
X7388898Y2021160D01*
X7353572Y2071117D01*
X7354356Y2132297D01*
X7390952Y2181332D01*
X7448111Y2199500D01*
X16080967Y2199500D01*
X16139158Y2180593D01*
X16150971Y2170504D01*
X16170504Y2150971D01*
X16198281Y2096454D01*
X16199500Y2080967D01*
X16199500Y34733D01*
X16180593Y-23458D01*
X16170504Y-35270D01*
X15580895Y-624879D01*
X15067381Y-1138393D01*
X15018956Y-1183619D01*
X15018955Y-1183621D01*
X14995624Y-1221984D01*
X14992773Y-1226173D01*
X14965639Y-1261957D01*
X14965638Y-1261959D01*
X14958269Y-1280643D01*
X14950765Y-1295752D01*
X14940327Y-1312918D01*
X14928210Y-1356161D01*
X14926594Y-1360966D01*
X14910123Y-1402737D01*
X14910122Y-1402741D01*
X14908068Y-1422717D01*
X14904919Y-1439290D01*
X14899500Y-1458634D01*
X14899500Y-1503536D01*
X14899240Y-1508601D01*
X14894648Y-1553273D01*
X14898060Y-1573059D01*
X14899500Y-1589882D01*
X14899500Y-3390602D01*
X14897304Y-3454906D01*
X14897238Y-3456826D01*
X14907761Y-3500009D01*
X14907867Y-3500441D01*
X14908814Y-3505423D01*
X14914930Y-3549921D01*
X14914930Y-3549922D01*
X14922931Y-3568341D01*
X14928313Y-3584345D01*
X14933065Y-3603846D01*
X14933068Y-3603854D01*
X14955075Y-3642995D01*
X14957331Y-3647536D01*
X14975220Y-3688721D01*
X14987891Y-3704295D01*
X14997391Y-3718253D01*
X15007234Y-3735760D01*
X15010484Y-3740045D01*
X15030580Y-3797836D01*
X15012870Y-3856402D01*
X15001605Y-3869869D01*
X13800971Y-5070504D01*
X13746454Y-5098281D01*
X13730967Y-5099500D01*
X12434427Y-5099500D01*
X12368175Y-5097237D01*
X12368167Y-5097237D01*
X12327806Y-5107073D01*
X12324545Y-5107868D01*
X12319566Y-5108814D01*
X12275081Y-5114929D01*
X12275073Y-5114931D01*
X12256655Y-5122931D01*
X12240663Y-5128309D01*
X12221155Y-5133063D01*
X12221146Y-5133067D01*
X12181998Y-5155076D01*
X12177460Y-5157330D01*
X12136278Y-5175220D01*
X12120698Y-5187895D01*
X12106752Y-5197387D01*
X12089241Y-5207234D01*
X12057484Y-5238988D01*
X12053721Y-5242384D01*
X12018892Y-5270720D01*
X12018891Y-5270721D01*
X12007310Y-5287127D01*
X11996437Y-5300036D01*
X11288542Y-6007930D01*
X11283670Y-6012203D01*
X11257384Y-6032374D01*
X11257373Y-6032385D01*
X11237218Y-6058650D01*
X11235272Y-6061030D01*
X11234107Y-6062365D01*
X11212232Y-6091215D01*
X11169133Y-6147382D01*
X11169066Y-6147499D01*
X11165658Y-6152630D01*
X11165645Y-6152646D01*
X11165639Y-6152657D01*
X11165639Y-6152658D01*
X11146292Y-6201719D01*
X11139596Y-6218698D01*
X11113670Y-6281290D01*
X11111763Y-6288407D01*
X11110183Y-6293191D01*
X11110123Y-6293439D01*
X11103185Y-6360927D01*
X11094750Y-6424997D01*
X11094750Y-6431481D01*
X11094419Y-6431481D01*
X11094559Y-6441390D01*
X11094647Y-6443968D01*
X11105644Y-6507752D01*
X11113669Y-6568706D01*
X11113669Y-6568708D01*
X11113670Y-6568709D01*
X11113704Y-6568792D01*
X11119801Y-6589857D01*
X11120359Y-6593098D01*
X11146264Y-6647571D01*
X11147293Y-6649887D01*
X11169135Y-6702618D01*
X11169139Y-6702626D01*
X11171473Y-6705667D01*
X11182331Y-6723408D01*
X11185353Y-6729762D01*
X11206457Y-6753965D01*
X11222750Y-6772652D01*
X11224712Y-6775050D01*
X11246076Y-6802892D01*
X11257379Y-6817621D01*
X11257383Y-6817624D01*
X11263032Y-6821959D01*
X11297687Y-6872385D01*
X11296084Y-6933549D01*
X11258835Y-6982090D01*
X11202763Y-6999500D01*
X11196613Y-6999500D01*
X11176298Y-6997393D01*
X11164685Y-6994958D01*
X11131294Y-6999120D01*
X11125169Y-6999500D01*
X11120956Y-6999500D01*
X11099448Y-7003089D01*
X11048607Y-7009426D01*
X11041575Y-7011519D01*
X11034616Y-7013908D01*
X10989555Y-7038295D01*
X10943517Y-7060801D01*
X10937542Y-7065066D01*
X10931744Y-7069579D01*
X10897042Y-7107275D01*
X9510118Y-8494198D01*
X9494265Y-8507071D01*
X9484335Y-8513559D01*
X9484332Y-8513561D01*
X9463664Y-8540114D01*
X9459605Y-8544712D01*
X9456619Y-8547698D01*
X9443955Y-8565437D01*
X9412483Y-8605874D01*
X9408981Y-8612343D01*
X9405758Y-8618936D01*
X9391138Y-8668045D01*
X9374499Y-8716512D01*
X9373293Y-8723743D01*
X9372383Y-8731047D01*
X9374500Y-8782231D01*
X9374500Y-9576236D01*
X9355593Y-9634427D01*
X9335769Y-9654777D01*
X9332381Y-9657376D01*
X9244139Y-9772374D01*
X9244137Y-9772378D01*
X9188670Y-9906290D01*
X9188669Y-9906291D01*
X9169750Y-10049999D01*
X9169750Y-10050000D01*
X9188669Y-10193708D01*
X9188670Y-10193709D01*
X9239597Y-10316661D01*
X9244139Y-10327625D01*
X9332379Y-10442621D01*
X9447375Y-10530861D01*
X9581291Y-10586330D01*
X9725000Y-10605250D01*
X9837579Y-10590428D01*
X9897738Y-10601578D01*
X9939856Y-10645960D01*
X9949500Y-10688581D01*
X9949500Y-11288810D01*
X9930593Y-11347001D01*
X9920503Y-11358814D01*
X9812158Y-11467158D01*
X9757642Y-11494935D01*
X9729235Y-11495307D01*
X9725004Y-11494750D01*
X9725000Y-11494750D01*
X9581291Y-11513669D01*
X9581290Y-11513670D01*
X9447378Y-11569137D01*
X9447374Y-11569139D01*
X9332381Y-11657377D01*
X9332377Y-11657381D01*
X9244139Y-11772374D01*
X9244137Y-11772378D01*
X9188670Y-11906290D01*
X9188669Y-11906291D01*
X9169750Y-12049999D01*
X9169750Y-12050000D01*
X9188669Y-12193708D01*
X9188670Y-12193709D01*
X9244139Y-12327625D01*
X9332379Y-12442621D01*
X9447375Y-12530861D01*
X9581291Y-12586330D01*
X9725000Y-12605250D01*
X9868709Y-12586330D01*
X10002625Y-12530861D01*
X10117621Y-12442621D01*
X10205861Y-12327625D01*
X10261330Y-12193709D01*
X10280250Y-12050000D01*
X10279693Y-12045769D01*
X10290840Y-11985608D01*
X10307838Y-11962841D01*
X10514881Y-11755798D01*
X10530731Y-11742928D01*
X10540669Y-11736437D01*
X10561341Y-11709875D01*
X10565399Y-11705281D01*
X10568375Y-11702306D01*
X10571176Y-11698382D01*
X10581039Y-11684569D01*
X10612516Y-11644127D01*
X10616023Y-11637645D01*
X10619239Y-11631067D01*
X10619238Y-11631067D01*
X10619240Y-11631066D01*
X10633861Y-11581954D01*
X10650500Y-11533488D01*
X10650500Y-11533483D01*
X10651707Y-11526251D01*
X10652617Y-11518955D01*
X10652398Y-11513670D01*
X10650500Y-11467758D01*
X10650500Y-9953683D01*
X11145740Y-9953683D01*
X11155755Y-10138407D01*
X11201350Y-10302625D01*
X11205247Y-10316661D01*
X11205250Y-10316667D01*
X11291899Y-10480103D01*
X11291900Y-10480104D01*
X11411661Y-10621098D01*
X11411666Y-10621103D01*
X11558932Y-10733052D01*
X11558934Y-10733053D01*
X11558935Y-10733053D01*
X11558936Y-10733054D01*
X11726833Y-10810732D01*
X11907503Y-10850500D01*
X11907507Y-10850500D01*
X12046112Y-10850500D01*
X12046113Y-10850500D01*
X12183910Y-10835514D01*
X12359221Y-10776444D01*
X12500418Y-10691490D01*
X12517733Y-10681072D01*
X12517733Y-10681071D01*
X12517736Y-10681070D01*
X12652041Y-10553849D01*
X12755858Y-10400730D01*
X12824331Y-10228875D01*
X12854260Y-10046317D01*
X12844245Y-9861593D01*
X12794754Y-9683341D01*
X12708100Y-9519896D01*
X12588337Y-9378900D01*
X12588333Y-9378896D01*
X12441067Y-9266947D01*
X12441065Y-9266946D01*
X12273170Y-9189269D01*
X12273168Y-9189268D01*
X12237033Y-9181314D01*
X12092497Y-9149500D01*
X11953887Y-9149500D01*
X11816090Y-9164486D01*
X11757021Y-9184388D01*
X11640780Y-9223555D01*
X11640777Y-9223556D01*
X11482266Y-9318927D01*
X11482262Y-9318931D01*
X11347960Y-9446149D01*
X11244142Y-9599267D01*
X11175669Y-9771124D01*
X11148338Y-9937839D01*
X11145740Y-9953683D01*
X10650500Y-9953683D01*
X10650500Y-9061190D01*
X10669407Y-9002999D01*
X10679496Y-8991186D01*
X10888451Y-8782231D01*
X11172818Y-8497863D01*
X11227333Y-8470088D01*
X11287765Y-8479659D01*
X11303088Y-8489328D01*
X11307378Y-8492620D01*
X11307379Y-8492621D01*
X11334671Y-8513563D01*
X11422369Y-8580857D01*
X11422371Y-8580858D01*
X11422375Y-8580861D01*
X11556291Y-8636330D01*
X11700000Y-8655250D01*
X11843709Y-8636330D01*
X11977625Y-8580861D01*
X12092621Y-8492621D01*
X12180861Y-8377625D01*
X12236330Y-8243709D01*
X12255250Y-8100000D01*
X12253023Y-8083088D01*
X12236330Y-7956291D01*
X12180861Y-7822375D01*
X12180858Y-7822371D01*
X12180857Y-7822369D01*
X12152388Y-7785268D01*
X12131963Y-7727592D01*
X12149340Y-7668927D01*
X12152388Y-7664732D01*
X12180857Y-7627630D01*
X12180856Y-7627630D01*
X12180861Y-7627625D01*
X12236330Y-7493709D01*
X12255250Y-7350000D01*
X12236330Y-7206291D01*
X12180861Y-7072375D01*
X12092621Y-6957379D01*
X12072192Y-6941703D01*
X12037537Y-6891278D01*
X12039140Y-6830114D01*
X12053917Y-6802899D01*
X12062801Y-6791320D01*
X12067059Y-6786464D01*
X12339392Y-6514132D01*
X12624030Y-6229496D01*
X12678546Y-6201719D01*
X12694033Y-6200500D01*
X13350500Y-6200500D01*
X13408691Y-6219407D01*
X13444655Y-6268907D01*
X13449500Y-6299500D01*
X13449500Y-7860672D01*
X13449076Y-7867140D01*
X13444750Y-7899999D01*
X13444750Y-7900003D01*
X13449071Y-7932830D01*
X13449378Y-7935898D01*
X13449497Y-7937638D01*
X13449500Y-7937658D01*
X13454433Y-7973549D01*
X13459733Y-8013809D01*
X13463671Y-8043716D01*
X13463702Y-8043832D01*
X13464924Y-8049885D01*
X13464927Y-8049909D01*
X13464929Y-8049916D01*
X13464930Y-8049920D01*
X13479652Y-8083813D01*
X13493214Y-8115035D01*
X13519139Y-8177625D01*
X13522823Y-8184008D01*
X13525085Y-8188498D01*
X13525220Y-8188720D01*
X13568030Y-8241341D01*
X13607379Y-8292621D01*
X13607382Y-8292623D01*
X13611968Y-8297209D01*
X13611731Y-8297445D01*
X13618789Y-8304303D01*
X13620718Y-8306105D01*
X13620721Y-8306107D01*
X13620722Y-8306108D01*
X13673587Y-8343424D01*
X13722375Y-8380861D01*
X13722449Y-8380891D01*
X13741668Y-8391481D01*
X13744353Y-8393377D01*
X13764584Y-8400567D01*
X13801196Y-8413579D01*
X13803537Y-8414479D01*
X13856291Y-8436330D01*
X13860091Y-8436830D01*
X13880315Y-8441698D01*
X13886944Y-8444054D01*
X13943722Y-8447937D01*
X13946785Y-8448244D01*
X13963923Y-8450500D01*
X14000000Y-8455250D01*
X14007505Y-8454261D01*
X14027177Y-8453646D01*
X14037921Y-8454381D01*
X14090315Y-8443492D01*
X14093862Y-8442892D01*
X14143709Y-8436330D01*
X14154152Y-8432004D01*
X14171882Y-8426543D01*
X14186085Y-8423592D01*
X14230530Y-8400560D01*
X14234327Y-8398793D01*
X14277625Y-8380861D01*
X14289546Y-8371712D01*
X14304264Y-8362355D01*
X14320447Y-8353971D01*
X14354527Y-8322141D01*
X14358156Y-8319066D01*
X14392621Y-8292621D01*
X14404036Y-8277744D01*
X14415004Y-8265660D01*
X14431044Y-8250680D01*
X14453490Y-8213766D01*
X14456499Y-8209371D01*
X14480861Y-8177625D01*
X14489463Y-8156856D01*
X14496333Y-8143316D01*
X14509672Y-8121382D01*
X14520405Y-8083071D01*
X14522330Y-8077507D01*
X14536330Y-8043709D01*
X14539749Y-8017732D01*
X14542567Y-8003974D01*
X14550500Y-7975665D01*
X14550500Y-7939326D01*
X14550924Y-7932858D01*
X14550928Y-7932830D01*
X14555250Y-7900000D01*
X14550924Y-7867140D01*
X14550500Y-7860672D01*
X14550500Y-5919031D01*
X14569407Y-5860840D01*
X14579490Y-5849033D01*
X15974550Y-4453972D01*
X16020861Y-4427855D01*
X16051534Y-4420294D01*
X16082365Y-4412696D01*
X16222240Y-4339283D01*
X16340483Y-4234530D01*
X16430220Y-4104523D01*
X16486237Y-3956818D01*
X16505278Y-3800000D01*
X16486237Y-3643182D01*
X16430220Y-3495477D01*
X16340483Y-3365470D01*
X16222240Y-3260717D01*
X16082365Y-3187304D01*
X16082364Y-3187303D01*
X16075804Y-3185686D01*
X16023830Y-3153400D01*
X16000760Y-3096731D01*
X16000500Y-3089564D01*
X16000500Y-1803332D01*
X16019407Y-1745141D01*
X16029490Y-1733334D01*
X17132618Y-630206D01*
X17181044Y-584980D01*
X17204379Y-546606D01*
X17207217Y-542434D01*
X17234361Y-506642D01*
X17241731Y-487951D01*
X17249236Y-472841D01*
X17259672Y-455682D01*
X17271790Y-412430D01*
X17273397Y-407648D01*
X17289876Y-365864D01*
X17291929Y-345885D01*
X17295082Y-329304D01*
X17300499Y-309968D01*
X17300500Y-309967D01*
X17300500Y-265063D01*
X17300760Y-259998D01*
X17303249Y-235784D01*
X17305352Y-215328D01*
X17301939Y-195531D01*
X17300500Y-178712D01*
X17300500Y2310672D01*
X17300924Y2317140D01*
X17305250Y2350000D01*
X17305250Y2350001D01*
X17302802Y2368589D01*
X17302012Y2384891D01*
X17302762Y2406826D01*
X17292533Y2448795D01*
X17291549Y2454058D01*
X17286330Y2493709D01*
X17286325Y2493719D01*
X17286305Y2493799D01*
X17285073Y2499895D01*
X17285070Y2499920D01*
X17277071Y2518334D01*
X17271686Y2534346D01*
X17266935Y2553844D01*
X17266933Y2553850D01*
X17266933Y2553852D01*
X17247437Y2588524D01*
X17244859Y2593827D01*
X17230861Y2627625D01*
X17230856Y2627631D01*
X17227183Y2633992D01*
X17224899Y2638524D01*
X17224780Y2638719D01*
X17224780Y2638720D01*
X17212105Y2654297D01*
X17202604Y2668258D01*
X17192765Y2685759D01*
X17167065Y2711457D01*
X17162799Y2716324D01*
X17158037Y2722529D01*
X17142621Y2742621D01*
X17142612Y2742627D01*
X17138028Y2747213D01*
X17138265Y2747450D01*
X17131318Y2754202D01*
X17129281Y2756103D01*
X17129278Y2756108D01*
X17112862Y2767695D01*
X17099962Y2778560D01*
X16745907Y3132617D01*
X16700680Y3181044D01*
X16662306Y3204379D01*
X16658134Y3207217D01*
X16622342Y3234361D01*
X16603651Y3241731D01*
X16588541Y3249236D01*
X16571382Y3259672D01*
X16528130Y3271790D01*
X16523348Y3273397D01*
X16481564Y3289876D01*
X16461585Y3291929D01*
X16445004Y3295082D01*
X16429180Y3299515D01*
X16425667Y3300499D01*
X16425667Y3300500D01*
X16425665Y3300500D01*
X16380763Y3300500D01*
X16375698Y3300760D01*
X16367057Y3301647D01*
X16331028Y3305352D01*
X16311239Y3301940D01*
X16294417Y3300500D01*
X3103563Y3300500D01*
X3045372Y3319407D01*
X3037913Y3325398D01*
X3037203Y3326026D01*
X3022240Y3339283D01*
X2882365Y3412696D01*
X2728985Y3450500D01*
X2571015Y3450500D01*
X2417635Y3412696D01*
X2277760Y3339283D01*
X2167638Y3241724D01*
X2159515Y3234528D01*
X2069780Y3104523D01*
X2013763Y2956817D01*
X2013762Y2956816D01*
X1994722Y2800001D01*
X1994722Y2799998D01*
X2013762Y2643183D01*
X2013763Y2643182D01*
X2069780Y2495476D01*
X2159515Y2365471D01*
X2277758Y2260718D01*
X2417635Y2187303D01*
X2571012Y2149500D01*
X2571015Y2149500D01*
X2728988Y2149500D01*
X2882364Y2187303D01*
X2883994Y2188159D01*
X2885784Y2188600D01*
X2887967Y2189428D01*
X2888067Y2189163D01*
X2930004Y2199500D01*
X4553538Y2199500D01*
X4611729Y2180593D01*
X4647693Y2131093D01*
X4647693Y2069907D01*
X4611729Y2020407D01*
X4607551Y2017533D01*
X4531313Y1967907D01*
X4416031Y1869766D01*
X4291721Y1763940D01*
X4080178Y1531007D01*
X3900154Y1272930D01*
X3754618Y993963D01*
X3754617Y993961D01*
X3645953Y698686D01*
X3645948Y698671D01*
X3575930Y391901D01*
X3563412Y262141D01*
X3545717Y78704D01*
X3545717Y78697D01*
X3545717Y78695D01*
X3550764Y-78695D01*
X3554243Y-187186D01*
X3555802Y-235784D01*
X3555803Y-235799D01*
X3606021Y-546411D01*
X3606022Y-546413D01*
X3695547Y-848055D01*
X3822916Y-1135784D01*
X3986031Y-1404860D01*
X3986034Y-1404864D01*
X4182204Y-1650854D01*
X4182207Y-1650857D01*
X4182209Y-1650859D01*
X4182214Y-1650865D01*
X4408246Y-1869765D01*
X4569276Y-1989944D01*
X4611102Y-2021160D01*
X4646428Y-2071117D01*
X4645644Y-2132297D01*
X4609048Y-2181332D01*
X4551889Y-2199500D01*
X3023539Y-2199500D01*
X2965348Y-2180593D01*
X2963314Y-2179074D01*
X2852625Y-2094139D01*
X2852621Y-2094137D01*
X2718709Y-2038670D01*
X2718708Y-2038669D01*
X2575000Y-2019750D01*
X2431291Y-2038669D01*
X2431290Y-2038670D01*
X2297378Y-2094137D01*
X2297374Y-2094139D01*
X2182381Y-2182377D01*
X2182377Y-2182381D01*
X2094139Y-2297374D01*
X2094137Y-2297378D01*
X2038670Y-2431290D01*
X2038669Y-2431291D01*
X2019750Y-2574999D01*
X2019750Y-2575000D01*
X2038669Y-2718708D01*
X2038670Y-2718709D01*
X2079794Y-2817994D01*
X2094139Y-2852625D01*
X2182379Y-2967621D01*
X2297375Y-3055861D01*
X2431291Y-3111330D01*
X2575000Y-3130250D01*
X2718709Y-3111330D01*
X2852625Y-3055861D01*
X2963273Y-2970957D01*
X3020947Y-2950534D01*
X3023539Y-2950500D01*
X8225789Y-2950500D01*
X8246104Y-2952607D01*
X8250530Y-2953534D01*
X8259268Y-2955367D01*
X8295267Y-2950879D01*
X8301391Y-2950500D01*
X8306118Y-2950500D01*
X8329139Y-2946658D01*
X8358471Y-2943001D01*
X8383626Y-2939866D01*
X8383628Y-2939864D01*
X8391138Y-2937629D01*
X8398606Y-2935065D01*
X8398610Y-2935065D01*
X8446877Y-2908944D01*
X8496211Y-2884826D01*
X8496215Y-2884821D01*
X8502600Y-2880263D01*
X8508822Y-2875421D01*
X8508826Y-2875419D01*
X8546007Y-2835030D01*
X8678043Y-2702994D01*
X8826542Y-2554496D01*
X8881058Y-2526719D01*
X8896545Y-2525500D01*
X8911102Y-2525500D01*
X8969293Y-2544407D01*
X9005257Y-2593907D01*
X9005257Y-2655093D01*
X9002570Y-2662375D01*
X8963670Y-2756291D01*
X8963669Y-2756294D01*
X8945465Y-2894563D01*
X8919123Y-2949788D01*
X8917316Y-2951643D01*
X8123458Y-3745503D01*
X8068941Y-3773281D01*
X8053454Y-3774500D01*
X-953456Y-3774500D01*
X-1011647Y-3755593D01*
X-1023460Y-3745503D01*
X-1767316Y-3001644D01*
X-1795093Y-2947128D01*
X-1795465Y-2944564D01*
X-1813670Y-2806291D01*
X-1813670Y-2806290D01*
X-1869137Y-2672378D01*
X-1869139Y-2672374D01*
X-1957377Y-2557381D01*
X-1957381Y-2557377D01*
X-2072374Y-2469139D01*
X-2072378Y-2469137D01*
X-2206290Y-2413670D01*
X-2206291Y-2413669D01*
X-2350000Y-2394750D01*
X-2493708Y-2413669D01*
X-2493709Y-2413670D01*
X-2627621Y-2469137D01*
X-2627625Y-2469139D01*
X-2742621Y-2557379D01*
X-2830861Y-2672375D01*
X-2886330Y-2806291D01*
X-2903283Y-2935063D01*
X-2905250Y-2950000D01*
X-10749500Y-2950000D01*
X-10749500Y78704D01*
X-8454283Y78704D01*
X-8444198Y-235789D01*
X-8393979Y-546410D01*
X-8304451Y-848059D01*
X-8177084Y-1135784D01*
X-8013970Y-1404858D01*
X-7817786Y-1650865D01*
X-7591754Y-1869765D01*
X-7339585Y-2057963D01*
X-7065421Y-2212370D01*
X-6773762Y-2330449D01*
X-6773760Y-2330449D01*
X-6773759Y-2330450D01*
X-6708838Y-2347474D01*
X-6469399Y-2410263D01*
X-6157327Y-2450500D01*
X-5921425Y-2450500D01*
X-5921420Y-2450500D01*
X-5685992Y-2435385D01*
X-5685987Y-2435384D01*
X-5685986Y-2435384D01*
X-5556996Y-2410263D01*
X-5377140Y-2375236D01*
X-5078515Y-2276086D01*
X-4795021Y-2139562D01*
X-4531313Y-1967907D01*
X-4308639Y-1778342D01*
X-4291721Y-1763940D01*
X-4080178Y-1531007D01*
X-4029694Y-1458635D01*
X-3900158Y-1272936D01*
X-3900157Y-1272934D01*
X-3900154Y-1272930D01*
X-3754618Y-993963D01*
X-3754617Y-993961D01*
X-3645953Y-698686D01*
X-3645948Y-698671D01*
X-3575930Y-391901D01*
X-3558897Y-215327D01*
X-3545717Y-78704D01*
X-3545933Y-71961D01*
X-500500Y-71961D01*
X-459953Y-210053D01*
X-382143Y-331128D01*
X-273373Y-425377D01*
X-142457Y-485165D01*
X-124680Y-487720D01*
X-35804Y-500500D01*
X-35799Y-500500D01*
X35804Y-500500D01*
X124680Y-487720D01*
X142457Y-485165D01*
X273373Y-425377D01*
X382143Y-331128D01*
X459953Y-210053D01*
X500500Y-71961D01*
X500500Y71961D01*
X459953Y210053D01*
X382143Y331128D01*
X273373Y425377D01*
X142457Y485165D01*
X124680Y487720D01*
X35804Y500500D01*
X35799Y500500D01*
X-35799Y500500D01*
X-35804Y500500D01*
X-124680Y487720D01*
X-142457Y485165D01*
X-273373Y425377D01*
X-382143Y331128D01*
X-459953Y210053D01*
X-500500Y71961D01*
X-500500Y-71961D01*
X-3545933Y-71961D01*
X-3547489Y-23458D01*
X-3555802Y235784D01*
X-3555803Y235799D01*
X-3606021Y546411D01*
X-3606022Y546413D01*
X-3695547Y848055D01*
X-3822916Y1135784D01*
X-3986031Y1404860D01*
X-3986034Y1404864D01*
X-4182204Y1650854D01*
X-4182207Y1650857D01*
X-4182209Y1650859D01*
X-4182214Y1650865D01*
X-4408246Y1869765D01*
X-4492302Y1932497D01*
X-4660411Y2057961D01*
X-4792402Y2132297D01*
X-4934579Y2212370D01*
X-5226238Y2330449D01*
X-5226240Y2330450D01*
X-5371681Y2368589D01*
X-5530601Y2410263D01*
X-5842673Y2450500D01*
X-6078580Y2450500D01*
X-6314008Y2435385D01*
X-6622860Y2375236D01*
X-6921485Y2276086D01*
X-7204979Y2139562D01*
X-7468687Y1967907D01*
X-7708280Y1763939D01*
X-7919822Y1531007D01*
X-8099842Y1272936D01*
X-8245381Y993964D01*
X-8354052Y698670D01*
X-8424069Y391905D01*
X-8454283Y78704D01*
X-10749500Y78704D01*
X-10749500Y3997573D01*
X-10749261Y4002429D01*
X-10736054Y4136515D01*
X-10732268Y4155549D01*
X-10695278Y4277489D01*
X-10687851Y4295419D01*
X-10627784Y4407798D01*
X-10617002Y4423935D01*
X-10536163Y4522437D01*
X-10522440Y4536160D01*
X-10423938Y4616999D01*
X-10407801Y4627781D01*
X-10295422Y4687848D01*
X-10277492Y4695275D01*
X-10155552Y4732265D01*
X-10136518Y4736051D01*
X-10002428Y4749258D01*
X-9997573Y4749497D01*
X-9946947Y4749497D01*
X-9946913Y4749500D01*
X18455830Y4749500D01*
X18497570Y4749500D01*
X18502425Y4749261D01*
G37*
%TD.AperFunction*%
%TA.AperFunction,Conductor*%
G36*
X16695445Y-9296979D02*
G01*
X16738710Y-9340244D01*
X16749500Y-9385189D01*
X16749500Y-11644636D01*
X16730593Y-11702827D01*
X16681093Y-11738791D01*
X16619907Y-11738791D01*
X16570407Y-11702827D01*
X16568057Y-11698920D01*
X16559948Y-11687562D01*
X16555418Y-11681742D01*
X16517724Y-11647041D01*
X15562172Y-10691490D01*
X15534395Y-10636973D01*
X15543966Y-10576541D01*
X15587231Y-10533276D01*
X15594259Y-10530036D01*
X15652625Y-10505861D01*
X15767621Y-10417621D01*
X15855861Y-10302625D01*
X15911330Y-10168709D01*
X15930250Y-10025000D01*
X15929693Y-10020770D01*
X15940839Y-9960610D01*
X15957837Y-9937843D01*
X16580497Y-9315184D01*
X16635013Y-9287408D01*
X16695445Y-9296979D01*
G37*
%TD.AperFunction*%
%TD*%
M02*
